<svg width="100" height="24" viewBox="0 0 100 24" fill="none" xmlns="http://www.w3.org/2000/svg">
<path d="M60.6801 7.30835C59.3577 7.30835 57.7845 8.2851 56.8715 10.3008H56.745V8.85212C56.745 7.81245 56.4935 7.33981 55.3919 7.33981C54.196 7.33981 51.3633 8.50532 51.3633 9.26185C51.3633 9.89179 51.8662 10.0805 52.8421 10.6169C53.1258 10.8056 53.3458 11.1202 53.3143 11.6565V20.5087C53.3143 21.7686 51.5526 21.8 51.5526 22.7139C51.5526 23.3124 52.0555 23.5326 53 23.5326H57.2487C58.2246 23.5326 58.6961 23.3124 58.6961 22.7139C58.6961 21.8 56.9336 21.7686 56.9336 20.5087V14.5546C56.9336 11.688 57.9409 11.121 58.9797 11.121C59.7977 11.121 60.0814 11.3412 60.7729 11.3412C61.9059 11.3412 62.8504 10.6798 62.8504 9.23114C62.8504 8.16001 62.1574 7.3091 60.6786 7.3091L60.6801 7.30835Z" fill="#111111"/>
<path d="M77.1356 19.8937V13.3411C77.1042 9.2461 75.4675 7.07239 70.9673 7.07239C66.7808 7.07239 64.0746 9.34123 64.0746 11.1359C64.0746 12.1441 64.7669 12.7112 65.5849 12.7112C66.4657 12.7112 66.9387 12.1441 67.3473 11.1681C68.1032 9.59291 69.2041 8.52178 70.8094 8.52178C72.6662 8.52178 73.2956 9.71875 73.2956 11.0423C73.2956 12.5224 72.7298 13.2789 70.0221 14.2871C66.1507 15.7995 63.5073 16.9964 63.5073 19.7993C63.5073 22.0045 65.1441 23.7685 67.9453 23.7685C70.7466 23.7685 72.3197 22.7918 73.5792 20.7446H73.705V21.2173C73.705 22.6345 74.8695 23.7693 76.6013 23.7693C77.9866 23.7693 78.8989 23.1708 78.8989 22.4465C78.8989 21.1858 77.1364 21.9423 77.1364 19.8945L77.1356 19.8937ZM73.5792 16.5223C73.5792 19.7357 71.6274 21.2794 69.6135 21.2794C68.1347 21.2794 67.1902 20.4607 67.1902 19.1372C67.1902 17.8136 68.0082 16.9635 70.4637 15.9875L73.58 14.7583V16.5223H73.5792Z" fill="#111111"/>
<path d="M95.6362 20.5395V15.5306C95.6362 10.742 94.9754 7.33985 90.2223 7.33985C87.799 7.33985 86.0994 8.60049 85.0292 10.3008H84.9349V1.51231C84.9035 0.471895 84.6513 0 83.581 0C82.6051 0 79.521 1.16551 79.521 1.92204C79.521 2.55198 79.9932 2.74074 80.9998 3.27631C81.252 3.46506 81.4721 3.78041 81.4406 4.31597V20.5395C81.4406 21.7993 79.6782 21.7993 79.6782 22.7132C79.6782 23.3117 80.1504 23.5319 81.1256 23.5319H85.3742C86.3187 23.5319 86.8216 23.3117 86.8216 22.7132C86.8216 21.7993 85.0599 21.7679 85.0599 20.508L85.0913 14.8055C85.0913 12.097 86.3501 10.0177 88.8049 10.0177C90.9453 10.0177 92.0155 11.876 92.0155 15.6565V20.5387C92.0155 21.7986 90.253 21.83 90.253 22.7439C90.253 23.3424 90.7252 23.5626 91.7004 23.5626H95.9498C96.8935 23.5626 97.3972 23.3424 97.3972 22.7439C97.3972 21.83 95.6347 21.7986 95.6347 20.5387L95.6362 20.5395Z" fill="#111111"/>
<path d="M94.8952 0.657658C95.0209 0.657658 95.0097 0.546799 95.1204 0.340064C95.1758 0.240442 95.2462 0.170032 95.3786 0.170032H95.5702C95.684 0.170032 95.6952 0.199993 95.6952 0.399238V2.18196C95.6952 2.32952 95.4737 2.33326 95.4737 2.42914C95.4737 2.48457 95.5141 2.51378 95.6211 2.51378H96.1188C96.2258 2.51378 96.2662 2.48457 96.2662 2.42914C96.2662 2.33326 96.0447 2.32952 96.0447 2.18196V0.373022C96.0447 0.195499 96.0559 0.170032 96.1659 0.170032H96.3575C96.4937 0.170032 96.5641 0.240442 96.6195 0.340064C96.7302 0.546799 96.719 0.657658 96.8447 0.657658C96.9076 0.657658 96.9518 0.605974 96.9405 0.502606C96.9256 0.376768 96.9001 0.247932 96.8709 0.122093C96.8485 0.0441932 96.8193 0 96.7527 0H94.9865C94.9199 0 94.8907 0.0441932 94.8682 0.122093C94.839 0.247183 94.8128 0.376768 94.7986 0.502606C94.7874 0.605974 94.8316 0.657658 94.8944 0.657658H94.8952Z" fill="#111111"/>
<path d="M99.7785 2.18196V0.332574C99.7785 0.185013 100 0.181268 100 0.0853906C100 0.0299616 99.9596 0 99.8526 0H99.5764C99.4402 0 99.3773 0.0367028 99.3369 0.103367L98.5736 1.67935L97.9651 0.439687C97.8506 0.203739 97.799 0.00749041 97.5887 0H97.3454C97.2384 0 97.198 0.0299616 97.198 0.0853906C97.198 0.181268 97.4188 0.185013 97.4188 0.332574V2.18196C97.4188 2.32952 97.198 2.33326 97.198 2.42914C97.198 2.48457 97.2384 2.51378 97.3454 2.51378H97.6845C97.7915 2.51378 97.8319 2.48457 97.8319 2.42914C97.8319 2.33326 97.6104 2.32952 97.6104 2.18196V0.435942L98.2779 1.80519C98.3558 1.96024 98.3887 1.97822 98.4995 1.97822C98.6102 1.97822 98.6432 1.93402 98.7427 1.72729L99.429 0.325083V2.18196C99.429 2.32952 99.2074 2.33326 99.2074 2.42914C99.2074 2.48457 99.2479 2.51378 99.3549 2.51378H99.8526C99.9596 2.51378 100 2.48457 100 2.42914C100 2.33326 99.7785 2.32952 99.7785 2.18196Z" fill="#111111"/>
<path d="M49.6397 10.2363C49.7512 9.58016 49.7182 9.04235 49.5543 8.6154C49.5087 8.49106 49.4428 8.37271 49.377 8.26784C49.377 8.26784 49.3702 8.26784 49.3702 8.2611C49.3306 8.20867 49.2916 8.15624 49.252 8.11054C49.029 7.86111 48.7274 7.6776 48.3606 7.57872C48.2297 7.53903 48.092 7.50682 47.9408 7.49333C47.7904 7.46712 47.6325 7.46038 47.4686 7.46038C47.0622 7.46038 46.6618 7.51281 46.2883 7.61767C46.1641 7.65063 46.0391 7.68958 45.9209 7.72928C45.7637 7.78172 45.6125 7.84763 45.4748 7.91954C45.3109 7.99145 45.1605 8.08358 45.0228 8.1817C44.5506 8.50978 44.2557 8.92325 44.2557 9.34946C44.2557 9.50076 44.2819 9.61836 44.3275 9.72323C44.57 10.3404 45.4359 10.3464 45.6784 11.2191C45.7502 11.4685 45.7637 11.7898 45.7046 12.2168C45.1672 15.5568 42.9969 21.2592 40.1313 21.2592C39.915 21.2592 39.7182 21.233 39.5415 21.1806C39.3058 21.1086 39.1022 20.997 38.9249 20.833C38.7475 20.6757 38.6038 20.4592 38.505 20.2031C38.4788 20.1371 38.4526 20.072 38.4332 19.9993C38.276 19.481 38.2558 18.8053 38.4002 17.9844L39.659 10.2348C39.7705 9.57866 39.7376 9.04085 39.5737 8.6139C39.5281 8.48956 39.4622 8.37121 39.3964 8.26634C39.3964 8.26634 39.3896 8.26634 39.3896 8.2596C39.3499 8.20717 39.311 8.15474 39.2714 8.10905C39.0483 7.85287 38.7467 7.6761 38.3793 7.57723C38.2483 7.53753 38.1106 7.50532 37.9594 7.49184C37.8083 7.46562 37.6511 7.45888 37.4872 7.45888C37.0808 7.45888 36.6804 7.51131 36.307 7.61618C36.1827 7.64913 36.0578 7.68808 35.9395 7.72778C35.7823 7.78022 35.6312 7.84613 35.4935 7.91804C35.3296 7.98995 35.1791 8.08208 35.0414 8.1802C34.9105 8.27833 34.7922 8.3772 34.6874 8.48881C34.6545 8.52177 34.6216 8.55473 34.5954 8.58693C34.5033 8.6918 34.4382 8.79667 34.3858 8.90153V8.90827C34.3664 8.94797 34.3529 8.98018 34.3402 9.01988C34.2945 9.12475 34.2743 9.23635 34.2743 9.34796C34.2743 9.49252 34.3005 9.61686 34.3462 9.72173C34.5886 10.3449 35.4605 10.3974 35.703 11.231C35.7749 11.4805 35.7951 11.7951 35.7225 12.2153L34.8438 17.6031C34.4502 18.9814 34.6014 19.6503 32.7917 20.8315C32.1818 21.2315 31.6445 21.3371 31.2575 21.0547C31.2119 21.0218 31.1655 20.9761 31.1198 20.9304C31.1064 20.9169 31.0936 20.9042 31.0869 20.8907C31.054 20.851 31.021 20.812 30.9948 20.7723V20.7656C30.9619 20.7199 30.9357 20.6735 30.923 20.621C30.8706 20.5162 30.8377 20.3978 30.825 20.2532C30.8055 20.1222 30.8055 19.9709 30.8182 19.8008C30.8182 19.7222 30.8317 19.6435 30.8444 19.5581L32.5096 8.81614C32.5553 8.56671 32.5687 8.31728 32.5223 8.09407C32.4827 7.91055 32.3981 7.74651 32.2604 7.61468C32.1885 7.54876 32.1032 7.49034 31.9917 7.45738C31.9588 7.43791 31.9199 7.42442 31.8869 7.41768C31.7687 7.38472 31.631 7.36525 31.4738 7.36525C31.2703 7.36525 31.0802 7.39146 30.8901 7.46337H30.8833C30.3063 7.65363 29.769 8.17196 29.1134 9.18916C29.0543 9.11051 28.9951 9.03186 28.93 8.95921C28.8709 8.8873 28.8058 8.81464 28.7399 8.74948C28.1824 8.17197 27.5073 7.77198 26.7597 7.54202C26.6092 7.49633 26.4513 7.45663 26.2942 7.42367C26.1235 7.39072 25.9529 7.35776 25.7763 7.33828C25.7433 7.33154 25.7104 7.33154 25.6715 7.33154C25.4881 7.30532 25.304 7.29858 25.1139 7.29858C24.7532 7.29858 24.3992 7.3248 24.052 7.38397C23.698 7.43641 23.3567 7.51506 23.0229 7.61992C22.6165 7.74426 22.2296 7.90231 21.8494 8.09931C21.5935 8.22365 21.351 8.36147 21.1085 8.52551C20.7478 8.75547 20.4073 9.02437 20.0795 9.3195C19.968 9.41163 19.8632 9.50975 19.7584 9.6281C19.6536 9.72622 19.5489 9.83783 19.4501 9.9427C19.3453 10.0543 19.2465 10.1659 19.1552 10.2843C19.0632 10.3959 18.9719 10.5075 18.8865 10.6258C18.8671 10.6393 18.8536 10.652 18.8536 10.6655C18.6762 10.9015 18.5123 11.1449 18.3552 11.4003C18.2766 11.5247 18.198 11.6565 18.1194 11.7943C18.0012 11.9981 17.8964 12.2078 17.8051 12.4175C17.7003 12.6078 17.615 12.8048 17.5364 13.0078C17.4444 13.231 17.3591 13.4602 17.2805 13.6969C17.261 13.7493 17.2408 13.8018 17.2281 13.8609C17.1884 13.9725 17.1562 14.0909 17.1301 14.2085C17.0904 14.3201 17.0582 14.425 17.032 14.5366C15.7141 15.9148 14.1671 17.0826 13.5901 17.496C13.7016 17.2339 13.8132 16.9709 13.9179 16.702C13.9314 16.6623 13.9441 16.6234 13.9636 16.5837C14.0684 16.308 14.1671 16.0257 14.2585 15.744C14.3565 15.4489 14.4485 15.147 14.5339 14.8452C14.5863 14.6549 14.6386 14.4647 14.685 14.2744C14.7771 13.8939 14.8624 13.5134 14.9343 13.1329C14.9672 12.9493 15.0001 12.7591 15.0263 12.5688C15.0922 12.1224 15.1378 11.67 15.1707 11.2303C15.1775 11.0857 15.1842 10.9352 15.1902 10.7906C15.1902 10.7187 15.1969 10.646 15.1969 10.5741V10.3577C15.1969 10.0101 15.1707 9.68802 15.1251 9.3929C15.1184 9.35994 15.1116 9.33373 15.1056 9.30077C15.0727 9.14347 15.0398 8.98542 14.9941 8.84835C14.8699 8.46784 14.6993 8.15923 14.4762 7.91654C14.4238 7.85737 14.3715 7.80494 14.3123 7.75924C14.1417 7.60869 13.9389 7.49708 13.7159 7.41768C13.6044 7.37798 13.4861 7.34577 13.3619 7.33229C13.2376 7.30607 13.1059 7.29933 12.9682 7.29933C12.6666 7.29933 12.3785 7.35177 12.1293 7.46337H12.1225C11.9721 7.52255 11.8344 7.6012 11.7094 7.69932C11.6503 7.73902 11.5979 7.78471 11.5455 7.83714C11.4931 7.88283 11.4407 7.93527 11.3951 7.98845C11.3098 8.08657 11.2379 8.19219 11.1855 8.30305C11.0613 8.52626 10.9887 8.77569 10.9625 9.0446V9.05134C10.949 9.11725 10.949 9.18242 10.949 9.25508C10.949 9.28804 10.949 9.31425 10.9558 9.34047C10.9558 9.37343 10.9558 9.39964 10.9625 9.42586C10.9558 9.43934 10.9558 9.45208 10.9625 9.46556C10.9693 9.55095 10.982 9.63634 10.9954 9.70825C11.0022 9.7869 11.0216 9.85881 11.0478 9.93146C11.0606 9.99738 11.0808 10.0558 11.107 10.115C11.1399 10.1936 11.1788 10.2723 11.2252 10.3509C11.3038 10.4887 11.3958 10.6198 11.4871 10.7509C11.5395 10.8168 11.5919 10.882 11.651 10.9479C11.7491 11.0723 11.8546 11.1973 11.9594 11.3352C12.3268 11.8146 12.6546 12.3981 12.6546 13.4415C12.6546 14.4849 12.4054 15.6264 11.999 16.7095C11.9137 16.926 11.8284 17.1357 11.7371 17.3462C11.6915 17.4578 11.6391 17.5627 11.5927 17.6676C11.5335 17.7919 11.4744 17.9102 11.4153 18.0286C11.2911 18.2645 11.1593 18.5012 11.0216 18.7177C10.8839 18.9409 10.7395 19.1574 10.5958 19.3544C10.4319 19.5776 10.2545 19.7941 10.0846 19.9843C10.0255 20.0503 9.9664 20.1087 9.90728 20.1679C9.75685 20.3252 9.59894 20.463 9.44177 20.5941C9.35646 20.6532 9.27787 20.7124 9.19256 20.7716C9.14017 20.8045 9.09452 20.8375 9.04138 20.8697C8.95606 20.9221 8.86401 20.9678 8.77944 21.0075C8.5175 21.1259 8.24808 21.191 7.99288 21.191C7.75713 21.191 7.55357 21.1581 7.3762 21.0862C7.23849 21.027 7.11426 20.9484 7.00873 20.8367C6.90396 20.7386 6.81191 20.6068 6.74006 20.4495L6.73333 20.4428C6.68767 20.3506 6.64801 20.2525 6.61508 20.1409C6.60161 20.1079 6.59562 20.075 6.58888 20.0428C6.51704 19.7933 6.47064 19.4915 6.45118 19.1439L5.75592 10.9869C5.72973 10.7112 5.75592 10.4947 5.82178 10.324C5.86743 10.1929 5.93329 10.0813 6.01861 9.99588C6.05827 9.94345 6.09719 9.90375 6.14284 9.87154C6.28054 9.75319 6.43097 9.6678 6.58888 9.58915C6.74605 9.50376 6.90396 9.43185 7.04092 9.33972C7.26394 9.18242 7.42784 8.98542 7.42784 8.62439C7.42784 8.32926 7.32306 8.11279 7.12623 7.97497C7.03418 7.91579 6.92267 7.86336 6.79844 7.83714C6.77224 7.82441 6.73931 7.81767 6.71312 7.81767C6.56868 7.78471 6.41151 7.77198 6.22816 7.77198H1.41597C0.799287 7.77198 0.399644 7.89632 0.190093 8.13302C0.0591234 8.27084 0 8.44761 0 8.65809C0 8.85509 0.0523878 9.00565 0.144441 9.13074C0.170634 9.17044 0.203564 9.20939 0.24248 9.24234C0.353991 9.35395 0.484961 9.44608 0.629402 9.54421C0.77983 9.64233 0.937741 9.74795 1.08143 9.88577C1.12709 9.92547 1.17349 9.97116 1.21914 10.0236C1.26479 10.0693 1.31119 10.1285 1.35684 10.1876C1.43543 10.306 1.50727 10.4438 1.57313 10.6078C1.58585 10.6475 1.59932 10.6932 1.61279 10.7322C1.63899 10.8243 1.66518 10.9157 1.67865 11.0206C1.68539 11.0663 1.69213 11.1254 1.69811 11.1779L2.67477 19.8068C2.72042 20.2068 2.77955 20.5813 2.86486 20.9221C2.89106 21.0337 2.91725 21.1454 2.95018 21.2502C2.98984 21.3948 3.0355 21.5326 3.08788 21.6637C3.17994 21.9259 3.29145 22.1625 3.42242 22.379C3.42242 22.379 3.42242 22.3858 3.42915 22.3858C3.55339 22.6022 3.69783 22.7925 3.86173 22.9633C3.94704 23.0554 4.03236 23.1408 4.12367 23.2127C4.27484 23.337 4.432 23.4427 4.60264 23.534C5.16019 23.8494 5.85471 23.9999 6.7004 23.9999H6.71312C6.83136 23.9999 6.94288 23.9932 7.06037 23.9805C7.17862 23.9737 7.29612 23.9543 7.41437 23.9348C7.49295 23.9213 7.57153 23.9018 7.65011 23.8823C7.97117 23.8104 8.28625 23.6921 8.60057 23.5408C8.72481 23.4884 8.84979 23.4224 8.97402 23.3438C9.44626 23.0749 9.90503 22.7266 10.3511 22.3198C11.7349 21.0337 13.0917 19.7147 14.5279 18.4743L16.6982 16.5972C16.6982 16.6301 16.6982 16.6631 16.6915 16.6953C16.6848 16.7934 16.6848 16.8923 16.678 16.9972C16.6713 17.102 16.6713 17.2069 16.6645 17.3118C16.6578 17.338 16.6578 17.3575 16.6645 17.3837C16.6578 17.4234 16.6578 17.4691 16.6578 17.508C16.6511 17.5477 16.6511 17.5934 16.6511 17.6324C16.6511 18.6361 16.782 19.5746 17.038 20.3948C17.0777 20.5132 17.1166 20.6308 17.1562 20.7424C17.3531 21.2869 17.6083 21.779 17.9234 22.1993C18.0019 22.3041 18.0873 22.409 18.1726 22.5079C18.4809 22.8622 18.8416 23.164 19.2413 23.4007C19.3655 23.4726 19.4972 23.5385 19.6282 23.5977C20.2052 23.8599 20.8608 23.9977 21.595 23.9977C23.1816 23.9977 24.6634 23.3018 25.9357 21.6547C26.119 21.4188 26.2964 21.1626 26.467 20.8869C26.5194 20.7948 26.5786 20.6967 26.6377 20.6045C26.8083 20.3162 26.9655 20.0008 27.1294 19.6727C27.1818 19.5611 27.2342 19.4495 27.2865 19.3312C27.4377 18.9836 27.5881 18.6158 27.7326 18.2286H27.7917V18.2353L27.1952 21.1551C27.0905 21.6802 27.0905 22.1528 27.202 22.5461C27.2476 22.7431 27.3262 22.9266 27.4317 23.0839C27.4976 23.1887 27.5762 23.2876 27.6675 23.379C27.7199 23.4314 27.7723 23.4771 27.8314 23.5236C28.1988 23.8119 28.6965 23.9632 29.3065 23.9632C29.5946 23.9632 29.8902 23.9235 30.1716 23.8516C30.1978 23.8449 30.2307 23.8382 30.2569 23.8322C30.2831 23.8254 30.3093 23.8127 30.3355 23.8059V23.8127C30.6177 23.7932 33.2924 22.5266 35.1155 21.5289L35.1223 21.5221C35.129 21.5416 35.1357 21.5618 35.1484 21.5813C35.1746 21.6532 35.2076 21.7259 35.2405 21.791C35.2862 21.8959 35.3453 22.0008 35.4044 22.1056C35.4703 22.224 35.5421 22.3416 35.6207 22.4472C35.6342 22.4607 35.6401 22.4667 35.6469 22.4801C35.7255 22.585 35.8108 22.6899 35.9028 22.782C35.9949 22.8801 36.0929 22.979 36.1977 23.0644C36.283 23.1363 36.3683 23.2022 36.4596 23.2681C36.4926 23.2943 36.5255 23.3206 36.5644 23.34C36.6625 23.406 36.7612 23.4644 36.866 23.5176C36.9903 23.5835 37.1152 23.6419 37.2462 23.6883C37.3645 23.734 37.482 23.7805 37.6069 23.8127C37.6331 23.8254 37.6661 23.8322 37.699 23.8389C37.8172 23.8719 37.9415 23.8981 38.0664 23.9176C38.2109 23.9438 38.3613 23.9632 38.5125 23.9767C38.6637 23.9895 38.8141 23.9962 38.9713 23.9962C39.9419 23.9962 40.8071 23.7535 41.5936 23.2352C42.4064 22.6906 43.1279 21.8502 43.7835 20.6757C43.9803 20.3281 44.1636 19.9476 44.3537 19.5342V19.5274C44.4129 19.3963 44.472 19.2585 44.5311 19.114C44.6097 18.9304 44.6823 18.7402 44.7541 18.5499C44.7998 18.4316 44.8394 18.314 44.8851 18.1956H44.951V18.2024L44.3215 21.0637C44.1771 21.7656 44.1906 22.3498 44.3672 22.803C44.5378 23.2884 44.8918 23.6299 45.4097 23.8007C45.4756 23.8202 45.5407 23.8404 45.6133 23.8599C45.8168 23.9056 46.0526 23.9318 46.3018 23.9318C46.3737 23.9318 46.5248 23.925 46.7344 23.9123H46.7606C48.1765 23.7677 49.6456 22.9543 49.6456 22.042C49.6456 21.9895 49.6456 21.9438 49.6322 21.9041H49.6254C49.6187 21.845 49.606 21.7858 49.5925 21.7333C49.5663 21.6614 49.5334 21.5955 49.4945 21.5296C49.475 21.5034 49.4488 21.4704 49.4286 21.4442C49.4024 21.418 49.3762 21.3918 49.35 21.3656C49.3171 21.3326 49.2782 21.2937 49.2318 21.2674C49.0873 21.1558 48.9167 21.0577 48.7595 20.9394C48.7139 20.9064 48.6675 20.8735 48.6286 20.8345C48.55 20.7753 48.4781 20.7102 48.419 20.6248C48.3734 20.5656 48.327 20.5004 48.2948 20.421C48.2753 20.3753 48.2491 20.3356 48.2357 20.2832C48.2222 20.2435 48.2095 20.2046 48.2027 20.1649C48.1698 20.0465 48.1571 19.9087 48.1571 19.7446C48.1571 19.6136 48.1638 19.469 48.19 19.2982L49.6389 10.2296L49.6397 10.2363ZM28.0484 12.7568L27.9242 13.6692C27.5507 16.156 26.5733 18.3941 25.3931 19.7918C25.2749 19.9424 25.1506 20.0742 25.0129 20.2053C24.8355 20.3828 24.6522 20.5401 24.4688 20.678C24.397 20.7304 24.3311 20.7761 24.2593 20.8293C24.1216 20.9214 23.9839 21 23.8394 21.0652C23.7676 21.0982 23.7017 21.1311 23.6299 21.1573C23.5378 21.1903 23.4465 21.2233 23.3477 21.2495C23.1644 21.2952 22.9743 21.3214 22.7902 21.3214H22.6921C22.6592 21.3146 22.6263 21.3146 22.5941 21.3146C22.5282 21.3079 22.4699 21.3012 22.404 21.2884C22.2858 21.2622 22.1683 21.236 22.0567 21.1903C21.9849 21.1573 21.9123 21.1244 21.8405 21.0854C21.7686 21.0397 21.696 20.9933 21.6309 20.9409C21.5651 20.8884 21.5067 20.836 21.4475 20.7701C21.3233 20.6517 21.2118 20.5079 21.113 20.3439C21.015 20.1866 20.9297 20.0023 20.8571 19.7993C20.6213 19.1889 20.4963 18.3821 20.4963 17.3844C20.4963 16.0197 20.6468 14.6871 20.9618 13.5126C21.1123 12.9224 21.3031 12.3711 21.5389 11.8655C21.6504 11.6161 21.7746 11.3801 21.9123 11.1569C22.0433 10.9404 22.1945 10.7307 22.3449 10.5397C22.4302 10.4213 22.5282 10.3097 22.6397 10.2049C22.7378 10.1 22.8433 10.0011 22.9541 9.90974C23.0588 9.81761 23.1704 9.73896 23.2886 9.66031H23.2953C23.5184 9.51574 23.7541 9.39815 24.0033 9.31275C24.3379 9.19441 24.6851 9.13523 25.0593 9.13523C25.8332 9.13523 26.5082 9.43709 27.0261 9.903C27.0979 9.96891 27.1705 10.0408 27.2357 10.1127C27.3734 10.2633 27.4916 10.4213 27.5964 10.5921C27.9504 11.1696 28.1337 11.8453 28.0813 12.5216C28.0679 12.6003 28.0619 12.6789 28.0484 12.7576V12.7568Z" fill="#111111"/>
</svg>
