<svg width="96" height="26" viewBox="0 0 96 26" fill="none" xmlns="http://www.w3.org/2000/svg">
<path d="M9.65786 17.8611L4.64363 15.9625C3.12696 15.3846 1.97402 14.6348 1.18475 13.713C0.395489 12.7912 0.00083277 11.7662 0.00083277 10.638C0.00083277 9.31719 0.573427 8.0514 1.71866 6.84068C1.99716 6.57257 2.3001 6.33666 2.60077 6.09772C3.34364 5.57489 4.27219 5.21032 5.38645 5.00395C6.5007 4.79757 9.85814 4.63042 13.1399 5.10713C14.1044 5.24725 14.7649 5.54739 15.1363 5.93264C15.5077 6.31789 15.642 7.18936 15.6934 8.61552C15.7128 9.15226 15.7559 9.96861 15.6934 10.3468C15.5981 10.9239 15.518 11.2457 15.2756 11.4222C15.1063 11.5455 14.9042 11.6286 14.6256 11.6286C14.4709 11.6286 14.2973 11.5931 14.1149 11.5048C13.6225 11.2664 13.372 10.5554 13.372 10.5554C13.0316 9.78499 12.3893 8.98013 11.4453 8.14083C10.5013 7.30158 9.39474 6.88194 8.12572 6.88194C7.70294 6.88318 7.02093 6.9198 6.46999 7.04472C4.89351 7.40212 4.41149 8.10644 4.41149 9.23461C4.41149 9.59232 4.49921 10.0028 4.76233 10.388C5.0254 10.7732 5.34005 11.037 5.61863 11.2571C5.89722 11.4772 6.39243 11.7249 7.10432 12L12.9078 14.3115C14.1093 14.8708 14.8811 15.5246 15.6935 16.4371C16.37 17.197 16.7149 18.2464 16.7149 19.5947C16.7149 20.8329 16.2815 21.9886 15.4149 23.0617C14.5483 24.1349 13.4108 24.8916 12.0024 25.3319C10.5941 25.7721 9.1934 25.9737 7.80069 25.9923C4.96958 26.0301 3.04993 25.3828 2.65243 25.247C1.76589 24.9441 1.20022 24.7403 0.813322 24.4651C0.426422 24.19 0.0597658 23.9793 0.0472781 23.3507C0.0331254 22.6398 0.0433346 21.8501 0.0472781 21.0806C0.0540259 20.2569 -0.0623945 19.6062 0.0472781 18.7279C0.109278 18.2313 0.919708 17.9658 1.30082 18.2326C1.59089 18.4356 1.81295 18.6914 2.02047 19.1613C2.62886 20.5388 3.30744 22.2959 5.80433 23.3301C6.47805 23.6092 8.87494 24.3223 11.3757 22.9999C12.2039 22.5619 12.6292 21.9061 12.6292 20.998C12.6292 20.3652 12.3506 19.7735 11.7935 19.2232C11.5961 19.0282 10.8522 18.2825 9.65781 17.8611L9.65786 17.8611Z" fill="white"/>
<path d="M36.7224 11.2283V20.4739C36.7224 20.8041 36.689 21.5451 37.001 22.3313C37.1383 22.6775 37.4389 22.9334 38.0224 22.8679C38.7158 22.79 39.3545 22.0891 39.7866 22.1662C40.1271 22.2763 40.4085 22.6555 40.2974 23.2806C40.2097 23.7734 39.3688 24.3538 39.3688 24.3538C38.8501 24.7027 37.5642 25.4059 36.9546 25.5714C36.4158 25.7177 35.9331 25.8397 35.4689 25.8397C34.7879 25.8397 34.2463 25.6974 33.8439 25.1792L32.5439 22.9917L31.3832 23.941C30.6403 24.5188 29.6502 24.9673 28.435 25.3443C26.9057 25.8189 24.7853 26.0028 22.5387 25.4888C21.2913 25.2034 20.519 24.6771 19.6834 23.8378C18.8477 22.9985 18.4298 21.9735 18.4298 20.7628C18.4298 19.1393 18.8786 17.9423 19.7762 17.1719C20.6738 16.4014 22.6238 15.5484 25.6261 14.6128L27.3439 14.1175L31.2903 13.0444C31.6927 12.9343 31.948 12.838 32.0564 12.7554C32.1647 12.6729 32.2189 12.494 32.2189 12.2189C32.2189 11.8887 32.1028 10.8705 31.8707 9.16452C31.6385 7.45847 30.4856 6.60547 28.4118 6.60547C27.2449 6.60547 26.2941 6.97705 25.6029 7.41033C25.0302 7.76932 24.5196 8.22893 24.1636 8.91685C23.8076 9.60477 23.6297 10.5541 23.6297 11.7648C23.6297 11.9574 23.5523 12.1294 23.3976 12.2808C23.2428 12.4321 22.9797 12.5078 22.6083 12.5078C22.2369 12.5078 21.85 12.4459 21.4476 12.3221C21.0452 12.1982 20.5345 11.985 19.9155 11.6823C19.2964 11.3796 18.9869 10.9393 18.9869 10.3615C18.9869 9.89369 19.1494 9.40529 19.4744 8.89621C19.7994 8.38716 20.3024 7.85743 20.9833 7.3071C21.6643 6.75676 22.4613 6.28897 23.3743 5.90376C24.2874 5.51851 25.3088 5.22959 26.4386 5.03696C27.5684 4.84434 28.5201 4.74805 29.2939 4.74805C31.9558 4.74805 33.7742 5.0989 34.7492 5.80057C35.7242 6.50224 36.3509 7.92623 36.6295 10.0726L36.7224 11.2283ZM23.3511 20.1437V20.8454C23.3511 22.6064 24.5892 23.4869 27.0653 23.4869C27.5606 23.4869 28.079 23.3838 28.6207 23.1774C29.1624 22.971 29.6963 22.6683 30.2225 22.2693C30.7486 21.8703 31.1588 21.3957 31.4528 20.8454C31.7468 20.295 31.9072 19.7707 31.9377 19.4489C32.1543 17.1651 32.2188 15.9473 32.2188 15.5621C32.2188 15.3695 32.1879 15.2457 32.126 15.1907L30.2689 15.686C27.7927 16.3739 26.0594 17.0412 25.0689 17.6878C24.0785 18.3344 23.5059 19.1531 23.3511 20.1437Z" fill="white"/>
<path d="M45.6651 1.56044L45.6213 4.37179C45.6213 4.7295 45.6522 4.94963 45.7141 5.03221C45.7761 5.11475 45.9618 5.15604 46.2713 5.15604L50.3569 4.90838C50.8212 4.85334 51.1768 4.88874 51.3551 5.07346C51.8162 5.55111 51.6696 6.20974 51.5176 6.64193C51.2081 7.41239 51.0488 7.93067 50.3105 7.96272C49.6602 7.99097 46.4106 7.96272 46.4106 7.96272H45.9384C45.6265 7.97667 45.6677 8.43052 45.6677 8.62314V19.0658C45.7115 20.5603 45.7942 21.0241 46.3873 21.7899C46.8861 22.4339 47.5868 22.8081 48.732 22.8218C49.6054 22.8323 51.5446 21.6642 52.4462 21.5836C52.7248 21.5836 52.9414 21.6799 53.0962 21.8725C53.4308 22.2625 53.2835 23.1518 52.8176 23.5648C52.3836 23.9494 51.5176 24.4522 50.2176 25.0713C48.9176 25.6904 47.6641 26 46.4569 26C43.4546 26 41.7368 24.2114 41.3034 20.6342L41.2106 19.1896V8.82956C41.2106 8.55439 41.1796 8.3893 41.1177 8.33426C41.0558 8.27922 40.8391 8.25172 40.4677 8.25172H38.8428C37.9451 8.25172 37.4964 7.9628 37.4964 7.38493C37.4964 7.13726 37.5428 6.88274 37.6357 6.62132C37.7285 6.3599 37.9142 6.11913 38.1928 5.899C38.4714 5.67888 39.0362 5.31427 39.8874 4.80523C40.7386 4.29618 41.3731 3.82839 41.7909 3.40189C42.2088 2.97539 42.7118 2.33561 43.2999 1.48261C43.2999 1.48261 43.9965 0.553646 44.195 0.354243C44.3068 0.242018 44.5519 0.0658307 44.6927 0.0379789C45.3298 -0.0881526 45.7402 0.0247353 45.6651 1.56052L45.6651 1.56044Z" fill="white"/>
<path d="M70.4448 11.3248C70.2444 11.7344 69.3844 12.4313 67.6355 13.4988C64.1178 15.646 58.9703 18.7418 58.9649 18.9185C58.9552 19.2365 59.4221 20.14 60.1288 20.8692C62.6641 23.1187 65.4822 23.1588 67.4807 22.3737C68.6561 21.9119 69.8099 20.8626 70.4599 20.3122C70.9796 19.8722 71.335 19.9075 71.5585 19.9501C71.9918 20.0326 72.2961 20.2527 72.2961 20.6105C72.2961 21.2362 72.0562 21.6101 71.5765 22.1996C70.9878 22.9228 70.0134 23.7749 68.3265 24.5729C66.6396 25.3709 64.7748 25.7699 62.7319 25.7699C59.0796 25.7699 57.1086 24.6646 54.9785 22.2202C53.1022 20.0671 52.7035 17.6249 52.7035 15.5336C52.7035 14.9558 52.7731 14.1853 52.9124 13.2222C53.0517 12.2591 53.4825 10.975 54.3802 9.44783C55.2778 7.92066 56.6035 6.76261 58.182 5.89585C59.7606 5.02906 61.6101 4.5957 63.9934 4.5957C65.6029 4.5957 68.4191 5.41735 70.4239 8.86073C70.8165 9.53505 70.8479 10.5011 70.4448 11.3248ZM57.689 16.4693C57.7953 16.4921 64.6438 12.7653 65.0696 12.3154C66.163 11.4285 66.3023 10.5314 66.0962 9.89697C65.7895 8.95246 64.5467 7.82877 62.9818 7.42073C58.1068 6.14964 56.5956 9.17157 56.4602 10.894C56.3015 12.9118 57.4763 16.4236 57.689 16.4693Z" fill="white"/>
<path d="M80.6833 15.0551L75.7619 9.52428L74.6477 8.4924L74.2299 8.16219L73.7656 7.79073L72.8835 7.21289L72.1354 6.84373L71.4906 6.55247C71.3049 6.46993 71.1733 6.39424 71.096 6.32545C71.0186 6.25666 70.9644 6.20851 70.9335 6.18097C70.8378 6.03334 70.783 5.81512 70.802 5.6787C70.7839 5.44713 70.9954 5.21788 71.3049 5.1078C71.6144 4.99772 81.3773 4.95877 81.844 5.02526C82.0904 5.06036 82.2711 5.14746 82.4656 5.32785C82.6923 5.5382 82.5923 6.02508 82.4011 6.21993C82.3264 6.30091 82.1891 6.42326 82.0787 6.50884L81.7511 6.71756L81.2868 6.96522C80.6369 7.21289 80.3118 7.52931 80.3118 7.91456C80.3118 8.07964 80.3738 8.25852 80.4975 8.45114L80.6368 8.65752L80.9618 9.07027L83.1439 11.9595C83.3606 12.2622 83.5927 12.4136 83.8403 12.4136C84.0879 12.4136 84.3201 12.2622 84.5368 11.9595L86.8117 9.11156C86.9665 8.94648 87.3224 8.43938 87.3224 7.87331C87.3224 7.48806 87.2682 7.21059 86.8091 6.96293C86.512 6.83469 86.2602 6.7361 86.0251 6.63735C85.8872 6.57947 85.2587 6.18966 85.2796 5.76826C85.2876 5.60668 85.3734 5.42936 85.4189 5.35784C85.5556 5.13772 85.6925 5.06916 85.9528 5.02534C86.3473 4.95888 93.5164 4.88324 93.6857 4.90384C93.8546 4.92441 94.1024 4.95861 94.2634 5.10788C94.4319 5.26408 94.5502 5.43361 94.5188 5.7683C94.5109 5.85185 94.4466 6.10821 94.2918 6.21537C93.6129 6.68554 92.8959 6.60849 91.2224 7.99718C88.8081 10.2811 87.2451 11.8014 86.5331 12.5581C85.8212 13.3148 85.4653 13.872 85.4653 14.2297C85.4653 14.3673 85.5427 14.5324 85.6974 14.725L91.4081 21.1639L92.2438 22.1133L92.708 22.526C93.2652 22.9663 93.7604 23.269 94.1937 23.4341L94.4645 23.5166L95.0759 23.723L95.5402 23.9294C95.6663 23.9911 95.7877 24.0587 95.8678 24.1793C95.9454 24.3039 95.9907 24.4454 96.0019 24.5508C96.0019 24.5508 96.0715 25.108 95.6537 25.3144C95.2358 25.5208 95.2427 25.5739 94.7196 25.624C94.312 25.6629 86.8065 25.6331 86.5279 25.6606C86.2494 25.6881 85.8601 25.6629 85.7982 25.6629C85.3648 25.6629 85.0939 25.5872 84.7225 25.4359C84.351 25.2846 84.1653 25.0162 84.1653 24.631L84.2118 24.466C84.2737 24.1633 84.5832 23.9431 85.1403 23.8055L85.5118 23.723C86.2236 23.4753 86.5796 23.0901 86.5796 22.5673C86.5796 22.072 86.2856 21.5079 85.6975 20.875L83.144 17.9032C82.8964 17.6005 82.7261 17.4491 82.6332 17.4491C82.5713 17.4491 82.4166 17.573 82.169 17.8206L79.8476 20.2558C79.1923 20.9484 78.7417 21.8352 78.7333 22.5143C78.7144 24.0306 79.8518 23.6477 80.4047 23.9293C80.9462 24.2227 80.9171 24.6639 80.9155 24.7478C80.9103 25.0035 80.8071 25.2776 80.5905 25.4152C80.3738 25.5528 80.1899 25.6362 79.5998 25.6605C79.3502 25.6708 71.3562 25.8735 70.838 25.2913C70.632 25.0599 70.7323 24.4521 70.9799 24.2595C71.4837 23.9284 72.3923 23.6543 72.6513 23.5578C74.1297 23.0071 75.0656 21.9068 75.0656 21.9068C77.7584 19.4853 79.4685 17.8962 80.1959 17.1395C80.9232 16.3828 81.256 15.8943 81.194 15.6742L80.6833 15.0551Z" fill="white"/>
</svg>
