<svg width="109" height="26" viewBox="0 0 109 26" fill="none" xmlns="http://www.w3.org/2000/svg">
<path d="M65.7416 7.91797C64.3089 7.91797 62.6045 8.97619 61.6153 11.16H61.4783V9.59051C61.4783 8.46412 61.2058 7.95205 60.0123 7.95205C58.7166 7.95205 55.6476 9.21478 55.6476 10.0344C55.6476 10.7169 56.1925 10.9214 57.2498 11.5025C57.5571 11.707 57.7955 12.0478 57.7615 12.6288V22.2194C57.7615 23.5844 55.8528 23.6185 55.8528 24.6085C55.8528 25.2569 56.3977 25.4955 57.4209 25.4955H62.0239C63.0813 25.4955 63.5921 25.2569 63.5921 24.6085C63.5921 23.6185 61.6826 23.5844 61.6826 22.2194V15.7686C61.6826 12.6629 62.774 12.0486 63.8994 12.0486C64.7856 12.0486 65.0929 12.2872 65.8421 12.2872C67.0697 12.2872 68.093 11.5706 68.093 10.0011C68.093 8.84067 67.3421 7.91878 65.74 7.91878L65.7416 7.91797Z" fill="white"/>
<path d="M83.5699 21.5549V14.4557C83.5358 10.0191 81.7625 7.66406 76.8871 7.66406C72.3513 7.66406 69.4194 10.1222 69.4194 12.0666C69.4194 13.1589 70.1694 13.7732 71.0556 13.7732C72.01 13.7732 72.5224 13.1589 72.9651 12.1015C73.784 10.3948 74.9768 9.23435 76.716 9.23435C78.7276 9.23435 79.4095 10.5312 79.4095 11.9651C79.4095 13.5687 78.7965 14.3883 75.863 15.4806C71.6686 17.1191 68.8048 18.4159 68.8048 21.4526C68.8048 23.8417 70.578 25.7529 73.613 25.7529C76.6479 25.7529 78.3522 24.6946 79.7168 22.4767H79.853V22.9888C79.853 24.5242 81.1147 25.7537 82.9909 25.7537C84.4918 25.7537 85.4802 25.1053 85.4802 24.3205C85.4802 22.9547 83.5707 23.7744 83.5707 21.5557L83.5699 21.5549ZM79.7168 17.9022C79.7168 21.3836 77.6022 23.0562 75.4203 23.0562C73.8181 23.0562 72.7948 22.1692 72.7948 20.7352C72.7948 19.3013 73.6811 18.3802 76.3414 17.3228L79.7176 15.9911V17.9022H79.7168Z" fill="white"/>
<path d="M103.613 22.2527V16.8261C103.613 11.638 102.897 7.95209 97.7479 7.95209C95.1225 7.95209 93.2811 9.31788 92.1217 11.16H92.0195V1.63846C91.9854 0.511258 91.7122 0 90.5527 0C89.4954 0 86.154 1.26273 86.154 2.08236C86.154 2.76485 86.6656 2.96935 87.7562 3.54959C88.0294 3.75409 88.2678 4.09574 88.2338 4.67598V22.2527C88.2338 23.6177 86.3243 23.6177 86.3243 24.6077C86.3243 25.2561 86.8359 25.4947 87.8924 25.4947H92.4954C93.5187 25.4947 94.0636 25.2561 94.0636 24.6077C94.0636 23.6177 92.1549 23.5836 92.1549 22.2186L92.1889 16.0405C92.1889 13.1061 93.5528 10.8533 96.2123 10.8533C98.5312 10.8533 99.6907 12.8667 99.6907 16.9624V22.2519C99.6907 23.6169 97.7812 23.651 97.7812 24.641C97.7812 25.2894 98.2928 25.528 99.3493 25.528H103.953C104.976 25.528 105.521 25.2894 105.521 24.641C105.521 23.651 103.612 23.6169 103.612 22.2519L103.613 22.2527Z" fill="white"/>
<path d="M102.811 0.712515C102.947 0.712515 102.935 0.592409 103.055 0.36843C103.115 0.260498 103.191 0.184215 103.334 0.184215H103.542C103.665 0.184215 103.677 0.216676 103.677 0.43254V2.36396C103.677 2.52383 103.437 2.52789 103.437 2.63176C103.437 2.69181 103.481 2.72346 103.597 2.72346H104.136C104.252 2.72346 104.296 2.69181 104.296 2.63176C104.296 2.52789 104.056 2.52383 104.056 2.36396V0.404137C104.056 0.211807 104.068 0.184215 104.187 0.184215H104.395C104.543 0.184215 104.619 0.260498 104.679 0.36843C104.799 0.592409 104.787 0.712515 104.923 0.712515C104.991 0.712515 105.039 0.65652 105.027 0.54453C105.01 0.408195 104.983 0.268613 104.951 0.132278C104.927 0.0478795 104.895 0 104.823 0H102.91C102.837 0 102.806 0.0478795 102.781 0.132278C102.75 0.267802 102.721 0.408195 102.706 0.54453C102.694 0.65652 102.742 0.712515 102.81 0.712515H102.811Z" fill="white"/>
<path d="M108.101 2.36396V0.360315C108.101 0.200445 108.341 0.196388 108.341 0.0925133C108.341 0.0324608 108.298 0 108.182 0H107.882C107.735 0 107.667 0.0397643 107.623 0.11199L106.796 1.81943L106.137 0.476362C106.013 0.220733 105.957 0.0081152 105.729 0H105.465C105.349 0 105.306 0.0324608 105.306 0.0925133C105.306 0.196388 105.545 0.200445 105.545 0.360315V2.36396C105.545 2.52383 105.306 2.52789 105.306 2.63176C105.306 2.69181 105.349 2.72346 105.465 2.72346H105.833C105.949 2.72346 105.992 2.69181 105.992 2.63176C105.992 2.52789 105.752 2.52383 105.752 2.36396V0.472305L106.476 1.95576C106.56 2.12375 106.596 2.14323 106.716 2.14323C106.836 2.14323 106.871 2.09535 106.979 1.87137L107.723 0.3522V2.36396C107.723 2.52383 107.483 2.52789 107.483 2.63176C107.483 2.69181 107.527 2.72346 107.642 2.72346H108.182C108.298 2.72346 108.341 2.69181 108.341 2.63176C108.341 2.52789 108.101 2.52383 108.101 2.36396Z" fill="white"/>
<path d="M53.7802 11.0881C53.9011 10.3772 53.8654 9.79449 53.6878 9.33193C53.6383 9.19721 53.567 9.06899 53.4956 8.95538C53.4956 8.95538 53.4883 8.95538 53.4883 8.94808C53.4454 8.89127 53.4032 8.83446 53.3602 8.78496C53.1186 8.51473 52.7918 8.3159 52.3945 8.20878C52.2526 8.16577 52.1035 8.13088 51.9397 8.11627C51.7767 8.08786 51.6056 8.08056 51.428 8.08056C50.9878 8.08056 50.554 8.13737 50.1494 8.25098C50.0148 8.28669 49.8794 8.32889 49.7513 8.3719C49.581 8.4287 49.4172 8.50012 49.268 8.57802C49.0904 8.65593 48.9275 8.75575 48.7783 8.86206C48.2666 9.2175 47.9472 9.66546 47.9472 10.1272C47.9472 10.2911 47.9756 10.4186 48.025 10.5322C48.2877 11.2009 49.2258 11.2074 49.4886 12.1528C49.5664 12.423 49.581 12.7711 49.5169 13.2337C48.9348 16.8523 46.5834 23.0304 43.4787 23.0304C43.2444 23.0304 43.0312 23.002 42.8398 22.9452C42.5844 22.8673 42.3639 22.7464 42.1717 22.5686C41.9795 22.3982 41.8238 22.1637 41.7168 21.8861C41.6884 21.8147 41.6601 21.7441 41.639 21.6654C41.4687 21.1038 41.4468 20.3719 41.6033 19.4824L42.9671 11.0864C43.0879 10.3755 43.0522 9.79287 42.8747 9.3303C42.8252 9.19559 42.7539 9.06737 42.6825 8.95376C42.6825 8.95376 42.6752 8.95376 42.6752 8.94645C42.6322 8.88965 42.5901 8.83284 42.5471 8.78334C42.3055 8.5058 41.9787 8.31428 41.5806 8.20716C41.4387 8.16415 41.2895 8.12925 41.1257 8.11464C40.9619 8.08624 40.7917 8.07894 40.6141 8.07894C40.1738 8.07894 39.74 8.13574 39.3354 8.24936C39.2008 8.28506 39.0654 8.32726 38.9373 8.37027C38.767 8.42708 38.6033 8.49849 38.4541 8.5764C38.2765 8.65431 38.1135 8.75412 37.9643 8.86043C37.8224 8.96674 37.6943 9.07386 37.5808 9.19478C37.5451 9.23049 37.5095 9.26619 37.4811 9.30109C37.3814 9.4147 37.3108 9.52831 37.2541 9.64193V9.64923C37.233 9.69224 37.2184 9.72714 37.2046 9.77015C37.1551 9.88376 37.1332 10.0047 37.1332 10.1256C37.1332 10.2822 37.1616 10.4169 37.2111 10.5305C37.4738 11.2057 38.4184 11.2625 38.6811 12.1658C38.7589 12.436 38.7808 12.7768 38.7022 13.2321L37.7503 19.0694C37.3238 20.5626 37.4876 21.2872 35.527 22.567C34.8662 23.0004 34.284 23.1148 33.8648 22.8088C33.8154 22.7731 33.7651 22.7236 33.7156 22.6741C33.701 22.6595 33.6872 22.6457 33.6799 22.6311C33.6443 22.5881 33.6086 22.5459 33.5802 22.5029V22.4956C33.5445 22.4461 33.5162 22.3958 33.5024 22.339C33.4456 22.2254 33.4099 22.0971 33.3962 21.9405C33.3751 21.7985 33.3751 21.6346 33.3889 21.4504C33.3889 21.3652 33.4035 21.2799 33.4172 21.1874L35.2213 9.54941C35.2708 9.27918 35.2854 9.00894 35.2351 8.76711C35.1921 8.56829 35.1005 8.39056 34.9513 8.24774C34.8735 8.17632 34.781 8.11302 34.6602 8.07732C34.6246 8.05622 34.5824 8.04161 34.5467 8.0343C34.4186 7.9986 34.2694 7.9775 34.0991 7.9775C33.8786 7.9775 33.6727 8.0059 33.4667 8.08381H33.4594C32.8343 8.28993 32.2521 8.85151 31.5418 9.95355C31.4778 9.86834 31.4137 9.78313 31.3432 9.70441C31.2791 9.62651 31.2086 9.54779 31.1372 9.47719C30.5331 8.85151 29.8018 8.41815 28.9918 8.16902C28.8288 8.11951 28.6577 8.0765 28.4874 8.0408C28.3026 8.00509 28.1177 7.96938 27.9264 7.94828C27.8907 7.94098 27.855 7.94098 27.8128 7.94098C27.6142 7.91258 27.4147 7.90527 27.2088 7.90527C26.818 7.90527 26.4344 7.93368 26.0582 7.99779C25.6747 8.05459 25.305 8.1398 24.9433 8.25342C24.5031 8.38813 24.0839 8.55936 23.672 8.77279C23.3947 8.9075 23.132 9.05682 22.8692 9.23454C22.4784 9.48368 22.1095 9.77502 21.7544 10.0948C21.6336 10.1946 21.52 10.3009 21.4065 10.4291C21.293 10.5354 21.1795 10.6563 21.0725 10.7699C20.959 10.8909 20.8519 11.0118 20.753 11.14C20.6533 11.2609 20.5544 11.3818 20.4619 11.51C20.4408 11.5247 20.4262 11.5385 20.4262 11.5531C20.2341 11.8087 20.0565 12.0724 19.8862 12.3492C19.8011 12.4839 19.716 12.6267 19.6308 12.776C19.5027 12.9968 19.3892 13.224 19.2903 13.4512C19.1768 13.6573 19.0843 13.8708 18.9992 14.0907C18.8995 14.3325 18.807 14.5808 18.7219 14.8373C18.7008 14.8941 18.6789 14.9509 18.6651 15.015C18.6222 15.1359 18.5873 15.2641 18.5589 15.3916C18.5159 15.5125 18.4811 15.6261 18.4527 15.747C17.0248 17.2402 15.3489 18.5054 14.7237 18.9533C14.8445 18.6693 14.9654 18.3844 15.0789 18.0931C15.0935 18.0501 15.1072 18.0079 15.1283 17.9649C15.2418 17.6662 15.3489 17.3603 15.4478 17.0552C15.554 16.7354 15.6537 16.4084 15.7462 16.0813C15.8029 15.8752 15.8597 15.6691 15.91 15.463C16.0097 15.0507 16.1021 14.6385 16.18 14.2262C16.2156 14.0274 16.2513 13.8213 16.2797 13.6151C16.351 13.1315 16.4005 12.6413 16.4362 12.1649C16.4435 12.0083 16.4508 11.8452 16.4573 11.6886C16.4573 11.6107 16.4646 11.532 16.4646 11.4541V11.2195C16.4646 10.843 16.4362 10.494 16.3867 10.1743C16.3794 10.1386 16.3721 10.1102 16.3656 10.0745C16.33 9.90405 16.2943 9.73282 16.2448 9.58431C16.1102 9.17206 15.9254 8.83771 15.6837 8.57478C15.627 8.51067 15.5702 8.45386 15.5062 8.40436C15.3213 8.24124 15.1016 8.12033 14.8599 8.0343C14.7391 7.99129 14.611 7.9564 14.4764 7.94179C14.3418 7.91339 14.1991 7.90608 14.0499 7.90608C13.7232 7.90608 13.411 7.96289 13.141 8.08381H13.1337C12.9707 8.14792 12.8215 8.23313 12.6861 8.33944C12.6221 8.38245 12.5653 8.43195 12.5086 8.48876C12.4518 8.53826 12.395 8.59507 12.3456 8.65268C12.2532 8.75899 12.1753 8.87342 12.1186 8.99352C11.984 9.23535 11.9053 9.50559 11.8769 9.79693V9.80423C11.8623 9.87564 11.8623 9.94625 11.8623 10.025C11.8623 10.0607 11.8623 10.0891 11.8696 10.1175C11.8696 10.1532 11.8696 10.1816 11.8769 10.21C11.8696 10.2246 11.8696 10.2384 11.8769 10.253C11.8842 10.3455 11.898 10.438 11.9126 10.5159C11.9199 10.6011 11.941 10.679 11.9694 10.7578C11.9831 10.8292 12.005 10.8925 12.0334 10.9566C12.0691 11.0418 12.1113 11.127 12.1615 11.2122C12.2467 11.3615 12.3464 11.5036 12.4453 11.6456C12.5021 11.717 12.5588 11.7876 12.6229 11.859C12.7291 11.9937 12.8434 12.1292 12.9569 12.2786C13.3551 12.7979 13.7102 13.4301 13.7102 14.5606C13.7102 15.691 13.4402 16.9278 12.9999 18.1012C12.9075 18.3357 12.815 18.563 12.7161 18.791C12.6667 18.9119 12.6099 19.0255 12.5596 19.1392C12.4956 19.2739 12.4315 19.4021 12.3675 19.5303C12.2329 19.7859 12.0902 20.0424 11.941 20.2769C11.7918 20.5187 11.6353 20.7533 11.4796 20.9667C11.3021 21.2085 11.1099 21.4431 10.9258 21.6492C10.8618 21.7206 10.7977 21.7839 10.7337 21.848C10.5707 22.0184 10.3996 22.1677 10.2293 22.3098C10.1369 22.3739 10.0518 22.438 9.95933 22.5021C9.90258 22.5378 9.85312 22.5735 9.79555 22.6084C9.70311 22.6652 9.60338 22.7147 9.51176 22.7577C9.22797 22.8859 8.93608 22.9565 8.65958 22.9565C8.40418 22.9565 8.18363 22.9208 7.99147 22.8429C7.84228 22.7788 7.70768 22.6936 7.59335 22.5727C7.47984 22.4664 7.38011 22.3236 7.30227 22.1531L7.29497 22.1458C7.24551 22.046 7.20254 21.9397 7.16686 21.8188C7.15227 21.7831 7.14578 21.7474 7.13848 21.7125C7.06064 21.4422 7.01037 21.1152 6.98929 20.7387L6.23604 11.9012C6.20766 11.6026 6.23604 11.368 6.30739 11.183C6.35685 11.041 6.4282 10.9201 6.52063 10.8276C6.56361 10.7708 6.60577 10.7277 6.65523 10.6928C6.80442 10.5646 6.9674 10.4721 7.13848 10.3869C7.30875 10.2944 7.47984 10.2165 7.62822 10.1167C7.86984 9.94625 8.04741 9.73282 8.04741 9.34166C8.04741 9.02193 7.9339 8.7874 7.72065 8.63808C7.62092 8.57397 7.50011 8.51716 7.36551 8.48876C7.33713 8.47496 7.30146 8.46766 7.27308 8.46766C7.11659 8.43195 6.94632 8.41815 6.74767 8.41815H1.53408C0.865958 8.41815 0.432979 8.55287 0.205949 8.80931C0.0640551 8.95863 0 9.15015 0 9.37818C0 9.59161 0.0567576 9.75473 0.156489 9.89025C0.184868 9.93326 0.220544 9.97546 0.262706 10.0112C0.383519 10.1321 0.525413 10.2319 0.681902 10.3382C0.844877 10.4445 1.01596 10.5589 1.17164 10.7083C1.2211 10.7513 1.27137 10.8008 1.32083 10.8576C1.37029 10.9071 1.42056 10.9712 1.47002 11.0353C1.55516 11.1635 1.633 11.3128 1.70435 11.4906C1.71813 11.5336 1.73273 11.5831 1.74732 11.6253C1.7757 11.7251 1.80408 11.8241 1.81868 11.9377C1.82597 11.9872 1.83327 12.0513 1.83976 12.1081L2.89788 21.4569C2.94734 21.8902 3.01139 22.296 3.10383 22.6652C3.13221 22.7861 3.16059 22.907 3.19626 23.0207C3.23924 23.1773 3.2887 23.3266 3.34545 23.4686C3.44518 23.7526 3.566 24.0091 3.70789 24.2436C3.70789 24.2436 3.70789 24.2509 3.71519 24.2509C3.84979 24.4854 4.00627 24.6916 4.18385 24.8766C4.27628 24.9764 4.36871 25.0689 4.46763 25.1468C4.63142 25.2815 4.80169 25.396 4.98656 25.495C5.59062 25.8366 6.34306 25.9997 7.25929 25.9997H7.27308C7.40119 25.9997 7.522 25.9924 7.6493 25.9786C7.77741 25.9713 7.90471 25.9502 8.03282 25.9291C8.11796 25.9145 8.20309 25.8934 8.28823 25.8723C8.63607 25.7944 8.97743 25.6662 9.31797 25.5023C9.45257 25.4455 9.58798 25.3741 9.72257 25.2889C10.2342 24.9975 10.7312 24.6202 11.2145 24.1795C12.7137 22.7861 14.1837 21.357 15.7397 20.0132L18.0911 17.9795C18.0911 18.0152 18.0911 18.0509 18.0838 18.0858C18.0765 18.1921 18.0765 18.2992 18.0692 18.4128C18.0619 18.5265 18.0619 18.6401 18.0546 18.7537C18.0473 18.7821 18.0473 18.8032 18.0546 18.8316C18.0473 18.8746 18.0473 18.9241 18.0473 18.9663C18.04 19.0093 18.04 19.0588 18.04 19.101C18.04 20.1884 18.1819 21.2053 18.4592 22.0939C18.5022 22.2221 18.5443 22.3495 18.5873 22.4704C18.8005 23.0604 19.077 23.5936 19.4184 24.0489C19.5035 24.1625 19.596 24.2761 19.6884 24.3832C20.0225 24.767 20.4133 25.0941 20.8462 25.3505C20.9808 25.4284 21.1235 25.4998 21.2654 25.564C21.8906 25.848 22.6009 25.9973 23.3963 25.9973C25.1152 25.9973 26.7207 25.2434 28.0991 23.4589C28.2977 23.2032 28.4899 22.9257 28.6747 22.6271C28.7315 22.5273 28.7956 22.4209 28.8596 22.3211C29.0445 22.0087 29.2147 21.667 29.3923 21.3116C29.4491 21.1907 29.5058 21.0698 29.5626 20.9415C29.7264 20.565 29.8894 20.1665 30.0458 19.747H30.1099V19.7543L29.4637 22.9176C29.3502 23.4865 29.3502 23.9985 29.471 24.4246C29.5204 24.638 29.6056 24.8368 29.7199 25.0073C29.7912 25.1209 29.8764 25.228 29.9753 25.327C30.0321 25.3838 30.0888 25.4333 30.1529 25.4836C30.551 25.7961 31.0902 25.96 31.751 25.96C32.0632 25.96 32.3834 25.917 32.6883 25.8391C32.7167 25.8318 32.7524 25.8245 32.7807 25.818C32.8091 25.8107 32.8375 25.7969 32.8659 25.7896V25.7969C33.1716 25.7758 36.0694 24.4035 38.0446 23.3225L38.0519 23.3152C38.0592 23.3363 38.0665 23.3582 38.0803 23.3793C38.1087 23.4573 38.1443 23.536 38.18 23.6066C38.2295 23.7202 38.2935 23.8338 38.3576 23.9474C38.4289 24.0756 38.5068 24.203 38.5919 24.3175C38.6065 24.3321 38.613 24.3386 38.6203 24.3532C38.7054 24.4668 38.7979 24.5804 38.8976 24.6802C38.9973 24.7865 39.1035 24.8936 39.2171 24.9862C39.3095 25.0641 39.4019 25.1355 39.5008 25.2069C39.5365 25.2353 39.5722 25.2637 39.6144 25.2848C39.7206 25.3562 39.8276 25.4195 39.9411 25.4771C40.0757 25.5485 40.2111 25.6118 40.353 25.6622C40.4811 25.7117 40.6084 25.762 40.7438 25.7969C40.7722 25.8107 40.8079 25.818 40.8436 25.8253C40.9717 25.861 41.1063 25.8894 41.2417 25.9105C41.3982 25.9389 41.5611 25.96 41.7249 25.9746C41.8887 25.9884 42.0517 25.9957 42.222 25.9957C43.2736 25.9957 44.2109 25.7328 45.0631 25.1712C45.9436 24.5812 46.7253 23.6707 47.4356 22.3982C47.6488 22.0217 47.8475 21.6094 48.0534 21.1615V21.1542C48.1175 21.0121 48.1815 20.8628 48.2456 20.7062C48.3307 20.5074 48.4093 20.3012 48.4872 20.0951C48.5366 19.9669 48.5796 19.8395 48.6291 19.7113H48.7004V19.7186L48.0185 22.8186C47.862 23.579 47.8766 24.212 48.068 24.7029C48.2529 25.2288 48.6364 25.5989 49.1975 25.7839C49.2688 25.805 49.3394 25.8269 49.418 25.848C49.6386 25.8975 49.894 25.9259 50.164 25.9259C50.2418 25.9259 50.4056 25.9186 50.6326 25.9048H50.661C52.1951 25.7482 53.7867 24.8669 53.7867 23.8784C53.7867 23.8216 53.7867 23.7721 53.7721 23.7291H53.7648C53.7575 23.665 53.7438 23.6009 53.7292 23.5441C53.7008 23.4662 53.6651 23.3948 53.6229 23.3234C53.6019 23.2949 53.5735 23.2592 53.5516 23.2308C53.5232 23.2024 53.4948 23.174 53.4665 23.1456C53.4308 23.1099 53.3886 23.0677 53.3383 23.0393C53.1818 22.9184 52.997 22.8121 52.8267 22.6839C52.7773 22.6482 52.727 22.6125 52.6848 22.5703C52.5997 22.5062 52.5218 22.4355 52.4578 22.343C52.4083 22.2789 52.3581 22.2083 52.3232 22.1223C52.3021 22.0728 52.2737 22.0298 52.2591 21.973C52.2445 21.93 52.2308 21.8878 52.2235 21.8448C52.1878 21.7165 52.174 21.5672 52.174 21.3895C52.174 21.2475 52.1813 21.0909 52.2097 20.9058L53.7794 11.0808L53.7802 11.0881ZM30.388 13.8188L30.2534 14.8073C29.8488 17.5015 28.7899 19.9263 27.5112 21.4406C27.3831 21.6037 27.2485 21.7466 27.0993 21.8886C26.9071 22.0809 26.7085 22.2513 26.5098 22.4007C26.432 22.4575 26.3607 22.507 26.2828 22.5646C26.1336 22.6644 25.9844 22.7496 25.8279 22.8202C25.7501 22.8559 25.6787 22.8916 25.6009 22.92C25.5012 22.9557 25.4023 22.9914 25.2952 23.0198C25.0966 23.0693 24.8906 23.0977 24.6912 23.0977H24.5849C24.5493 23.0904 24.5136 23.0904 24.4787 23.0904C24.4074 23.0831 24.3441 23.0758 24.2728 23.062C24.1447 23.0336 24.0174 23.0052 23.8966 22.9557C23.8187 22.92 23.7401 22.8843 23.6622 22.8421C23.5844 22.7926 23.5057 22.7423 23.4352 22.6855C23.3639 22.6287 23.3006 22.5719 23.2366 22.5005C23.102 22.3723 22.9811 22.2164 22.8741 22.0387C22.7679 21.8683 22.6755 21.6687 22.5968 21.4487C22.3414 20.7873 22.206 19.9133 22.206 18.8324C22.206 17.3538 22.369 15.9101 22.7103 14.6376C22.8733 13.9982 23.0801 13.4009 23.3355 12.8531C23.4563 12.5829 23.5909 12.3272 23.7401 12.0854C23.882 11.8509 24.0458 11.6237 24.2087 11.4167C24.3012 11.2885 24.4074 11.1676 24.5282 11.054C24.6344 10.9404 24.7487 10.8332 24.8687 10.7342C24.9823 10.6344 25.1031 10.5492 25.2312 10.464H25.2385C25.4801 10.3074 25.7355 10.18 26.0055 10.0875C26.368 9.95923 26.7442 9.89512 27.1496 9.89512C27.988 9.89512 28.7193 10.2222 29.2804 10.7269C29.3583 10.7983 29.4369 10.8762 29.5075 10.9542C29.6566 11.1173 29.7848 11.2885 29.8983 11.4735C30.2818 12.0992 30.4804 12.8312 30.4237 13.564C30.4091 13.6492 30.4026 13.7344 30.388 13.8196V13.8188Z" fill="white"/>
</svg>
