<svg width="29" height="22" viewBox="0 0 29 22" fill="none" xmlns="http://www.w3.org/2000/svg">
<path d="M17.166 0.427201C17.7585 -0.151803 18.7091 -0.140869 19.2881 0.451615L28.5713 9.95162C29.1409 10.5345 29.1409 11.4664 28.5713 12.0493L19.2881 21.5493C18.7091 22.1418 17.7585 22.1527 17.166 21.5737C16.5735 20.9947 16.5626 20.0441 17.1416 19.4516L25.4004 11.0004L17.1416 2.54927C16.5626 1.95678 16.5735 1.00621 17.166 0.427201Z" fill="white"/>
<path d="M27.2412 9.50146C28.0694 9.5017 28.7412 10.1732 28.7412 11.0015C28.7412 11.8297 28.0694 12.5012 27.2412 12.5015H1.5C0.671573 12.5015 0 11.8299 0 11.0015C0 10.173 0.671573 9.50146 1.5 9.50146H27.2412Z" fill="white"/>
</svg>
