<svg width="236" height="261" viewBox="0 0 236 261" fill="none" xmlns="http://www.w3.org/2000/svg">
<g clip-path="url(#clip0_2067_2888)">
<rect x="0.345947" y="-0.126465" width="236" height="261.623" rx="21.5771" fill="white"/>
<path d="M19.0048 153.034C18.1795 153.034 17.6697 152.888 17.6697 152.257C17.6697 151.432 18.932 151.407 18.932 150.388V139.173C18.932 138.154 17.6697 138.105 17.6697 137.304C17.6697 136.673 18.1795 136.527 18.9805 136.527H22.476C23.2771 136.527 23.8111 136.673 23.8111 137.304C23.8111 138.105 22.5488 138.154 22.5488 139.173V143.955H29.2V139.173C29.2 138.154 27.9377 138.105 27.9377 137.304C27.9377 136.673 28.4718 136.527 29.2728 136.527H32.7683C33.5694 136.527 34.0791 136.673 34.0791 137.304C34.0791 138.105 32.8169 138.154 32.8169 139.173V150.388C32.8169 151.407 34.0791 151.432 34.0791 152.257C34.0791 152.888 33.5694 153.034 32.744 153.034H29.2728C28.4718 153.034 27.9377 152.888 27.9377 152.257C27.9377 151.432 29.2 151.407 29.2 150.388V145.654H22.5488V150.388C22.5488 151.407 23.8111 151.432 23.8111 152.257C23.8111 152.888 23.2771 153.034 22.476 153.034H19.0048ZM38.8346 157.864C37.014 157.864 35.8246 157.015 35.8246 155.971C35.8246 155.048 36.4314 154.563 37.1597 154.563C38.0093 154.563 38.2763 155.728 39.5386 155.728C40.8736 155.728 41.8203 154.247 42.5971 152.281C42.4272 152.354 42.2573 152.403 41.9417 152.403C40.3639 152.403 39.49 151.674 38.8831 150.388C37.985 148.47 36.9412 145.679 36.0431 143.445C35.6789 142.596 34.6594 142.644 34.6594 141.649C34.6594 141.042 35.1206 140.897 36.0431 140.897H39.9512C40.9707 140.897 41.1892 141.164 41.1892 141.649C41.1892 142.571 39.8541 142.45 39.9755 143.3C40.2668 144.635 41.1649 147.159 41.8446 148.786C42.0874 149.344 42.3301 149.829 42.8884 149.829C43.4467 149.829 43.7866 149.32 44.2235 148.106C44.5876 147.038 44.9517 145.946 44.9517 145.242C44.976 143.834 44.1992 143.397 44.1992 142.159C44.1992 141.115 45.0003 140.508 46.214 140.508C47.452 140.508 48.0831 141.139 48.0831 142.207C48.0831 143.081 47.4034 144.125 47.015 145.387C46.6266 146.722 46.3111 147.669 45.8741 148.883C45.2916 150.558 44.4905 152.16 43.8108 153.543C42.5 156.117 41.1892 157.864 38.8346 157.864ZM54.8683 153.398C51.6884 153.398 49.2367 150.922 49.2367 147.086C49.2367 143.251 51.6156 140.532 55.3053 140.532C56.5918 140.532 57.5385 140.848 58.3396 141.382V138.712C58.3396 137.911 58.0968 137.571 57.6599 137.28C57.0287 136.891 56.8588 136.77 56.8588 136.382C56.8588 135.653 59.4319 134.901 60.5485 134.901C61.4224 134.901 61.8108 135.338 61.8351 136.139V149.951C61.8351 150.509 62.0293 150.8 62.4419 150.946C63.0002 151.165 63.3158 151.31 63.3158 151.771C63.3158 152.572 61.1554 153.398 59.7232 153.398C58.8979 153.398 58.7279 153.131 58.7279 151.771V151.456H58.6309C57.8783 152.597 56.5433 153.398 54.8683 153.398ZM56.0821 151.286C57.4171 151.286 58.3153 149.999 58.3153 148.227V146.722C58.3153 144.174 56.9074 142.159 55.2567 142.159C53.776 142.159 52.8778 143.348 52.8536 145.654C52.8293 148.324 54.1158 151.286 56.0821 151.286ZM65.8623 153.034C65.1098 153.034 64.6 152.888 64.6 152.305C64.6 151.553 65.8138 151.504 65.8138 150.533V144.246C65.838 143.64 65.6196 143.348 65.3768 143.178C64.7214 142.79 64.3573 142.669 64.3573 142.159C64.3573 141.455 66.8333 140.557 67.9499 140.557C68.7995 140.557 69.018 140.921 69.0422 141.77V142.887H69.1393C69.7947 141.285 71.057 140.532 72.1008 140.532C73.3873 140.532 73.9942 141.309 73.9942 142.377C73.9942 143.64 73.2417 144.271 72.1494 144.271C71.5182 144.271 71.2998 144.076 70.6443 144.076C69.9404 144.076 69.3335 144.465 69.3335 146.237V150.533C69.3335 151.504 70.5472 151.553 70.5472 152.305C70.5472 152.888 70.0375 153.034 69.285 153.034H65.8623ZM78.1426 153.398C75.8851 153.398 74.6957 151.893 74.6957 150.266C74.6957 147.766 77.3901 146.965 80.0118 145.776C81.6381 145.096 82.0751 144.538 82.0751 143.518C82.0751 142.62 81.6381 141.843 80.473 141.843C79.4049 141.843 78.7009 142.571 78.2397 143.591C77.8756 144.586 77.3901 145.072 76.5648 145.072C75.8123 145.072 75.1569 144.562 75.1569 143.64C75.1569 142.28 77.0503 140.532 80.5701 140.532C84.3326 140.532 85.7162 142.45 85.7405 145.897V150.339C85.7405 151.869 86.9785 151.31 86.9785 152.305C86.9785 152.912 86.2017 153.398 84.9637 153.398C83.4587 153.398 82.5606 152.475 82.5606 151.383V151.092H82.4392C81.541 152.597 80.2788 153.398 78.1426 153.398ZM79.7447 151.116C81.0556 151.116 82.3178 150.121 82.3178 147.985V146.577L80.473 147.305C78.8466 147.936 78.1184 148.591 78.1184 149.587C78.1184 150.533 78.798 151.116 79.7447 151.116ZM93.5746 153.398C89.6179 153.398 89.3752 150.388 89.3752 147.912V142.523H88.5013C88.0158 142.523 87.6517 142.28 87.6517 141.746C87.6517 141.066 88.0886 140.897 88.6227 140.897H88.8412C91.2929 140.897 90.5646 136.721 92.2396 136.721C92.8464 136.721 92.9435 137.085 92.9435 138.008V140.897H95.468C96.0021 140.897 96.3905 141.066 96.3905 141.673C96.3905 142.28 96.0992 142.523 95.4195 142.523H92.9678V149.295C92.9678 150.776 92.9435 151.82 94.0116 151.82C94.8126 151.82 95.1282 151.189 95.1282 149.878C95.1282 148.956 95.4438 148.324 96.3419 148.324C97.0944 148.324 97.5313 148.81 97.5313 149.878C97.5313 151.286 96.6817 153.398 93.5746 153.398ZM101.339 139.197C100.101 139.197 99.1298 138.421 99.1298 137.183C99.1298 135.945 100.101 135.168 101.339 135.168C102.601 135.168 103.548 135.945 103.548 137.183C103.548 138.421 102.601 139.197 101.339 139.197ZM99.761 153.034C99.0085 153.034 98.4987 152.888 98.4987 152.305C98.4987 151.553 99.7124 151.504 99.7124 150.533V144.319C99.7124 143.591 99.494 143.275 99.1298 143.008C98.5715 142.596 98.256 142.523 98.256 142.037C98.256 141.261 100.732 140.557 101.824 140.557C102.868 140.557 103.208 141.042 103.232 141.795V150.533C103.232 151.504 104.446 151.553 104.446 152.305C104.446 152.888 103.936 153.034 103.184 153.034H99.761ZM112.448 153.398C108.637 153.398 105.845 150.97 105.821 147.184C105.845 143.227 108.904 140.557 112.666 140.557C116.332 140.557 119.245 142.838 119.245 146.771C119.245 150.703 116.332 153.398 112.448 153.398ZM113.103 151.771C114.632 151.771 115.482 150.485 115.482 148.422C115.482 145.8 114.293 142.159 111.962 142.159C110.384 142.159 109.583 143.445 109.583 145.46C109.583 148.13 110.773 151.771 113.103 151.771ZM122.068 153.034C121.315 153.034 120.805 152.888 120.805 152.305C120.805 151.553 122.019 151.504 122.019 150.533V144.222C122.043 143.615 121.825 143.324 121.582 143.154C120.951 142.766 120.563 142.644 120.563 142.135C120.563 141.431 123.063 140.532 124.18 140.532C125.005 140.532 125.248 140.921 125.248 141.746V142.814H125.369C126.097 141.455 127.408 140.532 129.253 140.532C132.093 140.532 133.452 142.28 133.452 145.436V150.533C133.452 151.504 134.666 151.553 134.666 152.305C134.666 152.888 134.156 153.034 133.404 153.034H130.005C129.229 153.034 128.719 152.888 128.719 152.305C128.719 151.553 129.933 151.504 129.933 150.533V145.994C129.933 144.101 129.326 143.13 127.894 143.13C126.316 143.13 125.539 144.538 125.539 146.334V150.533C125.539 151.504 126.753 151.553 126.753 152.305C126.753 152.888 126.243 153.034 125.49 153.034H122.068Z" fill="#090D38"/>
<path opacity="0.5" d="M18.0392 186.125V172.815H23.0802C23.9864 172.815 24.7668 172.959 25.4213 173.249C26.0884 173.538 26.5981 173.954 26.9506 174.495C27.3156 175.024 27.4981 175.659 27.4981 176.402C27.4981 177.144 27.3156 177.786 26.9506 178.328C26.5981 178.856 26.0947 179.265 25.4402 179.555C24.7857 179.844 24.0179 179.989 23.1368 179.989H20.909V179.366H18.9832V178.63H22.8914C23.8102 178.63 24.5213 178.453 25.0248 178.101C25.5409 177.736 25.7989 177.176 25.7989 176.421C25.7989 175.653 25.5409 175.099 25.0248 174.759C24.5213 174.407 23.8102 174.231 22.8914 174.231H19.021L19.7195 173.513V186.125H18.0392ZM25.7989 186.125L18.9832 179.102H21.0789L28.0645 186.125H25.7989ZM33.7847 186.352C32.8281 186.352 32.0037 186.138 31.3114 185.71C30.6191 185.282 30.0842 184.678 29.7066 183.897C29.3416 183.117 29.1591 182.211 29.1591 181.178C29.1591 180.172 29.3542 179.29 29.7444 178.535C30.1471 177.767 30.6884 177.17 31.368 176.742C32.0603 176.314 32.847 176.1 33.728 176.1C34.5965 176.1 35.3517 176.282 35.9936 176.647C36.6482 177.012 37.1516 177.535 37.504 178.214C37.8565 178.881 38.0327 179.681 38.0327 180.612C38.0327 180.801 38.0327 180.983 38.0327 181.16C38.0327 181.323 38.0264 181.462 38.0138 181.575H30.1031V180.348H37.032L36.4468 180.631C36.4594 179.951 36.3524 179.372 36.1258 178.894C35.9118 178.403 35.5909 178.038 35.1629 177.799C34.7476 177.547 34.2504 177.421 33.6714 177.421C33.1428 177.421 32.6582 177.547 32.2176 177.799C31.7897 178.038 31.4436 178.416 31.1792 178.932C30.9275 179.448 30.8016 180.121 30.8016 180.952V181.235C30.8016 182.431 31.0597 183.356 31.5757 184.01C32.0918 184.665 32.8596 184.992 33.8791 184.992C34.4958 184.992 35.0182 184.86 35.4461 184.596C35.8867 184.331 36.2391 183.922 36.5034 183.369L37.825 183.973C37.5984 184.501 37.2964 184.942 36.9188 185.294C36.5412 185.647 36.088 185.911 35.5594 186.087C35.0434 186.263 34.4518 186.352 33.7847 186.352ZM43.4085 186.352C42.3764 186.352 41.5142 186.125 40.8219 185.672C40.1422 185.206 39.6828 184.514 39.4437 183.595L40.9163 183.142C41.1051 183.822 41.4135 184.313 41.8414 184.615C42.2694 184.904 42.8043 185.049 43.4462 185.049C44.0756 185.049 44.5601 184.917 44.9 184.652C45.2524 184.388 45.4286 183.998 45.4286 183.482C45.4286 183.066 45.3091 182.739 45.0699 182.5C44.8433 182.261 44.472 182.066 43.956 181.915L42.2568 181.443C41.5268 181.241 40.9667 180.927 40.5765 180.499C40.1863 180.071 39.9912 179.53 39.9912 178.875C39.9912 178.309 40.1359 177.818 40.4254 177.402C40.7275 176.987 41.1366 176.666 41.6526 176.44C42.1813 176.213 42.7854 176.1 43.4651 176.1C44.0819 176.1 44.6294 176.188 45.1077 176.364C45.5985 176.528 46.0076 176.779 46.3349 177.119C46.6747 177.446 46.9139 177.862 47.0523 178.365L45.5985 178.837C45.4097 178.346 45.1328 177.988 44.7678 177.761C44.4154 177.522 43.9749 177.402 43.4462 177.402C42.8421 177.402 42.3827 177.528 42.068 177.78C41.7533 178.019 41.596 178.353 41.596 178.781C41.596 179.108 41.6967 179.391 41.8981 179.63C42.112 179.857 42.4645 180.039 42.9553 180.178L44.6545 180.65C45.1454 180.776 45.5671 180.952 45.9195 181.178C46.2719 181.405 46.5425 181.701 46.7313 182.066C46.9327 182.431 47.0334 182.884 47.0334 183.425C47.0334 184.029 46.8824 184.552 46.5803 184.992C46.2782 185.42 45.8566 185.754 45.3153 185.993C44.7741 186.232 44.1385 186.352 43.4085 186.352ZM52.7849 186.314C51.9416 186.314 51.2997 186.094 50.8591 185.653C50.4312 185.212 50.2172 184.526 50.2172 183.595V174.117L51.822 173.098V183.387C51.822 183.903 51.9353 184.287 52.1619 184.539C52.3884 184.778 52.7157 184.898 53.1436 184.898C53.2821 184.898 53.4268 184.885 53.5779 184.86C53.7415 184.835 53.9177 184.785 54.1065 184.709V186.087C53.8925 186.163 53.6785 186.219 53.4646 186.257C53.2506 186.295 53.024 186.314 52.7849 186.314ZM48.2726 177.61V176.326H54.1631V177.61H48.2726ZM60.2258 186.352C59.3448 186.352 58.5455 186.15 57.8281 185.747C57.1232 185.332 56.5631 184.74 56.1477 183.973C55.7324 183.205 55.5247 182.292 55.5247 181.235C55.5247 180.178 55.7324 179.265 56.1477 178.497C56.5631 177.73 57.1232 177.138 57.8281 176.723C58.5455 176.307 59.3448 176.1 60.2258 176.1C61.1195 176.1 61.9187 176.307 62.6236 176.723C63.341 177.138 63.9011 177.73 64.3039 178.497C64.7193 179.265 64.9269 180.178 64.9269 181.235C64.9269 182.292 64.7193 183.205 64.3039 183.973C63.9011 184.74 63.341 185.332 62.6236 185.747C61.9187 186.15 61.1195 186.352 60.2258 186.352ZM60.2258 184.954C60.7796 184.954 61.2831 184.822 61.7362 184.558C62.2019 184.294 62.5732 183.885 62.8501 183.331C63.1271 182.777 63.2655 182.078 63.2655 181.235C63.2655 180.379 63.1271 179.674 62.8501 179.121C62.5732 178.567 62.2019 178.158 61.7362 177.893C61.2831 177.629 60.7796 177.497 60.2258 177.497C59.672 177.497 59.1623 177.629 58.6965 177.893C58.2434 178.158 57.8784 178.567 57.6015 179.121C57.3246 179.674 57.1861 180.379 57.1861 181.235C57.1861 182.078 57.3246 182.777 57.6015 183.331C57.8784 183.885 58.2434 184.294 58.6965 184.558C59.1623 184.822 59.672 184.954 60.2258 184.954ZM67.0412 186.125V176.326H68.5327V177.893H68.5516C68.7404 177.352 69.0551 176.918 69.4956 176.591C69.9361 176.263 70.4522 176.1 71.0438 176.1C71.1696 176.1 71.2892 176.112 71.4025 176.137C71.5284 176.15 71.6353 176.169 71.7235 176.194V177.667C71.6102 177.629 71.4969 177.61 71.3836 177.61C71.2829 177.598 71.1633 177.591 71.0249 177.591C70.5844 177.591 70.1816 177.698 69.8166 177.912C69.4641 178.114 69.1809 178.416 68.967 178.818C68.753 179.209 68.646 179.687 68.646 180.253V186.125H67.0412ZM77.0575 186.352C76.1009 186.352 75.2765 186.138 74.5842 185.71C73.8919 185.282 73.357 184.678 72.9794 183.897C72.6144 183.117 72.4319 182.211 72.4319 181.178C72.4319 180.172 72.627 179.29 73.0172 178.535C73.4199 177.767 73.9612 177.17 74.6409 176.742C75.3331 176.314 76.1198 176.1 77.0009 176.1C77.8693 176.1 78.6245 176.282 79.2665 176.647C79.921 177.012 80.4244 177.535 80.7769 178.214C81.1293 178.881 81.3055 179.681 81.3055 180.612C81.3055 180.801 81.3055 180.983 81.3055 181.16C81.3055 181.323 81.2992 181.462 81.2866 181.575H73.3759V180.348H80.3049L79.7196 180.631C79.7322 179.951 79.6252 179.372 79.3986 178.894C79.1846 178.403 78.8637 178.038 78.4357 177.799C78.0204 177.547 77.5232 177.421 76.9442 177.421C76.4156 177.421 75.931 177.547 75.4905 177.799C75.0625 178.038 74.7164 178.416 74.4521 178.932C74.2003 179.448 74.0745 180.121 74.0745 180.952V181.235C74.0745 182.431 74.3325 183.356 74.8485 184.01C75.3646 184.665 76.1324 184.992 77.1519 184.992C77.7686 184.992 78.291 184.86 78.7189 184.596C79.1595 184.331 79.5119 183.922 79.7762 183.369L81.0978 183.973C80.8713 184.501 80.5692 184.942 80.1916 185.294C79.814 185.647 79.3609 185.911 78.8322 186.087C78.3162 186.263 77.7246 186.352 77.0575 186.352ZM89.551 186.125L87.2666 176.326H88.9469L90.7594 185.181H90.7782L92.7418 176.326H95.1584L97.103 185.181H97.1408L98.9533 176.326H100.615L98.3491 186.125H95.9136L93.969 177.289H93.9312L91.9677 186.125H89.551ZM102.478 186.125V172.569H104.083V177.856H104.121C104.372 177.302 104.744 176.874 105.235 176.572C105.738 176.257 106.336 176.1 107.028 176.1C107.746 176.1 108.356 176.238 108.86 176.515C109.376 176.779 109.772 177.188 110.049 177.742C110.326 178.284 110.464 178.963 110.464 179.781V186.125H108.86V179.951C108.86 179.121 108.652 178.51 108.236 178.12C107.834 177.717 107.305 177.516 106.651 177.516C105.883 177.516 105.26 177.761 104.781 178.252C104.316 178.743 104.083 179.429 104.083 180.31V186.125H102.478ZM115.764 186.352C114.795 186.352 114.008 186.1 113.404 185.596C112.812 185.08 112.516 184.401 112.516 183.557C112.516 182.739 112.8 182.072 113.366 181.556C113.945 181.04 114.725 180.7 115.707 180.537L119.596 179.857V181.046L116.311 181.632C115.619 181.757 115.09 181.971 114.725 182.273C114.36 182.563 114.178 182.972 114.178 183.501C114.178 183.992 114.348 184.375 114.688 184.652C115.027 184.929 115.499 185.068 116.104 185.068C116.632 185.068 117.092 184.954 117.482 184.728C117.885 184.489 118.193 184.161 118.407 183.746C118.633 183.331 118.747 182.852 118.747 182.311V179.574C118.747 178.919 118.564 178.403 118.199 178.025C117.847 177.635 117.324 177.44 116.632 177.44C116.003 177.44 115.493 177.591 115.103 177.893C114.725 178.183 114.461 178.604 114.31 179.158L112.781 178.781C112.982 177.975 113.423 177.327 114.102 176.836C114.795 176.345 115.65 176.1 116.67 176.1C117.891 176.1 118.81 176.414 119.426 177.044C120.043 177.66 120.352 178.516 120.352 179.611V184.124L121.088 186.125H119.389L118.879 184.709H118.822C118.533 185.212 118.124 185.615 117.595 185.917C117.066 186.207 116.456 186.352 115.764 186.352ZM126.443 186.314C125.599 186.314 124.957 186.094 124.517 185.653C124.089 185.212 123.875 184.526 123.875 183.595V174.117L125.48 173.098V183.387C125.48 183.903 125.593 184.287 125.82 184.539C126.046 184.778 126.373 184.898 126.801 184.898C126.94 184.898 127.085 184.885 127.236 184.86C127.399 184.835 127.576 184.785 127.764 184.709V186.087C127.55 186.163 127.336 186.219 127.122 186.257C126.908 186.295 126.682 186.314 126.443 186.314ZM121.93 177.61V176.326H127.821V177.61H121.93ZM136.206 189.901L137.716 185.785L137.962 185.275L140.945 176.326H142.625L137.848 189.901H136.206ZM136.98 186.106L133.449 176.326H135.111L138.169 185.162H138.641L138.623 186.106H136.98ZM148.246 186.352C147.365 186.352 146.566 186.15 145.849 185.747C145.144 185.332 144.584 184.74 144.168 183.973C143.753 183.205 143.545 182.292 143.545 181.235C143.545 180.178 143.753 179.265 144.168 178.497C144.584 177.73 145.144 177.138 145.849 176.723C146.566 176.307 147.365 176.1 148.246 176.1C149.14 176.1 149.939 176.307 150.644 176.723C151.362 177.138 151.922 177.73 152.325 178.497C152.74 179.265 152.948 180.178 152.948 181.235C152.948 182.292 152.74 183.205 152.325 183.973C151.922 184.74 151.362 185.332 150.644 185.747C149.939 186.15 149.14 186.352 148.246 186.352ZM148.246 184.954C148.8 184.954 149.304 184.822 149.757 184.558C150.223 184.294 150.594 183.885 150.871 183.331C151.148 182.777 151.286 182.078 151.286 181.235C151.286 180.379 151.148 179.674 150.871 179.121C150.594 178.567 150.223 178.158 149.757 177.893C149.304 177.629 148.8 177.497 148.246 177.497C147.693 177.497 147.183 177.629 146.717 177.893C146.264 178.158 145.899 178.567 145.622 179.121C145.345 179.674 145.207 180.379 145.207 181.235C145.207 182.078 145.345 182.777 145.622 183.331C145.899 183.885 146.264 184.294 146.717 184.558C147.183 184.822 147.693 184.954 148.246 184.954ZM158.894 186.352C158.076 186.352 157.371 186.207 156.78 185.917C156.188 185.615 155.735 185.168 155.421 184.577C155.118 183.973 154.967 183.217 154.967 182.311V176.326H156.572V182.292C156.572 183.211 156.786 183.885 157.214 184.313C157.642 184.74 158.202 184.954 158.894 184.954C159.587 184.954 160.147 184.74 160.575 184.313C161.003 183.885 161.217 183.211 161.217 182.292V176.326H162.822V182.311C162.822 183.217 162.664 183.973 162.35 184.577C162.047 185.168 161.601 185.615 161.009 185.917C160.43 186.207 159.725 186.352 158.894 186.352ZM165.332 186.125V176.326H166.823V177.893H166.842C167.031 177.352 167.345 176.918 167.786 176.591C168.226 176.263 168.743 176.1 169.334 176.1C169.46 176.1 169.58 176.112 169.693 176.137C169.819 176.15 169.926 176.169 170.014 176.194V177.667C169.9 177.629 169.787 177.61 169.674 177.61C169.573 177.598 169.454 177.591 169.315 177.591C168.875 177.591 168.472 177.698 168.107 177.912C167.754 178.114 167.471 178.416 167.257 178.818C167.043 179.209 166.936 179.687 166.936 180.253V186.125H165.332ZM180.943 184.954C181.522 184.954 182.032 184.816 182.472 184.539C182.913 184.25 183.259 183.828 183.511 183.274C183.775 182.708 183.907 182.022 183.907 181.216C183.907 180.398 183.775 179.718 183.511 179.177C183.259 178.623 182.913 178.208 182.472 177.931C182.032 177.642 181.522 177.497 180.943 177.497C180.377 177.497 179.867 177.642 179.414 177.931C178.961 178.221 178.596 178.642 178.319 179.196C178.055 179.75 177.922 180.423 177.922 181.216C177.922 182.022 178.055 182.708 178.319 183.274C178.583 183.828 178.942 184.25 179.395 184.539C179.848 184.816 180.364 184.954 180.943 184.954ZM176.431 186.125V172.569H178.036V178.082H178.073C178.275 177.642 178.539 177.277 178.866 176.987C179.206 176.698 179.584 176.477 179.999 176.326C180.415 176.175 180.843 176.1 181.283 176.1C182.126 176.1 182.869 176.307 183.511 176.723C184.153 177.126 184.656 177.711 185.021 178.479C185.399 179.234 185.588 180.146 185.588 181.216C185.588 182.286 185.399 183.205 185.021 183.973C184.656 184.74 184.147 185.332 183.492 185.747C182.85 186.15 182.107 186.352 181.264 186.352C180.811 186.352 180.364 186.276 179.924 186.125C179.496 185.974 179.112 185.747 178.772 185.445C178.432 185.143 178.162 184.778 177.96 184.35H177.922V186.125H176.431ZM192.036 186.352C191.154 186.352 190.355 186.15 189.638 185.747C188.933 185.332 188.373 184.74 187.957 183.973C187.542 183.205 187.334 182.292 187.334 181.235C187.334 180.178 187.542 179.265 187.957 178.497C188.373 177.73 188.933 177.138 189.638 176.723C190.355 176.307 191.154 176.1 192.036 176.1C192.929 176.1 193.728 176.307 194.433 176.723C195.151 177.138 195.711 177.73 196.114 178.497C196.529 179.265 196.737 180.178 196.737 181.235C196.737 182.292 196.529 183.205 196.114 183.973C195.711 184.74 195.151 185.332 194.433 185.747C193.728 186.15 192.929 186.352 192.036 186.352ZM192.036 184.954C192.589 184.954 193.093 184.822 193.546 184.558C194.012 184.294 194.383 183.885 194.66 183.331C194.937 182.777 195.075 182.078 195.075 181.235C195.075 180.379 194.937 179.674 194.66 179.121C194.383 178.567 194.012 178.158 193.546 177.893C193.093 177.629 192.589 177.497 192.036 177.497C191.482 177.497 190.972 177.629 190.506 177.893C190.053 178.158 189.688 178.567 189.411 179.121C189.134 179.674 188.996 180.379 188.996 181.235C188.996 182.078 189.134 182.777 189.411 183.331C189.688 183.885 190.053 184.294 190.506 184.558C190.972 184.822 191.482 184.954 192.036 184.954ZM202.794 186.352C201.963 186.352 201.22 186.15 200.566 185.747C199.911 185.332 199.402 184.74 199.037 183.973C198.672 183.205 198.489 182.286 198.489 181.216C198.489 180.146 198.672 179.234 199.037 178.479C199.402 177.711 199.911 177.126 200.566 176.723C201.22 176.307 201.963 176.1 202.794 176.1C203.234 176.1 203.656 176.175 204.059 176.326C204.474 176.477 204.845 176.698 205.173 176.987C205.512 177.277 205.783 177.642 205.984 178.082H206.022V172.569H207.627V186.125H206.135V184.35H206.098C205.909 184.778 205.638 185.143 205.286 185.445C204.946 185.747 204.562 185.974 204.134 186.125C203.706 186.276 203.259 186.352 202.794 186.352ZM203.115 184.954C203.706 184.954 204.229 184.816 204.682 184.539C205.135 184.25 205.487 183.828 205.739 183.274C206.003 182.708 206.135 182.022 206.135 181.216C206.135 180.423 205.997 179.75 205.72 179.196C205.456 178.642 205.097 178.221 204.644 177.931C204.203 177.642 203.694 177.497 203.115 177.497C202.548 177.497 202.039 177.642 201.585 177.931C201.145 178.208 200.792 178.623 200.528 179.177C200.276 179.718 200.151 180.398 200.151 181.216C200.151 182.022 200.276 182.708 200.528 183.274C200.792 183.828 201.145 184.25 201.585 184.539C202.039 184.816 202.548 184.954 203.115 184.954ZM212.039 189.901L213.55 185.785L213.795 185.275L216.778 176.326H218.459L213.682 189.901H212.039ZM212.813 186.106L209.283 176.326H210.944L214.003 185.162H214.475L214.456 186.106H212.813ZM24.213 211.125L24.213 204.951C24.213 204.121 24.0053 203.51 23.5899 203.12C23.1872 202.717 22.6648 202.516 22.0229 202.516C21.2425 202.516 20.6132 202.767 20.1349 203.271C19.6692 203.774 19.4363 204.454 19.4363 205.31V211.125H17.8315V201.326H19.323V202.95H19.3419C19.6062 202.371 19.9964 201.918 20.5125 201.591C21.0285 201.263 21.6579 201.1 22.4005 201.1C23.1053 201.1 23.7095 201.238 24.213 201.515C24.729 201.779 25.1255 202.188 25.4024 202.742C25.6793 203.284 25.8178 203.963 25.8178 204.781V211.125H24.213ZM32.4572 211.352C31.5006 211.352 30.6762 211.138 29.9839 210.71C29.2916 210.282 28.7567 209.678 28.3791 208.897C28.0141 208.117 27.8316 207.211 27.8316 206.178C27.8316 205.172 28.0267 204.29 28.4169 203.535C28.8196 202.767 29.3609 202.17 30.0405 201.742C30.7328 201.314 31.5195 201.1 32.4005 201.1C33.269 201.1 34.0242 201.282 34.6661 201.647C35.3207 202.012 35.8241 202.535 36.1765 203.214C36.529 203.881 36.7052 204.681 36.7052 205.612C36.7052 205.801 36.7052 205.983 36.7052 206.16C36.7052 206.323 36.6989 206.462 36.6863 206.575H28.7756V205.348H35.7045L35.1193 205.631C35.1319 204.951 35.0249 204.372 34.7983 203.894C34.5843 203.403 34.2634 203.038 33.8354 202.799C33.4201 202.547 32.9229 202.421 32.3439 202.421C31.8153 202.421 31.3307 202.547 30.8901 202.799C30.4622 203.038 30.1161 203.416 29.8517 203.932C29.6 204.448 29.4741 205.121 29.4741 205.952V206.235C29.4741 207.431 29.7322 208.356 30.2482 209.01C30.7643 209.665 31.5321 209.992 32.5516 209.992C33.1683 209.992 33.6907 209.86 34.1186 209.596C34.5592 209.331 34.9116 208.922 35.1759 208.369L36.4975 208.973C36.2709 209.501 35.9689 209.942 35.5913 210.294C35.2137 210.647 34.7605 210.911 34.2319 211.087C33.7159 211.263 33.1243 211.352 32.4572 211.352ZM42.8928 211.352C41.9362 211.352 41.1118 211.138 40.4195 210.71C39.7273 210.282 39.1923 209.678 38.8147 208.897C38.4497 208.117 38.2672 207.211 38.2672 206.178C38.2672 205.172 38.4623 204.29 38.8525 203.535C39.2553 202.767 39.7965 202.17 40.4762 201.742C41.1684 201.314 41.9551 201.1 42.8362 201.1C43.7046 201.1 44.4598 201.282 45.1018 201.647C45.7563 202.012 46.2597 202.535 46.6122 203.214C46.9646 203.881 47.1408 204.681 47.1408 205.612C47.1408 205.801 47.1408 205.983 47.1408 206.16C47.1408 206.323 47.1345 206.462 47.1219 206.575H39.2112V205.348H46.1402L45.5549 205.631C45.5675 204.951 45.4605 204.372 45.2339 203.894C45.02 203.403 44.699 203.038 44.2711 202.799C43.8557 202.547 43.3585 202.421 42.7795 202.421C42.2509 202.421 41.7663 202.547 41.3258 202.799C40.8978 203.038 40.5517 203.416 40.2874 203.932C40.0356 204.448 39.9098 205.121 39.9098 205.952V206.235C39.9098 207.431 40.1678 208.356 40.6838 209.01C41.1999 209.665 41.9677 209.992 42.9872 209.992C43.604 209.992 44.1263 209.86 44.5542 209.596C44.9948 209.331 45.3472 208.922 45.6115 208.369L46.9331 208.973C46.7066 209.501 46.4045 209.942 46.0269 210.294C45.6493 210.647 45.1962 210.911 44.6675 211.087C44.1515 211.263 43.5599 211.352 42.8928 211.352ZM53.0075 211.352C52.1768 211.352 51.4341 211.15 50.7796 210.747C50.1251 210.332 49.6154 209.74 49.2504 208.973C48.8853 208.205 48.7028 207.286 48.7028 206.216C48.7028 205.146 48.8853 204.234 49.2504 203.479C49.6154 202.711 50.1251 202.126 50.7796 201.723C51.4341 201.307 52.1768 201.1 53.0075 201.1C53.448 201.1 53.8697 201.175 54.2724 201.326C54.6878 201.477 55.0591 201.698 55.3864 201.987C55.7262 202.277 55.9968 202.642 56.1982 203.082H56.236V197.569H57.8408V211.125H56.3492V209.35H56.3115C56.1227 209.778 55.8521 210.143 55.4996 210.445C55.1598 210.747 54.7759 210.974 54.348 211.125C53.92 211.276 53.4732 211.352 53.0075 211.352ZM53.3284 209.954C53.92 209.954 54.4424 209.816 54.8955 209.539C55.3486 209.25 55.701 208.828 55.9528 208.274C56.2171 207.708 56.3492 207.022 56.3492 206.216C56.3492 205.423 56.2108 204.75 55.9339 204.196C55.6696 203.642 55.3108 203.221 54.8577 202.931C54.4172 202.642 53.9074 202.497 53.3284 202.497C52.762 202.497 52.2523 202.642 51.7992 202.931C51.3586 203.208 51.0062 203.623 50.7419 204.177C50.4901 204.718 50.3643 205.398 50.3643 206.216C50.3643 207.022 50.4901 207.708 50.7419 208.274C51.0062 208.828 51.3586 209.25 51.7992 209.539C52.2523 209.816 52.762 209.954 53.3284 209.954ZM63.7635 211.352C62.7314 211.352 61.8692 211.125 61.1769 210.672C60.4972 210.206 60.0378 209.514 59.7987 208.595L61.2713 208.142C61.4601 208.822 61.7685 209.313 62.1964 209.615C62.6244 209.904 63.1593 210.049 63.8012 210.049C64.4306 210.049 64.9152 209.917 65.255 209.652C65.6074 209.388 65.7836 208.998 65.7836 208.482C65.7836 208.066 65.6641 207.739 65.4249 207.5C65.1984 207.261 64.827 207.066 64.311 206.915L62.6118 206.443C61.8818 206.241 61.3217 205.927 60.9315 205.499C60.5413 205.071 60.3462 204.53 60.3462 203.875C60.3462 203.309 60.4909 202.818 60.7804 202.402C61.0825 201.987 61.4916 201.666 62.0076 201.44C62.5363 201.213 63.1404 201.1 63.8201 201.1C64.4369 201.1 64.9844 201.188 65.4627 201.364C65.9536 201.528 66.3626 201.779 66.6899 202.119C67.0297 202.446 67.2689 202.862 67.4073 203.365L65.9536 203.837C65.7648 203.346 65.4878 202.988 65.1228 202.761C64.7704 202.522 64.3299 202.402 63.8012 202.402C63.1971 202.402 62.7377 202.528 62.423 202.78C62.1083 203.019 61.951 203.353 61.951 203.781C61.951 204.108 62.0517 204.391 62.2531 204.63C62.467 204.857 62.8195 205.039 63.3104 205.178L65.0096 205.65C65.5004 205.776 65.9221 205.952 66.2745 206.178C66.6269 206.405 66.8976 206.701 67.0864 207.066C67.2877 207.431 67.3884 207.884 67.3884 208.425C67.3884 209.029 67.2374 209.552 66.9353 209.992C66.6332 210.42 66.2116 210.754 65.6704 210.993C65.1291 211.232 64.4935 211.352 63.7635 211.352ZM74.0843 211.125V201.326H75.5759V202.856H75.6136C75.8654 202.277 76.2304 201.842 76.7087 201.553C77.187 201.251 77.7596 201.1 78.4267 201.1C79.1064 201.1 79.6854 201.251 80.1637 201.553C80.6546 201.855 81.0133 202.295 81.2399 202.874H81.2776C81.5419 202.308 81.9195 201.874 82.4104 201.572C82.9139 201.257 83.5118 201.1 84.204 201.1C84.8585 201.1 85.4186 201.232 85.8843 201.496C86.3626 201.761 86.7339 202.151 86.9983 202.667C87.2626 203.17 87.3947 203.806 87.3947 204.574V211.125H85.7899V204.838C85.7899 204.083 85.6074 203.51 85.2424 203.12C84.89 202.717 84.3928 202.516 83.7509 202.516C83.046 202.516 82.4985 202.755 82.1083 203.233C81.7307 203.711 81.5419 204.379 81.5419 205.234V211.125H79.9371V204.838C79.9371 204.095 79.7546 203.523 79.3896 203.12C79.0372 202.717 78.5526 202.516 77.9359 202.516C77.2436 202.516 76.6961 202.767 76.2933 203.271C75.8905 203.774 75.6891 204.46 75.6891 205.329V211.125H74.0843ZM94.114 211.352C93.2329 211.352 92.4336 211.15 91.7162 210.747C91.0113 210.332 90.4512 209.74 90.0359 208.973C89.6205 208.205 89.4128 207.292 89.4128 206.235C89.4128 205.178 89.6205 204.265 90.0359 203.497C90.4512 202.73 91.0113 202.138 91.7162 201.723C92.4336 201.307 93.2329 201.1 94.114 201.1C95.0076 201.1 95.8069 201.307 96.5117 201.723C97.2292 202.138 97.7893 202.73 98.192 203.497C98.6074 204.265 98.8151 205.178 98.8151 206.235C98.8151 207.292 98.6074 208.205 98.192 208.973C97.7893 209.74 97.2292 210.332 96.5117 210.747C95.8069 211.15 95.0076 211.352 94.114 211.352ZM94.114 209.954C94.6678 209.954 95.1712 209.822 95.6244 209.558C96.0901 209.294 96.4614 208.885 96.7383 208.331C97.0152 207.777 97.1536 207.078 97.1536 206.235C97.1536 205.379 97.0152 204.674 96.7383 204.121C96.4614 203.567 96.0901 203.158 95.6244 202.893C95.1712 202.629 94.6678 202.497 94.114 202.497C93.5601 202.497 93.0504 202.629 92.5847 202.893C92.1316 203.158 91.7665 203.567 91.4896 204.121C91.2127 204.674 91.0743 205.379 91.0743 206.235C91.0743 207.078 91.2127 207.777 91.4896 208.331C91.7665 208.885 92.1316 209.294 92.5847 209.558C93.0504 209.822 93.5601 209.954 94.114 209.954ZM104.252 211.352C103.22 211.352 102.358 211.125 101.666 210.672C100.986 210.206 100.527 209.514 100.287 208.595L101.76 208.142C101.949 208.822 102.257 209.313 102.685 209.615C103.113 209.904 103.648 210.049 104.29 210.049C104.919 210.049 105.404 209.917 105.744 209.652C106.096 209.388 106.272 208.998 106.272 208.482C106.272 208.066 106.153 207.739 105.914 207.5C105.687 207.261 105.316 207.066 104.8 206.915L103.101 206.443C102.371 206.241 101.81 205.927 101.42 205.499C101.03 205.071 100.835 204.53 100.835 203.875C100.835 203.309 100.98 202.818 101.269 202.402C101.571 201.987 101.98 201.666 102.496 201.44C103.025 201.213 103.629 201.1 104.309 201.1C104.926 201.1 105.473 201.188 105.951 201.364C106.442 201.528 106.851 201.779 107.179 202.119C107.518 202.446 107.758 202.862 107.896 203.365L106.442 203.837C106.253 203.346 105.977 202.988 105.612 202.761C105.259 202.522 104.819 202.402 104.29 202.402C103.686 202.402 103.226 202.528 102.912 202.78C102.597 203.019 102.44 203.353 102.44 203.781C102.44 204.108 102.54 204.391 102.742 204.63C102.956 204.857 103.308 205.039 103.799 205.178L105.498 205.65C105.989 205.776 106.411 205.952 106.763 206.178C107.116 206.405 107.386 206.701 107.575 207.066C107.776 207.431 107.877 207.884 107.877 208.425C107.877 209.029 107.726 209.552 107.424 209.992C107.122 210.42 106.7 210.754 106.159 210.993C105.618 211.232 104.982 211.352 104.252 211.352ZM113.629 211.314C112.785 211.314 112.143 211.094 111.703 210.653C111.275 210.212 111.061 209.526 111.061 208.595V199.117L112.666 198.098V208.387C112.666 208.903 112.779 209.287 113.006 209.539C113.232 209.778 113.559 209.898 113.987 209.898C114.126 209.898 114.271 209.885 114.422 209.86C114.585 209.835 114.761 209.785 114.95 209.709V211.087C114.736 211.163 114.522 211.219 114.308 211.257C114.094 211.295 113.868 211.314 113.629 211.314ZM109.116 202.61V201.326H115.007V202.61H109.116Z" fill="#090D38"/>
</g>
<defs>
<clipPath id="clip0_2067_2888">
<rect width="236" height="261" rx="21.5771" fill="white"/>
</clipPath>
</defs>
</svg>
