<svg width="29" height="22" viewBox="0 0 29 22" fill="none" xmlns="http://www.w3.org/2000/svg"><path d="M17.835 0.043 C 17.371 0.194,16.932 0.606,16.794 1.020 C 16.683 1.355,16.714 1.834,16.866 2.147 C 16.954 2.329,17.806 3.228,20.429 5.911 C 22.325 7.851,23.877 9.456,23.877 9.479 C 23.877 9.503,18.947 9.522,12.502 9.522 L 1.127 9.522 0.826 9.672 C 0.090 10.040,-0.200 10.921,0.167 11.672 C 0.318 11.981,0.550 12.197,0.916 12.368 L 1.184 12.494 12.536 12.518 L 23.888 12.543 20.435 16.074 C 17.831 18.738,16.953 19.665,16.865 19.844 C 16.769 20.040,16.747 20.156,16.747 20.493 C 16.747 20.976,16.845 21.223,17.162 21.543 C 17.477 21.862,17.737 21.965,18.222 21.966 C 18.574 21.966,18.668 21.948,18.879 21.837 C 19.071 21.736,20.165 20.643,23.877 16.846 C 26.491 14.171,28.681 11.914,28.744 11.829 C 28.885 11.638,29.000 11.262,29.000 10.996 C 29.000 10.730,28.885 10.354,28.745 10.165 C 28.683 10.081,26.495 7.826,23.883 5.153 C 18.629 -0.222,18.913 0.038,18.271 0.015 C 18.098 0.008,17.901 0.021,17.835 0.043 " fill="white" stroke="none" fill-rule="evenodd"></path></svg>