<svg width="13" height="13" viewBox="0 0 13 13" fill="none" xmlns="http://www.w3.org/2000/svg"><path d="M0.997 0.025 C 0.799 0.057,0.541 0.200,0.371 0.371 C -0.013 0.754,-0.105 1.304,0.131 1.798 L 0.219 1.983 2.352 4.117 L 4.484 6.251 2.344 8.396 C 0.318 10.426,0.199 10.549,0.132 10.690 C -0.102 11.186,-0.009 11.752,0.370 12.131 C 0.750 12.511,1.311 12.605,1.798 12.369 L 1.983 12.280 4.117 10.149 L 6.251 8.017 8.385 10.149 L 10.519 12.280 10.703 12.369 C 10.975 12.500,11.224 12.530,11.516 12.469 C 11.759 12.418,11.925 12.323,12.124 12.124 C 12.323 11.925,12.418 11.759,12.469 11.516 C 12.530 11.224,12.500 10.975,12.369 10.703 L 12.280 10.519 10.149 8.385 L 8.017 6.251 10.149 4.117 L 12.280 1.983 12.369 1.798 C 12.605 1.311,12.511 0.750,12.131 0.370 C 11.752 -0.009,11.186 -0.102,10.690 0.132 C 10.549 0.199,10.426 0.318,8.396 2.344 L 6.251 4.484 4.117 2.353 C 2.082 0.320,1.975 0.217,1.822 0.141 C 1.564 0.012,1.299 -0.025,0.997 0.025 " stroke="none" fill-rule="evenodd" fill="black"></path></svg>