<svg width="27" height="19" viewBox="0 0 27 19" fill="none" xmlns="http://www.w3.org/2000/svg"><path d="M24.572 0.049 C 24.248 0.113,23.917 0.301,23.569 0.620 C 23.389 0.785,20.197 3.897,16.474 7.536 C 12.752 11.175,9.691 14.158,9.674 14.166 C 9.656 14.173,8.219 12.786,6.481 11.083 C 4.743 9.381,3.226 7.922,3.112 7.842 C 2.486 7.406,1.521 7.410,0.871 7.850 C 0.197 8.305,-0.144 9.198,0.061 9.967 C 0.171 10.376,0.355 10.666,0.781 11.097 C 1.730 12.057,8.275 18.434,8.471 18.589 C 8.879 18.913,9.516 19.057,10.045 18.948 C 10.677 18.816,10.200 19.258,18.713 10.934 C 23.036 6.707,26.619 3.178,26.676 3.092 C 27.196 2.305,27.066 1.230,26.371 0.567 C 25.878 0.097,25.250 -0.084,24.572 0.049 " fill="white" stroke="none" fill-rule="evenodd"></path></svg>