<svg width="125" height="36" viewBox="0 0 125 36" fill="none" xmlns="http://www.w3.org/2000/svg">
<path d="M75.85 9.1355C74.197 9.1355 72.2306 10.3564 71.0893 12.876H70.9312V11.0652C70.9312 9.76563 70.6168 9.17482 69.2398 9.17482C67.7449 9.17482 64.204 10.6317 64.204 11.5774C64.204 12.3648 64.8327 12.6007 66.0525 13.2711C66.4071 13.5071 66.6821 13.9003 66.6428 14.5707V25.6359C66.6428 27.2108 64.4407 27.2501 64.4407 28.3924C64.4407 29.1405 65.0693 29.4158 66.2499 29.4158H71.5607C72.7806 29.4158 73.37 29.1405 73.37 28.3924C73.37 27.2501 71.1669 27.2108 71.1669 25.6359V18.1933C71.1669 14.61 72.4261 13.9013 73.7245 13.9013C74.747 13.9013 75.1016 14.1765 75.966 14.1765C77.3823 14.1765 78.5629 13.3498 78.5629 11.539C78.5629 10.2001 77.6967 9.13644 75.8481 9.13644L75.85 9.1355Z" fill="#008FFB"/>
<path d="M96.4196 24.8671V16.6764C96.3804 11.5576 94.3344 8.84045 88.7093 8.84045C83.4761 8.84045 80.0934 11.6765 80.0934 13.9199C80.0934 15.1801 80.9587 15.8889 81.9812 15.8889C83.0823 15.8889 83.6735 15.1801 84.1843 13.9601C85.1292 11.9911 86.5053 10.6522 88.5119 10.6522C90.8329 10.6522 91.6196 12.1484 91.6196 13.8028C91.6196 15.653 90.9124 16.5986 87.5278 17.8589C82.6885 19.7493 79.3843 21.2455 79.3843 24.7491C79.3843 27.5056 81.4302 29.7106 84.9318 29.7106C88.4333 29.7106 90.3997 28.4897 91.9742 25.9308H92.1313V26.5216C92.1313 28.293 93.587 29.7115 95.7517 29.7115C97.4833 29.7115 98.6237 28.9634 98.6237 28.058C98.6237 26.4822 96.4206 27.4279 96.4206 24.8681L96.4196 24.8671ZM91.9742 20.6528C91.9742 24.6696 89.5344 26.5993 87.017 26.5993C85.1684 26.5993 83.9879 25.5759 83.9879 23.9215C83.9879 22.267 85.0104 21.2043 88.0797 19.9843L91.9751 18.4478V20.6528H91.9742Z" fill="#008FFB"/>
<path d="M119.545 25.6743V19.4133C119.545 13.4275 118.719 9.17481 112.778 9.17481C109.749 9.17481 107.624 10.7506 106.286 12.876H106.168V1.89039C106.129 0.589869 105.814 0 104.476 0C103.256 0 99.4011 1.45688 99.4011 2.40255C99.4011 3.18998 99.9914 3.42592 101.25 4.09538C101.565 4.33133 101.84 4.72551 101.801 5.39496V25.6743C101.801 27.2492 99.5976 27.2492 99.5976 28.3915C99.5976 29.1396 100.188 29.4148 101.407 29.4148H106.718C107.898 29.4148 108.527 29.1396 108.527 28.3915C108.527 27.2492 106.325 27.2098 106.325 25.635L106.364 18.5069C106.364 15.1213 107.937 12.5221 111.006 12.5221C113.681 12.5221 115.019 14.845 115.019 19.5706V25.6734C115.019 27.2482 112.816 27.2875 112.816 28.4298C112.816 29.1779 113.406 29.4532 114.625 29.4532H119.937C121.117 29.4532 121.746 29.1779 121.746 28.4298C121.746 27.2875 119.543 27.2482 119.543 25.6734L119.545 25.6743Z" fill="#008FFB"/>
<path d="M118.619 0.822072C118.776 0.822072 118.762 0.683499 118.901 0.42508C118.97 0.300552 119.058 0.21254 119.223 0.21254H119.463C119.605 0.21254 119.619 0.249992 119.619 0.499048V2.72744C119.619 2.9119 119.342 2.91658 119.342 3.03642C119.342 3.10571 119.393 3.14223 119.526 3.14223H120.148C120.282 3.14223 120.333 3.10571 120.333 3.03642C120.333 2.91658 120.056 2.9119 120.056 2.72744V0.466277C120.056 0.244374 120.07 0.21254 120.207 0.21254H120.447C120.617 0.21254 120.705 0.300552 120.774 0.42508C120.913 0.683499 120.899 0.822072 121.056 0.822072C121.135 0.822072 121.19 0.757467 121.176 0.628258C121.157 0.470959 121.125 0.309915 121.089 0.152617C121.061 0.0552415 121.024 0 120.941 0H118.733C118.65 0 118.613 0.0552415 118.585 0.152617C118.549 0.308979 118.516 0.470959 118.498 0.628258C118.484 0.757467 118.539 0.822072 118.618 0.822072H118.619Z" fill="#008FFB"/>
<path d="M124.723 2.72744V0.415717C124.723 0.231266 125 0.226585 125 0.106738C125 0.037452 124.949 0 124.816 0H124.471C124.3 0 124.222 0.0458785 124.171 0.129209L123.217 2.09919L122.456 0.549608C122.313 0.254673 122.249 0.00936301 121.986 0H121.682C121.548 0 121.497 0.037452 121.497 0.106738C121.497 0.226585 121.773 0.231266 121.773 0.415717V2.72744C121.773 2.9119 121.497 2.91658 121.497 3.03642C121.497 3.10571 121.548 3.14223 121.682 3.14223H122.106C122.239 3.14223 122.29 3.10571 122.29 3.03642C122.29 2.91658 122.013 2.9119 122.013 2.72744V0.544927L122.847 2.25648C122.945 2.4503 122.986 2.47277 123.124 2.47277C123.263 2.47277 123.304 2.41753 123.428 2.15911L124.286 0.406354V2.72744C124.286 2.9119 124.009 2.91658 124.009 3.03642C124.009 3.10571 124.06 3.14223 124.194 3.14223H124.816C124.949 3.14223 125 3.10571 125 3.03642C125 2.91658 124.723 2.9119 124.723 2.72744Z" fill="#008FFB"/>
<path d="M62.0495 12.7955C62.1889 11.9753 62.1478 11.303 61.9429 10.7693C61.8858 10.6139 61.8035 10.4659 61.7212 10.3349C61.7212 10.3349 61.7128 10.3349 61.7128 10.3264C61.6632 10.2609 61.6145 10.1954 61.565 10.1382C61.2862 9.82645 60.9092 9.59706 60.4508 9.47347C60.2871 9.42384 60.1149 9.38358 59.926 9.36673C59.7379 9.33396 59.5405 9.32553 59.3357 9.32553C58.8277 9.32553 58.3272 9.39107 57.8604 9.52215C57.7051 9.56335 57.5489 9.61204 57.4011 9.66166C57.2046 9.72721 57.0156 9.8096 56.8435 9.89948C56.6386 9.98937 56.4506 10.1045 56.2785 10.2272C55.6882 10.6373 55.3196 11.1541 55.3196 11.6869C55.3196 11.876 55.3523 12.023 55.4094 12.1541C55.7125 12.9256 56.7949 12.9331 57.098 14.0239C57.1878 14.3357 57.2046 14.7373 57.1307 15.271C56.459 19.446 53.7461 26.5741 50.1641 26.5741C49.8937 26.5741 49.6477 26.5413 49.4269 26.4758C49.1322 26.3859 48.8778 26.2464 48.6561 26.0413C48.4343 25.8447 48.2547 25.5741 48.1312 25.2539C48.0985 25.1715 48.0658 25.09 48.0414 24.9992C47.845 24.3513 47.8197 23.5067 48.0003 22.4806L49.5738 12.7936C49.7132 11.9734 49.672 11.3011 49.4671 10.7674C49.4101 10.612 49.3277 10.4641 49.2454 10.333C49.2454 10.333 49.237 10.333 49.237 10.3246C49.1874 10.259 49.1388 10.1935 49.0892 10.1364C48.8104 9.81615 48.4334 9.59519 47.9741 9.4716C47.8104 9.42197 47.6382 9.38171 47.4493 9.36486C47.2603 9.33208 47.0638 9.32366 46.859 9.32366C46.351 9.32366 45.8505 9.3892 45.3837 9.52028C45.2284 9.56148 45.0722 9.61017 44.9244 9.65979C44.7279 9.72533 44.5389 9.80773 44.3668 9.89761C44.1619 9.9875 43.9739 10.1027 43.8018 10.2253C43.6381 10.348 43.4903 10.4716 43.3593 10.6111C43.3181 10.6523 43.277 10.6935 43.2442 10.7337C43.1291 10.8648 43.0478 10.9959 42.9823 11.127V11.1354C42.958 11.185 42.9411 11.2253 42.9252 11.2749C42.8681 11.406 42.8429 11.5455 42.8429 11.685C42.8429 11.8657 42.8756 12.0211 42.9327 12.1522C43.2358 12.9312 44.3257 12.9968 44.6288 14.0389C44.7186 14.3507 44.7438 14.7439 44.6531 15.2692L43.5548 22.004C43.0627 23.7268 43.2517 24.5629 40.9897 26.0394C40.2272 26.5394 39.5556 26.6714 39.0719 26.3185C39.0148 26.2773 38.9568 26.2201 38.8998 26.163C38.8829 26.1462 38.867 26.1303 38.8586 26.1134C38.8174 26.0638 38.7763 26.0151 38.7435 25.9655V25.957C38.7024 25.8999 38.6696 25.8419 38.6537 25.7763C38.5883 25.6453 38.5471 25.4973 38.5312 25.3166C38.5069 25.1528 38.5069 24.9636 38.5228 24.7511C38.5228 24.6528 38.5396 24.5545 38.5555 24.4477L40.637 11.0202C40.6941 10.7084 40.7109 10.3967 40.6529 10.1176C40.6033 9.88825 40.4976 9.6832 40.3255 9.51841C40.2357 9.43602 40.129 9.36298 39.9896 9.32179C39.9485 9.29744 39.8998 9.28059 39.8587 9.27216C39.7108 9.23097 39.5387 9.20662 39.3423 9.20662C39.0878 9.20662 38.8502 9.23939 38.6126 9.32928H38.6042C37.8829 9.5671 37.2112 10.215 36.3917 11.4865C36.3178 11.3882 36.2439 11.2899 36.1625 11.1991C36.0886 11.1092 36.0072 11.0184 35.9249 10.9369C35.228 10.215 34.3841 9.71503 33.4496 9.42759C33.2615 9.37047 33.0642 9.32085 32.8677 9.27965C32.6544 9.23846 32.4411 9.19726 32.2203 9.17291C32.1792 9.16449 32.138 9.16449 32.0894 9.16449C31.8602 9.13172 31.63 9.12329 31.3924 9.12329C30.9415 9.12329 30.499 9.15606 30.065 9.23003C29.6225 9.29557 29.1959 9.39388 28.7786 9.52496C28.2707 9.68039 27.787 9.87795 27.3118 10.1242C26.9919 10.2796 26.6887 10.4519 26.3856 10.657C25.9347 10.9444 25.5091 11.2805 25.0993 11.6494C24.96 11.7646 24.829 11.8872 24.698 12.0352C24.567 12.1578 24.4361 12.2973 24.3126 12.4284C24.1816 12.5679 24.0581 12.7075 23.944 12.8554C23.8289 12.9949 23.7148 13.1344 23.6082 13.2823C23.5838 13.2992 23.567 13.3151 23.567 13.332C23.3453 13.6269 23.1404 13.9312 22.944 14.2505C22.8457 14.4059 22.7475 14.5707 22.6493 14.743C22.5015 14.9976 22.3705 15.2598 22.2564 15.522C22.1254 15.7598 22.0188 16.006 21.9205 16.2598C21.8055 16.5388 21.6988 16.8253 21.6006 17.1212C21.5763 17.1867 21.551 17.2523 21.5351 17.3262C21.4855 17.4657 21.4453 17.6137 21.4126 17.7607C21.363 17.9002 21.3227 18.0313 21.29 18.1708C19.6426 19.8936 17.7089 21.3532 16.9877 21.8701C17.1271 21.5424 17.2664 21.2137 17.3974 20.8776C17.4142 20.828 17.4302 20.7793 17.4545 20.7297C17.5854 20.3851 17.7089 20.0321 17.8231 19.6801C17.9456 19.3112 18.0607 18.9339 18.1673 18.5565C18.2328 18.3187 18.2983 18.0809 18.3563 17.8431C18.4714 17.3674 18.578 16.8918 18.6678 16.4161C18.709 16.1867 18.7501 15.9489 18.7829 15.7111C18.8652 15.1531 18.9223 14.5875 18.9634 14.0379C18.9718 13.8572 18.9803 13.669 18.9878 13.4883C18.9878 13.3984 18.9962 13.3076 18.9962 13.2177V12.9471C18.9962 12.5127 18.9634 12.1101 18.9064 11.7412C18.8979 11.7 18.8895 11.6672 18.882 11.626C18.8409 11.4294 18.7997 11.2318 18.7427 11.0605C18.5874 10.5849 18.3741 10.1991 18.0953 9.89574C18.0298 9.82177 17.9643 9.75623 17.8904 9.69912C17.6771 9.51092 17.4236 9.37141 17.1448 9.27216C17.0054 9.22254 16.8576 9.18228 16.7023 9.16542C16.547 9.13265 16.3824 9.12423 16.2103 9.12423C15.8333 9.12423 15.4731 9.18977 15.1616 9.32928H15.1532C14.9651 9.40324 14.793 9.50156 14.6368 9.62421C14.5629 9.67383 14.4974 9.73095 14.4319 9.79649C14.3664 9.8536 14.3009 9.91915 14.2439 9.98562C14.1372 10.1083 14.0474 10.2403 13.9819 10.3789C13.8266 10.6579 13.7359 10.9697 13.7031 11.3058V11.3142C13.6863 11.3966 13.6863 11.4781 13.6863 11.5689C13.6863 11.6101 13.6863 11.6429 13.6947 11.6756C13.6947 11.7168 13.6947 11.7496 13.7031 11.7824C13.6947 11.7992 13.6947 11.8152 13.7031 11.832C13.7116 11.9387 13.7275 12.0455 13.7443 12.1354C13.7527 12.2337 13.777 12.3236 13.8098 12.4144C13.8257 12.4968 13.8509 12.5698 13.8837 12.6438C13.9249 12.7421 13.9735 12.8404 14.0315 12.9387C14.1297 13.111 14.2448 13.2748 14.3589 13.4387C14.4244 13.5211 14.4899 13.6026 14.5638 13.6849C14.6863 13.8404 14.8182 13.9967 14.9492 14.169C15.4085 14.7682 15.8183 15.4976 15.8183 16.8019C15.8183 18.1062 15.5068 19.5331 14.9988 20.887C14.8922 21.1576 14.7855 21.4197 14.6714 21.6828C14.6143 21.8223 14.5488 21.9534 14.4908 22.0845C14.4169 22.2399 14.343 22.3879 14.2691 22.5358C14.1138 22.8307 13.9492 23.1266 13.777 23.3972C13.6049 23.6762 13.4244 23.9468 13.2447 24.193C13.0399 24.4721 12.8182 24.7427 12.6058 24.9805C12.5319 25.0629 12.458 25.1359 12.3841 25.2099C12.1961 25.4065 11.9987 25.5788 11.8022 25.7426C11.6956 25.8166 11.5973 25.8906 11.4907 25.9645C11.4252 26.0057 11.3681 26.0469 11.3017 26.0872C11.1951 26.1527 11.08 26.2098 10.9743 26.2595C10.6469 26.4074 10.3101 26.4889 9.99109 26.4889C9.69641 26.4889 9.44196 26.4477 9.22024 26.3578C9.04811 26.2838 8.89282 26.1855 8.76091 26.046C8.62995 25.9233 8.51488 25.7585 8.42507 25.5619L8.41665 25.5535C8.35959 25.4383 8.31001 25.3157 8.26884 25.1762C8.25201 25.135 8.24452 25.0938 8.2361 25.0535C8.1463 24.7417 8.08829 24.3644 8.06397 23.9299L7.1949 13.7336C7.16215 13.3891 7.1949 13.1185 7.27722 12.905C7.33429 12.7412 7.41661 12.6016 7.52325 12.4949C7.57284 12.4294 7.62148 12.3797 7.67855 12.3395C7.85068 12.1915 8.03871 12.0848 8.2361 11.9865C8.43256 11.8798 8.62995 11.7899 8.80114 11.6747C9.07992 11.4781 9.28479 11.2318 9.28479 10.7805C9.28479 10.4116 9.15382 10.141 8.90779 9.96877C8.79272 9.8948 8.65333 9.82926 8.49804 9.79649C8.4653 9.78057 8.42414 9.77215 8.39139 9.77215C8.21084 9.73095 8.01439 9.71503 7.78519 9.71503H1.76996C0.999109 9.71503 0.499555 9.87046 0.237616 10.1663C0.0739042 10.3386 0 10.5596 0 10.8227C0 11.0689 0.0654847 11.2571 0.180551 11.4135C0.213293 11.4631 0.254455 11.5118 0.3031 11.553C0.442489 11.6925 0.606201 11.8077 0.786752 11.9303C0.974787 12.053 1.17218 12.185 1.35179 12.3573C1.40886 12.4069 1.46686 12.464 1.52392 12.5296C1.58099 12.5867 1.63899 12.6606 1.69605 12.7346C1.79428 12.8825 1.88409 13.0548 1.96641 13.2599C1.98232 13.3095 1.99915 13.3666 2.01599 13.4153C2.04874 13.5305 2.08148 13.6447 2.09832 13.7758C2.10674 13.8329 2.11516 13.9069 2.12264 13.9724L3.34346 24.7586C3.40053 25.2586 3.47443 25.7267 3.58108 26.1527C3.61382 26.2922 3.64656 26.4317 3.68772 26.5628C3.7373 26.7435 3.79437 26.9158 3.85985 27.0797C3.97492 27.4074 4.11431 27.7032 4.27802 27.9738C4.27802 27.9738 4.27802 27.9823 4.28644 27.9823C4.44173 28.2529 4.62228 28.4907 4.82716 28.7041C4.9338 28.8193 5.04045 28.9261 5.15458 29.0159C5.34355 29.1714 5.54 29.3034 5.7533 29.4176C6.45024 29.8118 7.31838 30 8.37549 30H8.39139C8.5392 30 8.67859 29.9916 8.82546 29.9756C8.97327 29.9672 9.12015 29.9429 9.26795 29.9185C9.36618 29.9017 9.46441 29.8773 9.56264 29.853C9.96396 29.7631 10.3578 29.6152 10.7507 29.426C10.906 29.3605 11.0622 29.2781 11.2175 29.1798C11.8078 28.8437 12.3813 28.4083 12.9388 27.8999C14.6686 26.2922 16.3646 24.6434 18.1598 23.0929L20.8728 20.7465C20.8728 20.7877 20.8728 20.8289 20.8644 20.8692C20.8559 20.9918 20.8559 21.1154 20.8475 21.2465C20.8391 21.3776 20.8391 21.5087 20.8307 21.6398C20.8223 21.6725 20.8223 21.6969 20.8307 21.7296C20.8223 21.7793 20.8223 21.8364 20.8223 21.8851C20.8138 21.9347 20.8138 21.9918 20.8138 22.0405C20.8138 23.2951 20.9776 24.4683 21.2975 25.4936C21.3471 25.6415 21.3957 25.7885 21.4453 25.928C21.6913 26.6087 22.0103 27.2239 22.4042 27.7491C22.5024 27.8802 22.6091 28.0113 22.7157 28.1349C23.1011 28.5777 23.552 28.9551 24.0516 29.2509C24.2069 29.3408 24.3715 29.4232 24.5352 29.4972C25.2565 29.8249 26.076 29.9972 26.9937 29.9972C28.977 29.9972 30.8293 29.1274 32.4196 27.0684C32.6488 26.7735 32.8705 26.4533 33.0838 26.1087C33.1493 25.9936 33.2232 25.8709 33.2971 25.7557C33.5104 25.3953 33.7068 25.0011 33.9117 24.591C33.9772 24.4515 34.0427 24.312 34.1082 24.164C34.2971 23.7296 34.4852 23.2699 34.6657 22.7858H34.7396V22.7942L33.994 26.4439C33.8631 27.1003 33.8631 27.6911 34.0025 28.1826C34.0595 28.4289 34.1577 28.6583 34.2897 28.8549C34.372 28.986 34.4702 29.1096 34.5843 29.2238C34.6498 29.2893 34.7153 29.3464 34.7892 29.4045C35.2485 29.765 35.8706 29.9541 36.6331 29.9541C36.9932 29.9541 37.3628 29.9045 37.7145 29.8146C37.7472 29.8062 37.7884 29.7977 37.8211 29.7903C37.8539 29.7818 37.8866 29.7659 37.9194 29.7575V29.7659C38.2721 29.7416 41.6155 28.1583 43.8944 26.9111L43.9028 26.9027C43.9112 26.927 43.9196 26.9523 43.9355 26.9767C43.9683 27.0666 44.0094 27.1574 44.0506 27.2388C44.1077 27.3699 44.1816 27.501 44.2555 27.6321C44.3378 27.78 44.4276 27.927 44.5258 28.059C44.5427 28.0759 44.5502 28.0834 44.5586 28.1002C44.6568 28.2313 44.7635 28.3624 44.8785 28.4776C44.9936 28.6002 45.1161 28.7238 45.2471 28.8305C45.3538 28.9204 45.4604 29.0028 45.5745 29.0852C45.6157 29.118 45.6569 29.1508 45.7055 29.1751C45.8281 29.2575 45.9515 29.3305 46.0825 29.397C46.2378 29.4794 46.394 29.5524 46.5577 29.6105C46.7056 29.6676 46.8524 29.7257 47.0087 29.7659C47.0414 29.7818 47.0826 29.7903 47.1237 29.7987C47.2715 29.8399 47.4268 29.8727 47.583 29.897C47.7636 29.9298 47.9516 29.9541 48.1406 29.971C48.3296 29.9869 48.5176 29.9953 48.7141 29.9953C49.9274 29.9953 51.0088 29.6919 51.992 29.044C53.008 28.3633 53.9098 27.3128 54.7293 25.8447C54.9753 25.4102 55.2045 24.9346 55.4421 24.4178V24.4093C55.516 24.2455 55.59 24.0732 55.6639 23.8925C55.7621 23.6631 55.8528 23.4253 55.9426 23.1875C55.9997 23.0395 56.0493 22.8925 56.1063 22.7446H56.1887V22.753L55.4019 26.3297C55.2214 27.207 55.2382 27.9373 55.459 28.5038C55.6723 29.1105 56.1148 29.5375 56.7621 29.7509C56.8444 29.7753 56.9258 29.8006 57.0166 29.8249C57.271 29.882 57.5657 29.9148 57.8772 29.9148C57.967 29.9148 58.156 29.9064 58.4179 29.8904H58.4507C60.2207 29.7097 62.057 28.6929 62.057 27.5525C62.057 27.487 62.057 27.4298 62.0402 27.3802H62.0318C62.0233 27.3063 62.0075 27.2323 61.9906 27.1667C61.9579 27.0769 61.9167 26.9945 61.8681 26.9121C61.8437 26.8793 61.811 26.8381 61.7857 26.8053C61.753 26.7726 61.7203 26.7398 61.6875 26.707C61.6463 26.6658 61.5977 26.6171 61.5397 26.5844C61.3591 26.4449 61.1459 26.3222 60.9494 26.1743C60.8923 26.1331 60.8343 26.0919 60.7857 26.0432C60.6875 25.9692 60.5977 25.8878 60.5237 25.781C60.4667 25.7071 60.4087 25.6256 60.3685 25.5263C60.3441 25.4692 60.3114 25.4196 60.2946 25.3541C60.2777 25.3044 60.2618 25.2558 60.2534 25.2061C60.2122 25.0582 60.1963 24.8859 60.1963 24.6809C60.1963 24.517 60.2048 24.3363 60.2375 24.1228L62.0486 12.787L62.0495 12.7955ZM35.0605 15.9461L34.9052 17.0865C34.4384 20.195 33.2166 22.9927 31.7414 24.7399C31.5936 24.928 31.4383 25.0928 31.2661 25.2567C31.0444 25.4786 30.8152 25.6752 30.586 25.8475C30.4962 25.913 30.4139 25.9701 30.3241 26.0366C30.152 26.1518 29.9798 26.2501 29.7993 26.3316C29.7095 26.3728 29.6271 26.414 29.5373 26.4467C29.4223 26.4879 29.3081 26.5291 29.1847 26.5619C28.9555 26.619 28.7178 26.6518 28.4877 26.6518H28.3652C28.324 26.6433 28.2828 26.6434 28.2426 26.6434C28.1603 26.6349 28.0873 26.6265 28.005 26.6106C27.8572 26.5778 27.7103 26.545 27.5709 26.4879C27.4811 26.4467 27.3904 26.4055 27.3006 26.3568C27.2108 26.2997 27.12 26.2417 27.0386 26.1761C26.9563 26.1106 26.8833 26.0451 26.8094 25.9627C26.6541 25.8147 26.5148 25.635 26.3913 25.4299C26.2687 25.2333 26.1621 25.003 26.0713 24.7492C25.7766 23.9861 25.6204 22.9777 25.6204 21.7306C25.6204 20.0246 25.8084 18.359 26.2023 16.8908C26.3903 16.153 26.6289 15.4639 26.9236 14.8319C27.0629 14.5201 27.2182 14.2252 27.3904 13.9462C27.5541 13.6756 27.7431 13.4134 27.9311 13.1747C28.0377 13.0267 28.1603 12.8872 28.2997 12.7561C28.4222 12.6251 28.5541 12.5015 28.6926 12.3872C28.8236 12.2721 28.9629 12.1738 29.1107 12.0754H29.1192C29.3979 11.8947 29.6926 11.7477 30.0041 11.641C30.4223 11.4931 30.8564 11.4191 31.3241 11.4191C32.2914 11.4191 33.1352 11.7964 33.7826 12.3788C33.8724 12.4612 33.9632 12.5511 34.0446 12.641C34.2167 12.8292 34.3645 13.0267 34.4955 13.2402C34.9379 13.9621 35.1671 14.8066 35.1017 15.6521C35.0848 15.7504 35.0773 15.8487 35.0605 15.947V15.9461Z" fill="#008FFB"/>
</svg>
