<svg width="89" height="24" viewBox="0 0 89 24" fill="none" xmlns="http://www.w3.org/2000/svg">
<path d="M8.91491 16.4872L4.28641 14.7346C2.88642 14.2012 1.82217 13.509 1.09362 12.6581C0.365065 11.8072 0.000768708 10.8611 0.000768708 9.81968C0.000768708 8.60048 0.529316 7.43206 1.58645 6.31448C1.84352 6.06698 2.12316 5.84923 2.4007 5.62867C3.08642 5.14605 3.94355 4.80953 4.97209 4.61903C6.00063 4.42853 9.09979 4.27423 12.1291 4.71428C13.0194 4.84362 13.6291 5.12067 13.9719 5.47628C14.3148 5.8319 14.4388 6.63633 14.4862 7.95279C14.504 8.44824 14.5439 9.2018 14.4862 9.55087C14.3982 10.0836 14.3243 10.3806 14.1005 10.5436C13.9442 10.6574 13.7577 10.7341 13.5005 10.7341C13.3577 10.7341 13.1974 10.7013 13.0291 10.6198C12.5746 10.3998 12.3434 9.74349 12.3434 9.74349C12.0291 9.03229 11.4363 8.28935 10.5649 7.51462C9.69345 6.73992 8.67203 6.35256 7.50064 6.35256C7.11038 6.35371 6.48084 6.38751 5.97227 6.50282C4.51707 6.83273 4.07213 7.48287 4.07213 8.52426C4.07213 8.85445 4.1531 9.23333 4.39598 9.58891C4.63882 9.94453 4.92926 10.188 5.18641 10.3911C5.44357 10.5943 5.90069 10.823 6.55781 11.077L11.9149 13.2106C13.024 13.7269 13.7363 14.3304 14.4862 15.1727C15.1107 15.8741 15.4291 16.8428 15.4291 18.0874C15.4291 19.2304 15.0291 20.2972 14.2291 21.2878C13.4291 22.2784 12.3791 22.9769 11.0791 23.3833C9.77916 23.7897 8.48619 23.9757 7.20061 23.9929C4.58729 24.0278 2.81532 23.4303 2.44839 23.305C1.63005 23.0253 1.10789 22.8372 0.750756 22.5832C0.393619 22.3292 0.0551683 22.1347 0.0436412 21.5545C0.0305772 20.8983 0.0400011 20.1694 0.0436412 19.459C0.0498699 18.6986 -0.0575947 18.098 0.0436412 17.2873C0.100872 16.8289 0.848959 16.5839 1.20076 16.8301C1.46851 17.0175 1.67349 17.2536 1.86504 17.6873C2.42663 18.9589 3.05302 20.5808 5.35782 21.5355C5.97972 21.7931 8.19223 22.4514 10.5006 21.2307C11.2651 20.8264 11.6577 20.221 11.6577 19.3828C11.6577 18.7986 11.4006 18.2525 10.8863 17.7445C10.7041 17.5645 10.0173 16.8762 8.91487 16.4872L8.91491 16.4872Z" fill="#111111"/>
<path d="M33.8961 10.3646V18.899C33.8961 19.2038 33.8653 19.8878 34.1533 20.6135C34.2801 20.9331 34.5576 21.1693 35.0961 21.1088C35.7362 21.0369 36.3258 20.3899 36.7246 20.4611C37.0389 20.5627 37.2987 20.9128 37.1961 21.4898C37.1152 21.9447 36.339 22.4804 36.339 22.4804C35.8602 22.8025 34.6732 23.4516 34.1104 23.6044C33.6131 23.7394 33.1676 23.852 32.739 23.852C32.1105 23.852 31.6105 23.7207 31.2391 23.2424L30.0391 21.2231L28.9677 22.0994C28.2819 22.6328 27.368 23.0467 26.2463 23.3948C24.8346 23.8328 22.8773 24.0026 20.8035 23.5281C19.6521 23.2647 18.9392 22.7788 18.1679 22.0041C17.3964 21.2294 17.0107 20.2833 17.0107 19.1657C17.0107 17.6671 17.425 16.5622 18.2536 15.851C19.0821 15.1398 20.8821 14.3523 23.6534 13.4888L25.2391 13.0316L28.8819 12.041C29.2533 11.9393 29.4891 11.8505 29.589 11.7743C29.689 11.6981 29.739 11.533 29.739 11.279C29.739 10.9741 29.6319 10.0343 29.4176 8.45956C29.2033 6.88474 28.1391 6.09736 26.2248 6.09736C25.1477 6.09736 24.27 6.44035 23.632 6.8403C23.1034 7.17168 22.632 7.59594 22.3034 8.23094C21.9749 8.86594 21.8106 9.74225 21.8106 10.8598C21.8106 11.0376 21.7392 11.1964 21.5963 11.3361C21.4535 11.4758 21.2106 11.5456 20.8678 11.5456C20.5249 11.5456 20.1678 11.4885 19.7964 11.3742C19.425 11.2599 18.9535 11.0631 18.3821 10.7836C17.8107 10.5043 17.525 10.0978 17.525 9.56444C17.525 9.13264 17.675 8.68181 17.975 8.21188C18.275 7.742 18.7392 7.25302 19.3678 6.74501C19.9964 6.23701 20.7321 5.8052 21.5749 5.44962C22.4177 5.09401 23.3606 4.82731 24.4034 4.64951C25.4463 4.4717 26.3248 4.38281 27.0391 4.38281C29.4962 4.38281 31.1747 4.70668 32.0747 5.35437C32.9747 6.00207 33.5533 7.31652 33.8104 9.29775L33.8961 10.3646ZM21.5535 18.5942V19.2419C21.5535 20.8675 22.6963 21.6803 24.982 21.6803C25.4391 21.6803 25.9177 21.585 26.4177 21.3945C26.9177 21.204 27.4105 20.9246 27.8962 20.5563C28.3819 20.188 28.7605 19.7499 29.0319 19.2419C29.3033 18.7339 29.4513 18.2499 29.4795 17.9529C29.6795 15.8447 29.739 14.7206 29.739 14.365C29.739 14.1872 29.7105 14.0729 29.6533 14.0222L27.939 14.4793C25.6534 15.1144 24.0534 15.7303 23.1391 16.3272C22.2249 16.9241 21.6963 17.6798 21.5535 18.5942Z" fill="#111111"/>
<path d="M42.1524 1.4404L42.112 4.0355C42.112 4.3657 42.1405 4.56889 42.1977 4.64512C42.2548 4.72131 42.4262 4.75943 42.7119 4.75943L46.4833 4.53081C46.9119 4.48 47.2401 4.51269 47.4047 4.6832C47.8303 5.1241 47.695 5.73207 47.5547 6.13101C47.269 6.84221 47.1219 7.32061 46.4404 7.35021C45.8401 7.37628 42.8405 7.35021 42.8405 7.35021H42.4047C42.1168 7.36308 42.1548 7.78202 42.1548 7.95982V17.5992C42.1953 18.9787 42.2716 19.4069 42.8191 20.1138C43.2794 20.7082 43.9263 21.0536 44.9833 21.0663C45.7896 21.0759 47.5796 19.9977 48.4119 19.9233C48.669 19.9233 48.869 20.0122 49.0118 20.19C49.3207 20.55 49.1848 21.3709 48.7547 21.7521C48.3541 22.1072 47.5547 22.5712 46.3547 23.1427C45.1547 23.7142 43.9976 24 42.8833 24C40.1119 24 38.5262 22.349 38.1262 19.047L38.0405 17.7135V8.15036C38.0405 7.89636 38.012 7.74397 37.9548 7.69317C37.8977 7.64236 37.6977 7.61697 37.3549 7.61697H35.8549C35.0263 7.61697 34.6121 7.35028 34.6121 6.81686C34.6121 6.58824 34.6549 6.3533 34.7406 6.11199C34.8263 5.87068 34.9978 5.64843 35.2549 5.44523C35.5121 5.24204 36.0334 4.90548 36.8191 4.4356C37.6048 3.96571 38.1905 3.5339 38.5763 3.14021C38.962 2.74651 39.4262 2.15595 39.9691 1.36856C39.9691 1.36856 40.6121 0.511058 40.7954 0.326993C40.8986 0.223401 41.1248 0.0607668 41.2548 0.0350575C41.8429 -0.0813716 42.2217 0.0228326 42.1524 1.44048L42.1524 1.4404Z" fill="#111111"/>
<path d="M65.0276 10.4537C64.8426 10.8318 64.0488 11.475 62.4345 12.4604C59.1873 14.4425 54.4358 17.3001 54.4309 17.4632C54.4219 17.7567 54.8529 18.5907 55.5052 19.2639C57.8454 21.3404 60.4467 21.3774 62.2915 20.6526C63.3766 20.2263 64.4416 19.2578 65.0416 18.7498C65.5213 18.3436 65.8493 18.3761 66.0557 18.4154C66.4557 18.4916 66.7365 18.6948 66.7365 19.0251C66.7365 19.6027 66.5151 19.9478 66.0722 20.4919C65.5289 21.1595 64.6294 21.9461 63.0723 22.6827C61.5152 23.4193 59.7938 23.7876 57.9081 23.7876C54.5367 23.7876 52.7173 22.7673 50.7511 20.5109C49.0191 18.5235 48.6511 16.2691 48.6511 14.3387C48.6511 13.8053 48.7154 13.0941 48.844 12.2051C48.9725 11.3161 49.3702 10.1308 50.1988 8.72108C51.0274 7.31138 52.2511 6.24241 53.7082 5.44233C55.1653 4.64221 56.8725 4.24219 59.0725 4.24219C60.5582 4.24219 63.1578 5.00063 65.0083 8.17913C65.3707 8.80158 65.3997 9.69328 65.0276 10.4537ZM53.2531 15.2024C53.3512 15.2235 59.6729 11.7834 60.0659 11.3681C61.0752 10.5494 61.2038 9.72133 61.0136 9.13566C60.7305 8.26381 59.5833 7.22655 58.1387 6.8499C53.6387 5.67659 52.2438 8.46607 52.1188 10.056C51.9723 11.9186 53.0568 15.1602 53.2531 15.2024Z" fill="#111111"/>
<path d="M74.4772 13.897L69.9344 8.79164L68.9059 7.83913L68.5202 7.53433L68.0916 7.19144L67.2774 6.65805L66.5868 6.31729L65.9917 6.04844C65.8203 5.97224 65.6988 5.90238 65.6274 5.83888C65.5559 5.77538 65.506 5.73093 65.4774 5.70551C65.3891 5.56924 65.3385 5.3678 65.356 5.24188C65.3393 5.02812 65.5345 4.81651 65.8202 4.71489C66.1059 4.61328 75.1178 4.57732 75.5486 4.6387C75.776 4.6711 75.9428 4.7515 76.1223 4.91802C76.3317 5.11218 76.2393 5.56161 76.0629 5.74147C75.9939 5.81622 75.8671 5.92917 75.7653 6.00816L75.4629 6.20082L75.0343 6.42944C74.4343 6.65805 74.1343 6.95013 74.1343 7.30575C74.1343 7.45813 74.1915 7.62325 74.3057 7.80106L74.4343 7.99156L74.7343 8.37256L76.7485 11.0396C76.9485 11.319 77.1628 11.4587 77.3914 11.4587C77.6199 11.4587 77.8342 11.319 78.0342 11.0396L80.1342 8.41067C80.277 8.25829 80.6056 7.7902 80.6056 7.26767C80.6056 6.91205 80.5555 6.65593 80.1318 6.42732C79.8575 6.30894 79.6251 6.21794 79.408 6.12679C79.2808 6.07335 78.7006 5.71353 78.7199 5.32455C78.7273 5.1754 78.8065 5.01172 78.8485 4.9457C78.9747 4.74251 79.1011 4.67923 79.3413 4.63877C79.7055 4.57743 86.3231 4.5076 86.4793 4.52662C86.6352 4.54561 86.864 4.57718 87.0126 4.71497C87.1681 4.85915 87.2774 5.01564 87.2483 5.32458C87.2411 5.40171 87.1817 5.63834 87.0389 5.73726C86.4121 6.17126 85.7504 6.10014 84.2055 7.38201C81.977 9.49021 80.5342 10.8936 79.877 11.5921C79.2199 12.2906 78.8913 12.805 78.8913 13.1351C78.8913 13.2621 78.9627 13.4145 79.1056 13.5923L84.3769 19.5359L85.1484 20.4123L85.5769 20.7933C86.0912 21.1996 86.5483 21.4791 86.9483 21.6315L87.1982 21.7076L87.7626 21.8981L88.1912 22.0886C88.3076 22.1456 88.4197 22.208 88.4936 22.3194C88.5652 22.4343 88.6071 22.565 88.6173 22.6623C88.6173 22.6623 88.6816 23.1766 88.2959 23.3671C87.9102 23.5576 87.9166 23.6067 87.4337 23.6529C87.0575 23.6888 80.1294 23.6613 79.8722 23.6867C79.6151 23.7121 79.2557 23.6888 79.1986 23.6888C78.7986 23.6888 78.5485 23.619 78.2056 23.4793C77.8628 23.3396 77.6914 23.0919 77.6914 22.7363L77.7342 22.584C77.7914 22.3046 78.0771 22.1013 78.5914 21.9743L78.9342 21.8981C79.5913 21.6695 79.9199 21.3139 79.9199 20.8313C79.9199 20.3741 79.6485 19.8534 79.1057 19.2692L76.7486 16.526C76.52 16.2466 76.3629 16.1069 76.2771 16.1069C76.22 16.1069 76.0771 16.2212 75.8486 16.4498L73.7057 18.6977C73.1009 19.337 72.685 20.1556 72.6772 20.7825C72.6598 22.1821 73.7096 21.8287 74.2201 22.0886C74.7199 22.3594 74.693 22.7667 74.6915 22.8441C74.6867 23.0801 74.5915 23.3332 74.3915 23.4602C74.1915 23.5872 74.0217 23.6642 73.4771 23.6866C73.2467 23.6961 65.8675 23.8832 65.3893 23.3458C65.1991 23.1322 65.2917 22.5712 65.5202 22.3933C65.9853 22.0877 66.824 21.8347 67.0631 21.7456C68.4277 21.2374 69.2916 20.2216 69.2916 20.2216C71.7773 17.9864 73.3558 16.5196 74.0272 15.8211C74.6986 15.1226 75.0058 14.6717 74.9486 14.4685L74.4772 13.897Z" fill="#111111"/>
</svg>
