<svg width="335" height="335" viewBox="0 0 335 335" fill="none" xmlns="http://www.w3.org/2000/svg">
<path d="M98.0514 11.8606C101.327 11.8606 103.982 9.20552 103.982 5.9303C103.982 2.65509 101.327 0 98.0514 0C94.7762 0 92.1211 2.65509 92.1211 5.9303C92.1211 9.20552 94.7762 11.8606 98.0514 11.8606Z" fill="black"/>
<path d="M109.567 11.8606C112.842 11.8606 115.497 9.20552 115.497 5.9303C115.497 2.65509 112.842 0 109.567 0C106.292 0 103.637 2.65509 103.637 5.9303C103.637 9.20552 106.292 11.8606 109.567 11.8606Z" fill="black"/>
<path d="M132.598 11.8606C135.873 11.8606 138.529 9.20552 138.529 5.9303C138.529 2.65509 135.873 0 132.598 0C129.323 0 126.668 2.65509 126.668 5.9303C126.668 9.20552 129.323 11.8606 132.598 11.8606Z" fill="black"/>
<path d="M178.657 11.8606C181.932 11.8606 184.587 9.20552 184.587 5.9303C184.587 2.65509 181.932 0 178.657 0C175.382 0 172.727 2.65509 172.727 5.9303C172.727 9.20552 175.382 11.8606 178.657 11.8606Z" fill="black"/>
<path d="M190.172 11.8606C193.448 11.8606 196.103 9.20552 196.103 5.9303C196.103 2.65509 193.448 0 190.172 0C186.897 0 184.242 2.65509 184.242 5.9303C184.242 9.20552 186.897 11.8606 190.172 11.8606Z" fill="black"/>
<path d="M213.204 11.8606C216.479 11.8606 219.134 9.20552 219.134 5.9303C219.134 2.65509 216.479 0 213.204 0C209.929 0 207.273 2.65509 207.273 5.9303C207.273 9.20552 209.929 11.8606 213.204 11.8606Z" fill="black"/>
<path d="M98.0514 23.3762C101.327 23.3762 103.982 20.7211 103.982 17.4459C103.982 14.1707 101.327 11.5156 98.0514 11.5156C94.7762 11.5156 92.1211 14.1707 92.1211 17.4459C92.1211 20.7211 94.7762 23.3762 98.0514 23.3762Z" fill="black"/>
<path d="M121.083 23.3762C124.358 23.3762 127.013 20.7211 127.013 17.4459C127.013 14.1707 124.358 11.5156 121.083 11.5156C117.807 11.5156 115.152 14.1707 115.152 17.4459C115.152 20.7211 117.807 23.3762 121.083 23.3762Z" fill="black"/>
<path d="M132.598 23.3762C135.873 23.3762 138.529 20.7211 138.529 17.4459C138.529 14.1707 135.873 11.5156 132.598 11.5156C129.323 11.5156 126.668 14.1707 126.668 17.4459C126.668 20.7211 129.323 23.3762 132.598 23.3762Z" fill="black"/>
<path d="M155.626 23.3762C158.901 23.3762 161.556 20.7211 161.556 17.4459C161.556 14.1707 158.901 11.5156 155.626 11.5156C152.35 11.5156 149.695 14.1707 149.695 17.4459C149.695 20.7211 152.35 23.3762 155.626 23.3762Z" fill="black"/>
<path d="M178.657 23.3762C181.932 23.3762 184.587 20.7211 184.587 17.4459C184.587 14.1707 181.932 11.5156 178.657 11.5156C175.382 11.5156 172.727 14.1707 172.727 17.4459C172.727 20.7211 175.382 23.3762 178.657 23.3762Z" fill="black"/>
<path d="M201.688 23.3762C204.963 23.3762 207.618 20.7211 207.618 17.4459C207.618 14.1707 204.963 11.5156 201.688 11.5156C198.413 11.5156 195.758 14.1707 195.758 17.4459C195.758 20.7211 198.413 23.3762 201.688 23.3762Z" fill="black"/>
<path d="M236.235 23.3762C239.51 23.3762 242.165 20.7211 242.165 17.4459C242.165 14.1707 239.51 11.5156 236.235 11.5156C232.96 11.5156 230.305 14.1707 230.305 17.4459C230.305 20.7211 232.96 23.3762 236.235 23.3762Z" fill="black"/>
<path d="M98.0514 34.8919C101.327 34.8919 103.982 32.2368 103.982 28.9616C103.982 25.6863 101.327 23.0312 98.0514 23.0312C94.7762 23.0312 92.1211 25.6863 92.1211 28.9616C92.1211 32.2368 94.7762 34.8919 98.0514 34.8919Z" fill="black"/>
<path d="M121.083 34.8919C124.358 34.8919 127.013 32.2368 127.013 28.9616C127.013 25.6863 124.358 23.0312 121.083 23.0312C117.807 23.0312 115.152 25.6863 115.152 28.9616C115.152 32.2368 117.807 34.8919 121.083 34.8919Z" fill="black"/>
<path d="M132.598 34.8919C135.873 34.8919 138.529 32.2368 138.529 28.9616C138.529 25.6863 135.873 23.0312 132.598 23.0312C129.323 23.0312 126.668 25.6863 126.668 28.9616C126.668 32.2368 129.323 34.8919 132.598 34.8919Z" fill="black"/>
<path d="M155.626 34.8919C158.901 34.8919 161.556 32.2368 161.556 28.9616C161.556 25.6863 158.901 23.0312 155.626 23.0312C152.35 23.0312 149.695 25.6863 149.695 28.9616C149.695 32.2368 152.35 34.8919 155.626 34.8919Z" fill="black"/>
<path d="M178.657 34.8919C181.932 34.8919 184.587 32.2368 184.587 28.9616C184.587 25.6863 181.932 23.0312 178.657 23.0312C175.382 23.0312 172.727 25.6863 172.727 28.9616C172.727 32.2368 175.382 34.8919 178.657 34.8919Z" fill="black"/>
<path d="M190.172 34.8919C193.448 34.8919 196.103 32.2368 196.103 28.9616C196.103 25.6863 193.448 23.0312 190.172 23.0312C186.897 23.0312 184.242 25.6863 184.242 28.9616C184.242 32.2368 186.897 34.8919 190.172 34.8919Z" fill="black"/>
<path d="M224.719 34.8919C227.995 34.8919 230.65 32.2368 230.65 28.9616C230.65 25.6863 227.995 23.0312 224.719 23.0312C221.444 23.0312 218.789 25.6863 218.789 28.9616C218.789 32.2368 221.444 34.8919 224.719 34.8919Z" fill="black"/>
<path d="M236.235 34.8919C239.51 34.8919 242.165 32.2368 242.165 28.9616C242.165 25.6863 239.51 23.0312 236.235 23.0312C232.96 23.0312 230.305 25.6863 230.305 28.9616C230.305 32.2368 232.96 34.8919 236.235 34.8919Z" fill="black"/>
<path d="M109.567 46.4075C112.842 46.4075 115.497 43.7524 115.497 40.4772C115.497 37.202 112.842 34.5469 109.567 34.5469C106.292 34.5469 103.637 37.202 103.637 40.4772C103.637 43.7524 106.292 46.4075 109.567 46.4075Z" fill="black"/>
<path d="M121.083 46.4075C124.358 46.4075 127.013 43.7524 127.013 40.4772C127.013 37.202 124.358 34.5469 121.083 34.5469C117.807 34.5469 115.152 37.202 115.152 40.4772C115.152 43.7524 117.807 46.4075 121.083 46.4075Z" fill="black"/>
<path d="M190.172 46.4075C193.448 46.4075 196.103 43.7524 196.103 40.4772C196.103 37.202 193.448 34.5469 190.172 34.5469C186.897 34.5469 184.242 37.202 184.242 40.4772C184.242 43.7524 186.897 46.4075 190.172 46.4075Z" fill="black"/>
<path d="M201.688 46.4075C204.963 46.4075 207.618 43.7524 207.618 40.4772C207.618 37.202 204.963 34.5469 201.688 34.5469C198.413 34.5469 195.758 37.202 195.758 40.4772C195.758 43.7524 198.413 46.4075 201.688 46.4075Z" fill="black"/>
<path d="M213.204 46.4075C216.479 46.4075 219.134 43.7524 219.134 40.4772C219.134 37.202 216.479 34.5469 213.204 34.5469C209.929 34.5469 207.273 37.202 207.273 40.4772C207.273 43.7524 209.929 46.4075 213.204 46.4075Z" fill="black"/>
<path d="M224.719 46.4075C227.995 46.4075 230.65 43.7524 230.65 40.4772C230.65 37.202 227.995 34.5469 224.719 34.5469C221.444 34.5469 218.789 37.202 218.789 40.4772C218.789 43.7524 221.444 46.4075 224.719 46.4075Z" fill="black"/>
<path d="M236.235 46.4075C239.51 46.4075 242.165 43.7524 242.165 40.4772C242.165 37.202 239.51 34.5469 236.235 34.5469C232.96 34.5469 230.305 37.202 230.305 40.4772C230.305 43.7524 232.96 46.4075 236.235 46.4075Z" fill="black"/>
<path d="M121.083 57.9231C124.358 57.9231 127.013 55.268 127.013 51.9928C127.013 48.7176 124.358 46.0625 121.083 46.0625C117.807 46.0625 115.152 48.7176 115.152 51.9928C115.152 55.268 117.807 57.9231 121.083 57.9231Z" fill="black"/>
<path d="M132.598 57.9231C135.873 57.9231 138.529 55.268 138.529 51.9928C138.529 48.7176 135.873 46.0625 132.598 46.0625C129.323 46.0625 126.668 48.7176 126.668 51.9928C126.668 55.268 129.323 57.9231 132.598 57.9231Z" fill="black"/>
<path d="M190.172 57.9231C193.448 57.9231 196.103 55.268 196.103 51.9928C196.103 48.7176 193.448 46.0625 190.172 46.0625C186.897 46.0625 184.242 48.7176 184.242 51.9928C184.242 55.268 186.897 57.9231 190.172 57.9231Z" fill="black"/>
<path d="M201.688 57.9231C204.963 57.9231 207.618 55.268 207.618 51.9928C207.618 48.7176 204.963 46.0625 201.688 46.0625C198.413 46.0625 195.758 48.7176 195.758 51.9928C195.758 55.268 198.413 57.9231 201.688 57.9231Z" fill="black"/>
<path d="M213.204 57.9231C216.479 57.9231 219.134 55.268 219.134 51.9928C219.134 48.7176 216.479 46.0625 213.204 46.0625C209.929 46.0625 207.273 48.7176 207.273 51.9928C207.273 55.268 209.929 57.9231 213.204 57.9231Z" fill="black"/>
<path d="M224.719 57.9231C227.995 57.9231 230.65 55.268 230.65 51.9928C230.65 48.7176 227.995 46.0625 224.719 46.0625C221.444 46.0625 218.789 48.7176 218.789 51.9928C218.789 55.268 221.444 57.9231 224.719 57.9231Z" fill="black"/>
<path d="M236.235 57.9231C239.51 57.9231 242.165 55.268 242.165 51.9928C242.165 48.7176 239.51 46.0625 236.235 46.0625C232.96 46.0625 230.305 48.7176 230.305 51.9928C230.305 55.268 232.96 57.9231 236.235 57.9231Z" fill="black"/>
<path d="M98.0514 69.4348C101.327 69.4348 103.982 66.7797 103.982 63.5045C103.982 60.2293 101.327 57.5742 98.0514 57.5742C94.7762 57.5742 92.1211 60.2293 92.1211 63.5045C92.1211 66.7797 94.7762 69.4348 98.0514 69.4348Z" fill="black"/>
<path d="M121.083 69.4348C124.358 69.4348 127.013 66.7797 127.013 63.5045C127.013 60.2293 124.358 57.5742 121.083 57.5742C117.807 57.5742 115.152 60.2293 115.152 63.5045C115.152 66.7797 117.807 69.4348 121.083 69.4348Z" fill="black"/>
<path d="M144.114 69.4348C147.389 69.4348 150.044 66.7797 150.044 63.5045C150.044 60.2293 147.389 57.5742 144.114 57.5742C140.839 57.5742 138.184 60.2293 138.184 63.5045C138.184 66.7797 140.839 69.4348 144.114 69.4348Z" fill="black"/>
<path d="M155.626 69.4348C158.901 69.4348 161.556 66.7797 161.556 63.5045C161.556 60.2293 158.901 57.5742 155.626 57.5742C152.35 57.5742 149.695 60.2293 149.695 63.5045C149.695 66.7797 152.35 69.4348 155.626 69.4348Z" fill="black"/>
<path d="M190.172 69.4348C193.448 69.4348 196.103 66.7797 196.103 63.5045C196.103 60.2293 193.448 57.5742 190.172 57.5742C186.897 57.5742 184.242 60.2293 184.242 63.5045C184.242 66.7797 186.897 69.4348 190.172 69.4348Z" fill="black"/>
<path d="M201.688 69.4348C204.963 69.4348 207.618 66.7797 207.618 63.5045C207.618 60.2293 204.963 57.5742 201.688 57.5742C198.413 57.5742 195.758 60.2293 195.758 63.5045C195.758 66.7797 198.413 69.4348 201.688 69.4348Z" fill="black"/>
<path d="M236.235 69.4348C239.51 69.4348 242.165 66.7797 242.165 63.5045C242.165 60.2293 239.51 57.5742 236.235 57.5742C232.96 57.5742 230.305 60.2293 230.305 63.5045C230.305 66.7797 232.96 69.4348 236.235 69.4348Z" fill="black"/>
<path d="M98.0514 80.9504C101.327 80.9504 103.982 78.2954 103.982 75.0201C103.982 71.7449 101.327 69.0898 98.0514 69.0898C94.7762 69.0898 92.1211 71.7449 92.1211 75.0201C92.1211 78.2954 94.7762 80.9504 98.0514 80.9504Z" fill="black"/>
<path d="M121.083 80.9504C124.358 80.9504 127.013 78.2954 127.013 75.0201C127.013 71.7449 124.358 69.0898 121.083 69.0898C117.807 69.0898 115.152 71.7449 115.152 75.0201C115.152 78.2954 117.807 80.9504 121.083 80.9504Z" fill="black"/>
<path d="M144.114 80.9504C147.389 80.9504 150.044 78.2954 150.044 75.0201C150.044 71.7449 147.389 69.0898 144.114 69.0898C140.839 69.0898 138.184 71.7449 138.184 75.0201C138.184 78.2954 140.839 80.9504 144.114 80.9504Z" fill="black"/>
<path d="M167.141 80.9504C170.416 80.9504 173.072 78.2954 173.072 75.0201C173.072 71.7449 170.416 69.0898 167.141 69.0898C163.866 69.0898 161.211 71.7449 161.211 75.0201C161.211 78.2954 163.866 80.9504 167.141 80.9504Z" fill="black"/>
<path d="M190.172 80.9504C193.448 80.9504 196.103 78.2954 196.103 75.0201C196.103 71.7449 193.448 69.0898 190.172 69.0898C186.897 69.0898 184.242 71.7449 184.242 75.0201C184.242 78.2954 186.897 80.9504 190.172 80.9504Z" fill="black"/>
<path d="M213.204 80.9504C216.479 80.9504 219.134 78.2954 219.134 75.0201C219.134 71.7449 216.479 69.0898 213.204 69.0898C209.929 69.0898 207.273 71.7449 207.273 75.0201C207.273 78.2954 209.929 80.9504 213.204 80.9504Z" fill="black"/>
<path d="M236.235 80.9504C239.51 80.9504 242.165 78.2954 242.165 75.0201C242.165 71.7449 239.51 69.0898 236.235 69.0898C232.96 69.0898 230.305 71.7449 230.305 75.0201C230.305 78.2954 232.96 80.9504 236.235 80.9504Z" fill="black"/>
<path d="M98.0514 92.4661C101.327 92.4661 103.982 89.811 103.982 86.5358C103.982 83.2606 101.327 80.6055 98.0514 80.6055C94.7762 80.6055 92.1211 83.2606 92.1211 86.5358C92.1211 89.811 94.7762 92.4661 98.0514 92.4661Z" fill="black"/>
<path d="M109.567 92.4661C112.842 92.4661 115.497 89.811 115.497 86.5358C115.497 83.2606 112.842 80.6055 109.567 80.6055C106.292 80.6055 103.637 83.2606 103.637 86.5358C103.637 89.811 106.292 92.4661 109.567 92.4661Z" fill="black"/>
<path d="M121.083 92.4661C124.358 92.4661 127.013 89.811 127.013 86.5358C127.013 83.2606 124.358 80.6055 121.083 80.6055C117.807 80.6055 115.152 83.2606 115.152 86.5358C115.152 89.811 117.807 92.4661 121.083 92.4661Z" fill="black"/>
<path d="M144.114 92.4661C147.389 92.4661 150.044 89.811 150.044 86.5358C150.044 83.2606 147.389 80.6055 144.114 80.6055C140.839 80.6055 138.184 83.2606 138.184 86.5358C138.184 89.811 140.839 92.4661 144.114 92.4661Z" fill="black"/>
<path d="M155.626 92.4661C158.901 92.4661 161.556 89.811 161.556 86.5358C161.556 83.2606 158.901 80.6055 155.626 80.6055C152.35 80.6055 149.695 83.2606 149.695 86.5358C149.695 89.811 152.35 92.4661 155.626 92.4661Z" fill="black"/>
<path d="M167.141 92.4661C170.416 92.4661 173.072 89.811 173.072 86.5358C173.072 83.2606 170.416 80.6055 167.141 80.6055C163.866 80.6055 161.211 83.2606 161.211 86.5358C161.211 89.811 163.866 92.4661 167.141 92.4661Z" fill="black"/>
<path d="M201.688 92.4661C204.963 92.4661 207.618 89.811 207.618 86.5358C207.618 83.2606 204.963 80.6055 201.688 80.6055C198.413 80.6055 195.758 83.2606 195.758 86.5358C195.758 89.811 198.413 92.4661 201.688 92.4661Z" fill="black"/>
<path d="M213.204 92.4661C216.479 92.4661 219.134 89.811 219.134 86.5358C219.134 83.2606 216.479 80.6055 213.204 80.6055C209.929 80.6055 207.273 83.2606 207.273 86.5358C207.273 89.811 209.929 92.4661 213.204 92.4661Z" fill="black"/>
<path d="M224.719 92.4661C227.995 92.4661 230.65 89.811 230.65 86.5358C230.65 83.2606 227.995 80.6055 224.719 80.6055C221.444 80.6055 218.789 83.2606 218.789 86.5358C218.789 89.811 221.444 92.4661 224.719 92.4661Z" fill="black"/>
<path d="M236.235 92.4661C239.51 92.4661 242.165 89.811 242.165 86.5358C242.165 83.2606 239.51 80.6055 236.235 80.6055C232.96 80.6055 230.305 83.2606 230.305 86.5358C230.305 89.811 232.96 92.4661 236.235 92.4661Z" fill="black"/>
<path d="M28.9616 103.982C32.2368 103.982 34.8919 101.327 34.8919 98.0514C34.8919 94.7762 32.2368 92.1211 28.9616 92.1211C25.6863 92.1211 23.0312 94.7762 23.0312 98.0514C23.0312 101.327 25.6863 103.982 28.9616 103.982Z" fill="black"/>
<path d="M40.4772 103.982C43.7524 103.982 46.4075 101.327 46.4075 98.0514C46.4075 94.7762 43.7524 92.1211 40.4772 92.1211C37.202 92.1211 34.5469 94.7762 34.5469 98.0514C34.5469 101.327 37.202 103.982 40.4772 103.982Z" fill="black"/>
<path d="M51.9928 103.982C55.268 103.982 57.9231 101.327 57.9231 98.0514C57.9231 94.7762 55.268 92.1211 51.9928 92.1211C48.7176 92.1211 46.0625 94.7762 46.0625 98.0514C46.0625 101.327 48.7176 103.982 51.9928 103.982Z" fill="black"/>
<path d="M75.0201 103.982C78.2954 103.982 80.9505 101.327 80.9505 98.0514C80.9505 94.7762 78.2954 92.1211 75.0201 92.1211C71.7449 92.1211 69.0898 94.7762 69.0898 98.0514C69.0898 101.327 71.7449 103.982 75.0201 103.982Z" fill="black"/>
<path d="M98.0514 103.982C101.327 103.982 103.982 101.327 103.982 98.0514C103.982 94.7762 101.327 92.1211 98.0514 92.1211C94.7762 92.1211 92.1211 94.7762 92.1211 98.0514C92.1211 101.327 94.7762 103.982 98.0514 103.982Z" fill="black"/>
<path d="M121.083 103.982C124.358 103.982 127.013 101.327 127.013 98.0514C127.013 94.7762 124.358 92.1211 121.083 92.1211C117.807 92.1211 115.152 94.7762 115.152 98.0514C115.152 101.327 117.807 103.982 121.083 103.982Z" fill="black"/>
<path d="M132.598 103.982C135.873 103.982 138.529 101.327 138.529 98.0514C138.529 94.7762 135.873 92.1211 132.598 92.1211C129.323 92.1211 126.668 94.7762 126.668 98.0514C126.668 101.327 129.323 103.982 132.598 103.982Z" fill="black"/>
<path d="M167.141 103.982C170.416 103.982 173.072 101.327 173.072 98.0514C173.072 94.7762 170.416 92.1211 167.141 92.1211C163.866 92.1211 161.211 94.7762 161.211 98.0514C161.211 101.327 163.866 103.982 167.141 103.982Z" fill="black"/>
<path d="M190.172 103.982C193.448 103.982 196.103 101.327 196.103 98.0514C196.103 94.7762 193.448 92.1211 190.172 92.1211C186.897 92.1211 184.242 94.7762 184.242 98.0514C184.242 101.327 186.897 103.982 190.172 103.982Z" fill="black"/>
<path d="M247.747 103.982C251.022 103.982 253.677 101.327 253.677 98.0514C253.677 94.7762 251.022 92.1211 247.747 92.1211C244.471 92.1211 241.816 94.7762 241.816 98.0514C241.816 101.327 244.471 103.982 247.747 103.982Z" fill="black"/>
<path d="M259.262 103.982C262.538 103.982 265.193 101.327 265.193 98.0514C265.193 94.7762 262.538 92.1211 259.262 92.1211C255.987 92.1211 253.332 94.7762 253.332 98.0514C253.332 101.327 255.987 103.982 259.262 103.982Z" fill="black"/>
<path d="M270.778 103.982C274.053 103.982 276.708 101.327 276.708 98.0514C276.708 94.7762 274.053 92.1211 270.778 92.1211C267.503 92.1211 264.848 94.7762 264.848 98.0514C264.848 101.327 267.503 103.982 270.778 103.982Z" fill="black"/>
<path d="M305.325 103.982C308.6 103.982 311.255 101.327 311.255 98.0514C311.255 94.7762 308.6 92.1211 305.325 92.1211C302.05 92.1211 299.395 94.7762 299.395 98.0514C299.395 101.327 302.05 103.982 305.325 103.982Z" fill="black"/>
<path d="M316.84 103.982C320.116 103.982 322.771 101.327 322.771 98.0514C322.771 94.7762 320.116 92.1211 316.84 92.1211C313.565 92.1211 310.91 94.7762 310.91 98.0514C310.91 101.327 313.565 103.982 316.84 103.982Z" fill="black"/>
<path d="M328.356 103.982C331.631 103.982 334.286 101.327 334.286 98.0514C334.286 94.7762 331.631 92.1211 328.356 92.1211C325.081 92.1211 322.426 94.7762 322.426 98.0514C322.426 101.327 325.081 103.982 328.356 103.982Z" fill="black"/>
<path d="M17.4459 115.497C20.7211 115.497 23.3762 112.842 23.3762 109.567C23.3762 106.292 20.7211 103.637 17.4459 103.637C14.1707 103.637 11.5156 106.292 11.5156 109.567C11.5156 112.842 14.1707 115.497 17.4459 115.497Z" fill="black"/>
<path d="M28.9616 115.497C32.2368 115.497 34.8919 112.842 34.8919 109.567C34.8919 106.292 32.2368 103.637 28.9616 103.637C25.6863 103.637 23.0312 106.292 23.0312 109.567C23.0312 112.842 25.6863 115.497 28.9616 115.497Z" fill="black"/>
<path d="M51.9928 115.497C55.268 115.497 57.9231 112.842 57.9231 109.567C57.9231 106.292 55.268 103.637 51.9928 103.637C48.7176 103.637 46.0625 106.292 46.0625 109.567C46.0625 112.842 48.7176 115.497 51.9928 115.497Z" fill="black"/>
<path d="M86.5358 115.497C89.811 115.497 92.4661 112.842 92.4661 109.567C92.4661 106.292 89.811 103.637 86.5358 103.637C83.2606 103.637 80.6055 106.292 80.6055 109.567C80.6055 112.842 83.2606 115.497 86.5358 115.497Z" fill="black"/>
<path d="M98.0514 115.497C101.327 115.497 103.982 112.842 103.982 109.567C103.982 106.292 101.327 103.637 98.0514 103.637C94.7762 103.637 92.1211 106.292 92.1211 109.567C92.1211 112.842 94.7762 115.497 98.0514 115.497Z" fill="black"/>
<path d="M109.567 115.497C112.842 115.497 115.497 112.842 115.497 109.567C115.497 106.292 112.842 103.637 109.567 103.637C106.292 103.637 103.637 106.292 103.637 109.567C103.637 112.842 106.292 115.497 109.567 115.497Z" fill="black"/>
<path d="M132.598 115.497C135.873 115.497 138.529 112.842 138.529 109.567C138.529 106.292 135.873 103.637 132.598 103.637C129.323 103.637 126.668 106.292 126.668 109.567C126.668 112.842 129.323 115.497 132.598 115.497Z" fill="black"/>
<path d="M144.114 115.497C147.389 115.497 150.044 112.842 150.044 109.567C150.044 106.292 147.389 103.637 144.114 103.637C140.839 103.637 138.184 106.292 138.184 109.567C138.184 112.842 140.839 115.497 144.114 115.497Z" fill="black"/>
<path d="M155.626 115.497C158.901 115.497 161.556 112.842 161.556 109.567C161.556 106.292 158.901 103.637 155.626 103.637C152.35 103.637 149.695 106.292 149.695 109.567C149.695 112.842 152.35 115.497 155.626 115.497Z" fill="black"/>
<path d="M167.141 115.497C170.416 115.497 173.072 112.842 173.072 109.567C173.072 106.292 170.416 103.637 167.141 103.637C163.866 103.637 161.211 106.292 161.211 109.567C161.211 112.842 163.866 115.497 167.141 115.497Z" fill="black"/>
<path d="M213.204 115.497C216.479 115.497 219.134 112.842 219.134 109.567C219.134 106.292 216.479 103.637 213.204 103.637C209.929 103.637 207.273 106.292 207.273 109.567C207.273 112.842 209.929 115.497 213.204 115.497Z" fill="black"/>
<path d="M224.719 115.497C227.995 115.497 230.65 112.842 230.65 109.567C230.65 106.292 227.995 103.637 224.719 103.637C221.444 103.637 218.789 106.292 218.789 109.567C218.789 112.842 221.444 115.497 224.719 115.497Z" fill="black"/>
<path d="M247.747 115.497C251.022 115.497 253.677 112.842 253.677 109.567C253.677 106.292 251.022 103.637 247.747 103.637C244.471 103.637 241.816 106.292 241.816 109.567C241.816 112.842 244.471 115.497 247.747 115.497Z" fill="black"/>
<path d="M259.262 115.497C262.538 115.497 265.193 112.842 265.193 109.567C265.193 106.292 262.538 103.637 259.262 103.637C255.987 103.637 253.332 106.292 253.332 109.567C253.332 112.842 255.987 115.497 259.262 115.497Z" fill="black"/>
<path d="M282.294 115.497C285.569 115.497 288.224 112.842 288.224 109.567C288.224 106.292 285.569 103.637 282.294 103.637C279.018 103.637 276.363 106.292 276.363 109.567C276.363 112.842 279.018 115.497 282.294 115.497Z" fill="black"/>
<path d="M293.809 115.497C297.084 115.497 299.74 112.842 299.74 109.567C299.74 106.292 297.084 103.637 293.809 103.637C290.534 103.637 287.879 106.292 287.879 109.567C287.879 112.842 290.534 115.497 293.809 115.497Z" fill="black"/>
<path d="M305.325 115.497C308.6 115.497 311.255 112.842 311.255 109.567C311.255 106.292 308.6 103.637 305.325 103.637C302.05 103.637 299.395 106.292 299.395 109.567C299.395 112.842 302.05 115.497 305.325 115.497Z" fill="black"/>
<path d="M328.356 115.497C331.631 115.497 334.286 112.842 334.286 109.567C334.286 106.292 331.631 103.637 328.356 103.637C325.081 103.637 322.426 106.292 322.426 109.567C322.426 112.842 325.081 115.497 328.356 115.497Z" fill="black"/>
<path d="M5.9303 127.013C9.20552 127.013 11.8606 124.358 11.8606 121.083C11.8606 117.807 9.20552 115.152 5.9303 115.152C2.65509 115.152 0 117.807 0 121.083C0 124.358 2.65509 127.013 5.9303 127.013Z" fill="black"/>
<path d="M17.4459 127.013C20.7211 127.013 23.3762 124.358 23.3762 121.083C23.3762 117.807 20.7211 115.152 17.4459 115.152C14.1707 115.152 11.5156 117.807 11.5156 121.083C11.5156 124.358 14.1707 127.013 17.4459 127.013Z" fill="black"/>
<path d="M28.9616 127.013C32.2368 127.013 34.8919 124.358 34.8919 121.083C34.8919 117.807 32.2368 115.152 28.9616 115.152C25.6863 115.152 23.0312 117.807 23.0312 121.083C23.0312 124.358 25.6863 127.013 28.9616 127.013Z" fill="black"/>
<path d="M40.4772 127.013C43.7524 127.013 46.4075 124.358 46.4075 121.083C46.4075 117.807 43.7524 115.152 40.4772 115.152C37.202 115.152 34.5469 117.807 34.5469 121.083C34.5469 124.358 37.202 127.013 40.4772 127.013Z" fill="black"/>
<path d="M51.9928 127.013C55.268 127.013 57.9231 124.358 57.9231 121.083C57.9231 117.807 55.268 115.152 51.9928 115.152C48.7176 115.152 46.0625 117.807 46.0625 121.083C46.0625 124.358 48.7176 127.013 51.9928 127.013Z" fill="black"/>
<path d="M75.0201 127.013C78.2954 127.013 80.9505 124.358 80.9505 121.083C80.9505 117.807 78.2954 115.152 75.0201 115.152C71.7449 115.152 69.0898 117.807 69.0898 121.083C69.0898 124.358 71.7449 127.013 75.0201 127.013Z" fill="black"/>
<path d="M86.5358 127.013C89.811 127.013 92.4661 124.358 92.4661 121.083C92.4661 117.807 89.811 115.152 86.5358 115.152C83.2606 115.152 80.6055 117.807 80.6055 121.083C80.6055 124.358 83.2606 127.013 86.5358 127.013Z" fill="black"/>
<path d="M121.083 127.013C124.358 127.013 127.013 124.358 127.013 121.083C127.013 117.807 124.358 115.152 121.083 115.152C117.807 115.152 115.152 117.807 115.152 121.083C115.152 124.358 117.807 127.013 121.083 127.013Z" fill="black"/>
<path d="M155.626 127.013C158.901 127.013 161.556 124.358 161.556 121.083C161.556 117.807 158.901 115.152 155.626 115.152C152.35 115.152 149.695 117.807 149.695 121.083C149.695 124.358 152.35 127.013 155.626 127.013Z" fill="black"/>
<path d="M167.141 127.013C170.416 127.013 173.072 124.358 173.072 121.083C173.072 117.807 170.416 115.152 167.141 115.152C163.866 115.152 161.211 117.807 161.211 121.083C161.211 124.358 163.866 127.013 167.141 127.013Z" fill="black"/>
<path d="M178.657 127.013C181.932 127.013 184.587 124.358 184.587 121.083C184.587 117.807 181.932 115.152 178.657 115.152C175.382 115.152 172.727 117.807 172.727 121.083C172.727 124.358 175.382 127.013 178.657 127.013Z" fill="black"/>
<path d="M236.235 127.013C239.51 127.013 242.165 124.358 242.165 121.083C242.165 117.807 239.51 115.152 236.235 115.152C232.96 115.152 230.305 117.807 230.305 121.083C230.305 124.358 232.96 127.013 236.235 127.013Z" fill="black"/>
<path d="M247.747 127.013C251.022 127.013 253.677 124.358 253.677 121.083C253.677 117.807 251.022 115.152 247.747 115.152C244.471 115.152 241.816 117.807 241.816 121.083C241.816 124.358 244.471 127.013 247.747 127.013Z" fill="black"/>
<path d="M259.262 127.013C262.538 127.013 265.193 124.358 265.193 121.083C265.193 117.807 262.538 115.152 259.262 115.152C255.987 115.152 253.332 117.807 253.332 121.083C253.332 124.358 255.987 127.013 259.262 127.013Z" fill="black"/>
<path d="M270.778 127.013C274.053 127.013 276.708 124.358 276.708 121.083C276.708 117.807 274.053 115.152 270.778 115.152C267.503 115.152 264.848 117.807 264.848 121.083C264.848 124.358 267.503 127.013 270.778 127.013Z" fill="black"/>
<path d="M282.294 127.013C285.569 127.013 288.224 124.358 288.224 121.083C288.224 117.807 285.569 115.152 282.294 115.152C279.018 115.152 276.363 117.807 276.363 121.083C276.363 124.358 279.018 127.013 282.294 127.013Z" fill="black"/>
<path d="M293.809 127.013C297.084 127.013 299.74 124.358 299.74 121.083C299.74 117.807 297.084 115.152 293.809 115.152C290.534 115.152 287.879 117.807 287.879 121.083C287.879 124.358 290.534 127.013 293.809 127.013Z" fill="black"/>
<path d="M305.325 127.013C308.6 127.013 311.255 124.358 311.255 121.083C311.255 117.807 308.6 115.152 305.325 115.152C302.05 115.152 299.395 117.807 299.395 121.083C299.395 124.358 302.05 127.013 305.325 127.013Z" fill="black"/>
<path d="M5.9303 138.529C9.20552 138.529 11.8606 135.873 11.8606 132.598C11.8606 129.323 9.20552 126.668 5.9303 126.668C2.65509 126.668 0 129.323 0 132.598C0 135.873 2.65509 138.529 5.9303 138.529Z" fill="black"/>
<path d="M17.4459 138.529C20.7211 138.529 23.3762 135.873 23.3762 132.598C23.3762 129.323 20.7211 126.668 17.4459 126.668C14.1707 126.668 11.5156 129.323 11.5156 132.598C11.5156 135.873 14.1707 138.529 17.4459 138.529Z" fill="black"/>
<path d="M28.9616 138.529C32.2368 138.529 34.8919 135.873 34.8919 132.598C34.8919 129.323 32.2368 126.668 28.9616 126.668C25.6863 126.668 23.0312 129.323 23.0312 132.598C23.0312 135.873 25.6863 138.529 28.9616 138.529Z" fill="black"/>
<path d="M86.5358 138.529C89.811 138.529 92.4661 135.873 92.4661 132.598C92.4661 129.323 89.811 126.668 86.5358 126.668C83.2606 126.668 80.6055 129.323 80.6055 132.598C80.6055 135.873 83.2606 138.529 86.5358 138.529Z" fill="black"/>
<path d="M98.0514 138.529C101.327 138.529 103.982 135.873 103.982 132.598C103.982 129.323 101.327 126.668 98.0514 126.668C94.7762 126.668 92.1211 129.323 92.1211 132.598C92.1211 135.873 94.7762 138.529 98.0514 138.529Z" fill="black"/>
<path d="M121.083 138.529C124.358 138.529 127.013 135.873 127.013 132.598C127.013 129.323 124.358 126.668 121.083 126.668C117.807 126.668 115.152 129.323 115.152 132.598C115.152 135.873 117.807 138.529 121.083 138.529Z" fill="black"/>
<path d="M178.657 138.529C181.932 138.529 184.587 135.873 184.587 132.598C184.587 129.323 181.932 126.668 178.657 126.668C175.382 126.668 172.727 129.323 172.727 132.598C172.727 135.873 175.382 138.529 178.657 138.529Z" fill="black"/>
<path d="M190.172 138.529C193.448 138.529 196.103 135.873 196.103 132.598C196.103 129.323 193.448 126.668 190.172 126.668C186.897 126.668 184.242 129.323 184.242 132.598C184.242 135.873 186.897 138.529 190.172 138.529Z" fill="black"/>
<path d="M236.235 138.529C239.51 138.529 242.165 135.873 242.165 132.598C242.165 129.323 239.51 126.668 236.235 126.668C232.96 126.668 230.305 129.323 230.305 132.598C230.305 135.873 232.96 138.529 236.235 138.529Z" fill="black"/>
<path d="M247.747 138.529C251.022 138.529 253.677 135.873 253.677 132.598C253.677 129.323 251.022 126.668 247.747 126.668C244.471 126.668 241.816 129.323 241.816 132.598C241.816 135.873 244.471 138.529 247.747 138.529Z" fill="black"/>
<path d="M259.262 138.529C262.538 138.529 265.193 135.873 265.193 132.598C265.193 129.323 262.538 126.668 259.262 126.668C255.987 126.668 253.332 129.323 253.332 132.598C253.332 135.873 255.987 138.529 259.262 138.529Z" fill="black"/>
<path d="M270.778 138.529C274.053 138.529 276.708 135.873 276.708 132.598C276.708 129.323 274.053 126.668 270.778 126.668C267.503 126.668 264.848 129.323 264.848 132.598C264.848 135.873 267.503 138.529 270.778 138.529Z" fill="black"/>
<path d="M282.294 138.529C285.569 138.529 288.224 135.873 288.224 132.598C288.224 129.323 285.569 126.668 282.294 126.668C279.018 126.668 276.363 129.323 276.363 132.598C276.363 135.873 279.018 138.529 282.294 138.529Z" fill="black"/>
<path d="M293.809 138.529C297.084 138.529 299.74 135.873 299.74 132.598C299.74 129.323 297.084 126.668 293.809 126.668C290.534 126.668 287.879 129.323 287.879 132.598C287.879 135.873 290.534 138.529 293.809 138.529Z" fill="black"/>
<path d="M316.84 138.529C320.116 138.529 322.771 135.873 322.771 132.598C322.771 129.323 320.116 126.668 316.84 126.668C313.565 126.668 310.91 129.323 310.91 132.598C310.91 135.873 313.565 138.529 316.84 138.529Z" fill="black"/>
<path d="M28.9616 150.044C32.2368 150.044 34.8919 147.389 34.8919 144.114C34.8919 140.839 32.2368 138.184 28.9616 138.184C25.6863 138.184 23.0312 140.839 23.0312 144.114C23.0312 147.389 25.6863 150.044 28.9616 150.044Z" fill="black"/>
<path d="M51.9928 150.044C55.268 150.044 57.9231 147.389 57.9231 144.114C57.9231 140.839 55.268 138.184 51.9928 138.184C48.7176 138.184 46.0625 140.839 46.0625 144.114C46.0625 147.389 48.7176 150.044 51.9928 150.044Z" fill="black"/>
<path d="M75.0201 150.044C78.2954 150.044 80.9505 147.389 80.9505 144.114C80.9505 140.839 78.2954 138.184 75.0201 138.184C71.7449 138.184 69.0898 140.839 69.0898 144.114C69.0898 147.389 71.7449 150.044 75.0201 150.044Z" fill="black"/>
<path d="M98.0514 150.044C101.327 150.044 103.982 147.389 103.982 144.114C103.982 140.839 101.327 138.184 98.0514 138.184C94.7762 138.184 92.1211 140.839 92.1211 144.114C92.1211 147.389 94.7762 150.044 98.0514 150.044Z" fill="black"/>
<path d="M132.598 150.044C135.873 150.044 138.529 147.389 138.529 144.114C138.529 140.839 135.873 138.184 132.598 138.184C129.323 138.184 126.668 140.839 126.668 144.114C126.668 147.389 129.323 150.044 132.598 150.044Z" fill="black"/>
<path d="M144.114 150.044C147.389 150.044 150.044 147.389 150.044 144.114C150.044 140.839 147.389 138.184 144.114 138.184C140.839 138.184 138.184 140.839 138.184 144.114C138.184 147.389 140.839 150.044 144.114 150.044Z" fill="black"/>
<path d="M178.657 150.044C181.932 150.044 184.587 147.389 184.587 144.114C184.587 140.839 181.932 138.184 178.657 138.184C175.382 138.184 172.727 140.839 172.727 144.114C172.727 147.389 175.382 150.044 178.657 150.044Z" fill="black"/>
<path d="M190.172 150.044C193.448 150.044 196.103 147.389 196.103 144.114C196.103 140.839 193.448 138.184 190.172 138.184C186.897 138.184 184.242 140.839 184.242 144.114C184.242 147.389 186.897 150.044 190.172 150.044Z" fill="black"/>
<path d="M224.719 150.044C227.995 150.044 230.65 147.389 230.65 144.114C230.65 140.839 227.995 138.184 224.719 138.184C221.444 138.184 218.789 140.839 218.789 144.114C218.789 147.389 221.444 150.044 224.719 150.044Z" fill="black"/>
<path d="M236.235 150.044C239.51 150.044 242.165 147.389 242.165 144.114C242.165 140.839 239.51 138.184 236.235 138.184C232.96 138.184 230.305 140.839 230.305 144.114C230.305 147.389 232.96 150.044 236.235 150.044Z" fill="black"/>
<path d="M247.747 150.044C251.022 150.044 253.677 147.389 253.677 144.114C253.677 140.839 251.022 138.184 247.747 138.184C244.471 138.184 241.816 140.839 241.816 144.114C241.816 147.389 244.471 150.044 247.747 150.044Z" fill="black"/>
<path d="M270.778 150.044C274.053 150.044 276.708 147.389 276.708 144.114C276.708 140.839 274.053 138.184 270.778 138.184C267.503 138.184 264.848 140.839 264.848 144.114C264.848 147.389 267.503 150.044 270.778 150.044Z" fill="black"/>
<path d="M305.325 150.044C308.6 150.044 311.255 147.389 311.255 144.114C311.255 140.839 308.6 138.184 305.325 138.184C302.05 138.184 299.395 140.839 299.395 144.114C299.395 147.389 302.05 150.044 305.325 150.044Z" fill="black"/>
<path d="M316.84 150.044C320.116 150.044 322.771 147.389 322.771 144.114C322.771 140.839 320.116 138.184 316.84 138.184C313.565 138.184 310.91 140.839 310.91 144.114C310.91 147.389 313.565 150.044 316.84 150.044Z" fill="black"/>
<path d="M328.356 150.044C331.631 150.044 334.286 147.389 334.286 144.114C334.286 140.839 331.631 138.184 328.356 138.184C325.081 138.184 322.426 140.839 322.426 144.114C322.426 147.389 325.081 150.044 328.356 150.044Z" fill="black"/>
<path d="M5.9303 161.556C9.20552 161.556 11.8606 158.901 11.8606 155.626C11.8606 152.35 9.20552 149.695 5.9303 149.695C2.65509 149.695 0 152.35 0 155.626C0 158.901 2.65509 161.556 5.9303 161.556Z" fill="black"/>
<path d="M17.4459 161.556C20.7211 161.556 23.3762 158.901 23.3762 155.626C23.3762 152.35 20.7211 149.695 17.4459 149.695C14.1707 149.695 11.5156 152.35 11.5156 155.626C11.5156 158.901 14.1707 161.556 17.4459 161.556Z" fill="black"/>
<path d="M63.5045 161.556C66.7797 161.556 69.4348 158.901 69.4348 155.626C69.4348 152.35 66.7797 149.695 63.5045 149.695C60.2293 149.695 57.5742 152.35 57.5742 155.626C57.5742 158.901 60.2293 161.556 63.5045 161.556Z" fill="black"/>
<path d="M86.5358 161.556C89.811 161.556 92.4661 158.901 92.4661 155.626C92.4661 152.35 89.811 149.695 86.5358 149.695C83.2606 149.695 80.6055 152.35 80.6055 155.626C80.6055 158.901 83.2606 161.556 86.5358 161.556Z" fill="black"/>
<path d="M98.0514 161.556C101.327 161.556 103.982 158.901 103.982 155.626C103.982 152.35 101.327 149.695 98.0514 149.695C94.7762 149.695 92.1211 152.35 92.1211 155.626C92.1211 158.901 94.7762 161.556 98.0514 161.556Z" fill="black"/>
<path d="M109.567 161.556C112.842 161.556 115.497 158.901 115.497 155.626C115.497 152.35 112.842 149.695 109.567 149.695C106.292 149.695 103.637 152.35 103.637 155.626C103.637 158.901 106.292 161.556 109.567 161.556Z" fill="black"/>
<path d="M155.626 161.556C158.901 161.556 161.556 158.901 161.556 155.626C161.556 152.35 158.901 149.695 155.626 149.695C152.35 149.695 149.695 152.35 149.695 155.626C149.695 158.901 152.35 161.556 155.626 161.556Z" fill="black"/>
<path d="M167.141 161.556C170.416 161.556 173.072 158.901 173.072 155.626C173.072 152.35 170.416 149.695 167.141 149.695C163.866 149.695 161.211 152.35 161.211 155.626C161.211 158.901 163.866 161.556 167.141 161.556Z" fill="black"/>
<path d="M213.204 161.556C216.479 161.556 219.134 158.901 219.134 155.626C219.134 152.35 216.479 149.695 213.204 149.695C209.929 149.695 207.273 152.35 207.273 155.626C207.273 158.901 209.929 161.556 213.204 161.556Z" fill="black"/>
<path d="M224.719 161.556C227.995 161.556 230.65 158.901 230.65 155.626C230.65 152.35 227.995 149.695 224.719 149.695C221.444 149.695 218.789 152.35 218.789 155.626C218.789 158.901 221.444 161.556 224.719 161.556Z" fill="black"/>
<path d="M236.235 161.556C239.51 161.556 242.165 158.901 242.165 155.626C242.165 152.35 239.51 149.695 236.235 149.695C232.96 149.695 230.305 152.35 230.305 155.626C230.305 158.901 232.96 161.556 236.235 161.556Z" fill="black"/>
<path d="M247.747 161.556C251.022 161.556 253.677 158.901 253.677 155.626C253.677 152.35 251.022 149.695 247.747 149.695C244.471 149.695 241.816 152.35 241.816 155.626C241.816 158.901 244.471 161.556 247.747 161.556Z" fill="black"/>
<path d="M259.262 161.556C262.538 161.556 265.193 158.901 265.193 155.626C265.193 152.35 262.538 149.695 259.262 149.695C255.987 149.695 253.332 152.35 253.332 155.626C253.332 158.901 255.987 161.556 259.262 161.556Z" fill="black"/>
<path d="M282.294 161.556C285.569 161.556 288.224 158.901 288.224 155.626C288.224 152.35 285.569 149.695 282.294 149.695C279.018 149.695 276.363 152.35 276.363 155.626C276.363 158.901 279.018 161.556 282.294 161.556Z" fill="black"/>
<path d="M293.809 161.556C297.084 161.556 299.74 158.901 299.74 155.626C299.74 152.35 297.084 149.695 293.809 149.695C290.534 149.695 287.879 152.35 287.879 155.626C287.879 158.901 290.534 161.556 293.809 161.556Z" fill="black"/>
<path d="M316.84 161.556C320.116 161.556 322.771 158.901 322.771 155.626C322.771 152.35 320.116 149.695 316.84 149.695C313.565 149.695 310.91 152.35 310.91 155.626C310.91 158.901 313.565 161.556 316.84 161.556Z" fill="black"/>
<path d="M328.356 161.556C331.631 161.556 334.286 158.901 334.286 155.626C334.286 152.35 331.631 149.695 328.356 149.695C325.081 149.695 322.426 152.35 322.426 155.626C322.426 158.901 325.081 161.556 328.356 161.556Z" fill="black"/>
<path d="M17.4459 173.072C20.7211 173.072 23.3762 170.416 23.3762 167.141C23.3762 163.866 20.7211 161.211 17.4459 161.211C14.1707 161.211 11.5156 163.866 11.5156 167.141C11.5156 170.416 14.1707 173.072 17.4459 173.072Z" fill="black"/>
<path d="M40.4772 173.072C43.7524 173.072 46.4075 170.416 46.4075 167.141C46.4075 163.866 43.7524 161.211 40.4772 161.211C37.202 161.211 34.5469 163.866 34.5469 167.141C34.5469 170.416 37.202 173.072 40.4772 173.072Z" fill="black"/>
<path d="M51.9928 173.072C55.268 173.072 57.9231 170.416 57.9231 167.141C57.9231 163.866 55.268 161.211 51.9928 161.211C48.7176 161.211 46.0625 163.866 46.0625 167.141C46.0625 170.416 48.7176 173.072 51.9928 173.072Z" fill="black"/>
<path d="M63.5045 173.072C66.7797 173.072 69.4348 170.416 69.4348 167.141C69.4348 163.866 66.7797 161.211 63.5045 161.211C60.2293 161.211 57.5742 163.866 57.5742 167.141C57.5742 170.416 60.2293 173.072 63.5045 173.072Z" fill="black"/>
<path d="M75.0201 173.072C78.2954 173.072 80.9505 170.416 80.9505 167.141C80.9505 163.866 78.2954 161.211 75.0201 161.211C71.7449 161.211 69.0898 163.866 69.0898 167.141C69.0898 170.416 71.7449 173.072 75.0201 173.072Z" fill="black"/>
<path d="M98.0514 173.072C101.327 173.072 103.982 170.416 103.982 167.141C103.982 163.866 101.327 161.211 98.0514 161.211C94.7762 161.211 92.1211 163.866 92.1211 167.141C92.1211 170.416 94.7762 173.072 98.0514 173.072Z" fill="black"/>
<path d="M121.083 173.072C124.358 173.072 127.013 170.416 127.013 167.141C127.013 163.866 124.358 161.211 121.083 161.211C117.807 161.211 115.152 163.866 115.152 167.141C115.152 170.416 117.807 173.072 121.083 173.072Z" fill="black"/>
<path d="M132.598 173.072C135.873 173.072 138.529 170.416 138.529 167.141C138.529 163.866 135.873 161.211 132.598 161.211C129.323 161.211 126.668 163.866 126.668 167.141C126.668 170.416 129.323 173.072 132.598 173.072Z" fill="black"/>
<path d="M155.626 173.072C158.901 173.072 161.556 170.416 161.556 167.141C161.556 163.866 158.901 161.211 155.626 161.211C152.35 161.211 149.695 163.866 149.695 167.141C149.695 170.416 152.35 173.072 155.626 173.072Z" fill="black"/>
<path d="M167.141 173.072C170.416 173.072 173.072 170.416 173.072 167.141C173.072 163.866 170.416 161.211 167.141 161.211C163.866 161.211 161.211 163.866 161.211 167.141C161.211 170.416 163.866 173.072 167.141 173.072Z" fill="black"/>
<path d="M178.657 173.072C181.932 173.072 184.587 170.416 184.587 167.141C184.587 163.866 181.932 161.211 178.657 161.211C175.382 161.211 172.727 163.866 172.727 167.141C172.727 170.416 175.382 173.072 178.657 173.072Z" fill="black"/>
<path d="M236.235 173.072C239.51 173.072 242.165 170.416 242.165 167.141C242.165 163.866 239.51 161.211 236.235 161.211C232.96 161.211 230.305 163.866 230.305 167.141C230.305 170.416 232.96 173.072 236.235 173.072Z" fill="black"/>
<path d="M259.262 173.072C262.538 173.072 265.193 170.416 265.193 167.141C265.193 163.866 262.538 161.211 259.262 161.211C255.987 161.211 253.332 163.866 253.332 167.141C253.332 170.416 255.987 173.072 259.262 173.072Z" fill="black"/>
<path d="M270.778 173.072C274.053 173.072 276.708 170.416 276.708 167.141C276.708 163.866 274.053 161.211 270.778 161.211C267.503 161.211 264.848 163.866 264.848 167.141C264.848 170.416 267.503 173.072 270.778 173.072Z" fill="black"/>
<path d="M5.9303 184.587C9.20552 184.587 11.8606 181.932 11.8606 178.657C11.8606 175.382 9.20552 172.727 5.9303 172.727C2.65509 172.727 0 175.382 0 178.657C0 181.932 2.65509 184.587 5.9303 184.587Z" fill="black"/>
<path d="M63.5045 184.587C66.7797 184.587 69.4348 181.932 69.4348 178.657C69.4348 175.382 66.7797 172.727 63.5045 172.727C60.2293 172.727 57.5742 175.382 57.5742 178.657C57.5742 181.932 60.2293 184.587 63.5045 184.587Z" fill="black"/>
<path d="M121.083 184.587C124.358 184.587 127.013 181.932 127.013 178.657C127.013 175.382 124.358 172.727 121.083 172.727C117.807 172.727 115.152 175.382 115.152 178.657C115.152 181.932 117.807 184.587 121.083 184.587Z" fill="black"/>
<path d="M132.598 184.587C135.873 184.587 138.529 181.932 138.529 178.657C138.529 175.382 135.873 172.727 132.598 172.727C129.323 172.727 126.668 175.382 126.668 178.657C126.668 181.932 129.323 184.587 132.598 184.587Z" fill="black"/>
<path d="M201.688 184.587C204.963 184.587 207.618 181.932 207.618 178.657C207.618 175.382 204.963 172.727 201.688 172.727C198.413 172.727 195.758 175.382 195.758 178.657C195.758 181.932 198.413 184.587 201.688 184.587Z" fill="black"/>
<path d="M224.719 184.587C227.995 184.587 230.65 181.932 230.65 178.657C230.65 175.382 227.995 172.727 224.719 172.727C221.444 172.727 218.789 175.382 218.789 178.657C218.789 181.932 221.444 184.587 224.719 184.587Z" fill="black"/>
<path d="M236.235 184.587C239.51 184.587 242.165 181.932 242.165 178.657C242.165 175.382 239.51 172.727 236.235 172.727C232.96 172.727 230.305 175.382 230.305 178.657C230.305 181.932 232.96 184.587 236.235 184.587Z" fill="black"/>
<path d="M247.747 184.587C251.022 184.587 253.677 181.932 253.677 178.657C253.677 175.382 251.022 172.727 247.747 172.727C244.471 172.727 241.816 175.382 241.816 178.657C241.816 181.932 244.471 184.587 247.747 184.587Z" fill="black"/>
<path d="M259.262 184.587C262.538 184.587 265.193 181.932 265.193 178.657C265.193 175.382 262.538 172.727 259.262 172.727C255.987 172.727 253.332 175.382 253.332 178.657C253.332 181.932 255.987 184.587 259.262 184.587Z" fill="black"/>
<path d="M282.294 184.587C285.569 184.587 288.224 181.932 288.224 178.657C288.224 175.382 285.569 172.727 282.294 172.727C279.018 172.727 276.363 175.382 276.363 178.657C276.363 181.932 279.018 184.587 282.294 184.587Z" fill="black"/>
<path d="M293.809 184.587C297.084 184.587 299.74 181.932 299.74 178.657C299.74 175.382 297.084 172.727 293.809 172.727C290.534 172.727 287.879 175.382 287.879 178.657C287.879 181.932 290.534 184.587 293.809 184.587Z" fill="black"/>
<path d="M328.356 184.587C331.631 184.587 334.286 181.932 334.286 178.657C334.286 175.382 331.631 172.727 328.356 172.727C325.081 172.727 322.426 175.382 322.426 178.657C322.426 181.932 325.081 184.587 328.356 184.587Z" fill="black"/>
<path d="M28.9616 196.103C32.2368 196.103 34.8919 193.448 34.8919 190.172C34.8919 186.897 32.2368 184.242 28.9616 184.242C25.6863 184.242 23.0312 186.897 23.0312 190.172C23.0312 193.448 25.6863 196.103 28.9616 196.103Z" fill="black"/>
<path d="M63.5045 196.103C66.7797 196.103 69.4348 193.448 69.4348 190.172C69.4348 186.897 66.7797 184.242 63.5045 184.242C60.2293 184.242 57.5742 186.897 57.5742 190.172C57.5742 193.448 60.2293 196.103 63.5045 196.103Z" fill="black"/>
<path d="M75.0201 196.103C78.2954 196.103 80.9505 193.448 80.9505 190.172C80.9505 186.897 78.2954 184.242 75.0201 184.242C71.7449 184.242 69.0898 186.897 69.0898 190.172C69.0898 193.448 71.7449 196.103 75.0201 196.103Z" fill="black"/>
<path d="M109.567 196.103C112.842 196.103 115.497 193.448 115.497 190.172C115.497 186.897 112.842 184.242 109.567 184.242C106.292 184.242 103.637 186.897 103.637 190.172C103.637 193.448 106.292 196.103 109.567 196.103Z" fill="black"/>
<path d="M132.598 196.103C135.873 196.103 138.529 193.448 138.529 190.172C138.529 186.897 135.873 184.242 132.598 184.242C129.323 184.242 126.668 186.897 126.668 190.172C126.668 193.448 129.323 196.103 132.598 196.103Z" fill="black"/>
<path d="M167.141 196.103C170.416 196.103 173.072 193.448 173.072 190.172C173.072 186.897 170.416 184.242 167.141 184.242C163.866 184.242 161.211 186.897 161.211 190.172C161.211 193.448 163.866 196.103 167.141 196.103Z" fill="black"/>
<path d="M201.688 196.103C204.963 196.103 207.618 193.448 207.618 190.172C207.618 186.897 204.963 184.242 201.688 184.242C198.413 184.242 195.758 186.897 195.758 190.172C195.758 193.448 198.413 196.103 201.688 196.103Z" fill="black"/>
<path d="M213.204 196.103C216.479 196.103 219.134 193.448 219.134 190.172C219.134 186.897 216.479 184.242 213.204 184.242C209.929 184.242 207.273 186.897 207.273 190.172C207.273 193.448 209.929 196.103 213.204 196.103Z" fill="black"/>
<path d="M293.809 196.103C297.084 196.103 299.74 193.448 299.74 190.172C299.74 186.897 297.084 184.242 293.809 184.242C290.534 184.242 287.879 186.897 287.879 190.172C287.879 193.448 290.534 196.103 293.809 196.103Z" fill="black"/>
<path d="M305.325 196.103C308.6 196.103 311.255 193.448 311.255 190.172C311.255 186.897 308.6 184.242 305.325 184.242C302.05 184.242 299.395 186.897 299.395 190.172C299.395 193.448 302.05 196.103 305.325 196.103Z" fill="black"/>
<path d="M5.9303 207.618C9.20552 207.618 11.8606 204.963 11.8606 201.688C11.8606 198.413 9.20552 195.758 5.9303 195.758C2.65509 195.758 0 198.413 0 201.688C0 204.963 2.65509 207.618 5.9303 207.618Z" fill="black"/>
<path d="M28.9616 207.618C32.2368 207.618 34.8919 204.963 34.8919 201.688C34.8919 198.413 32.2368 195.758 28.9616 195.758C25.6863 195.758 23.0312 198.413 23.0312 201.688C23.0312 204.963 25.6863 207.618 28.9616 207.618Z" fill="black"/>
<path d="M51.9928 207.618C55.268 207.618 57.9231 204.963 57.9231 201.688C57.9231 198.413 55.268 195.758 51.9928 195.758C48.7176 195.758 46.0625 198.413 46.0625 201.688C46.0625 204.963 48.7176 207.618 51.9928 207.618Z" fill="black"/>
<path d="M63.5045 207.618C66.7797 207.618 69.4348 204.963 69.4348 201.688C69.4348 198.413 66.7797 195.758 63.5045 195.758C60.2293 195.758 57.5742 198.413 57.5742 201.688C57.5742 204.963 60.2293 207.618 63.5045 207.618Z" fill="black"/>
<path d="M121.083 207.618C124.358 207.618 127.013 204.963 127.013 201.688C127.013 198.413 124.358 195.758 121.083 195.758C117.807 195.758 115.152 198.413 115.152 201.688C115.152 204.963 117.807 207.618 121.083 207.618Z" fill="black"/>
<path d="M155.626 207.618C158.901 207.618 161.556 204.963 161.556 201.688C161.556 198.413 158.901 195.758 155.626 195.758C152.35 195.758 149.695 198.413 149.695 201.688C149.695 204.963 152.35 207.618 155.626 207.618Z" fill="black"/>
<path d="M213.204 207.618C216.479 207.618 219.134 204.963 219.134 201.688C219.134 198.413 216.479 195.758 213.204 195.758C209.929 195.758 207.273 198.413 207.273 201.688C207.273 204.963 209.929 207.618 213.204 207.618Z" fill="black"/>
<path d="M224.719 207.618C227.995 207.618 230.65 204.963 230.65 201.688C230.65 198.413 227.995 195.758 224.719 195.758C221.444 195.758 218.789 198.413 218.789 201.688C218.789 204.963 221.444 207.618 224.719 207.618Z" fill="black"/>
<path d="M236.235 207.618C239.51 207.618 242.165 204.963 242.165 201.688C242.165 198.413 239.51 195.758 236.235 195.758C232.96 195.758 230.305 198.413 230.305 201.688C230.305 204.963 232.96 207.618 236.235 207.618Z" fill="black"/>
<path d="M247.747 207.618C251.022 207.618 253.677 204.963 253.677 201.688C253.677 198.413 251.022 195.758 247.747 195.758C244.471 195.758 241.816 198.413 241.816 201.688C241.816 204.963 244.471 207.618 247.747 207.618Z" fill="black"/>
<path d="M259.262 207.618C262.538 207.618 265.193 204.963 265.193 201.688C265.193 198.413 262.538 195.758 259.262 195.758C255.987 195.758 253.332 198.413 253.332 201.688C253.332 204.963 255.987 207.618 259.262 207.618Z" fill="black"/>
<path d="M270.778 207.618C274.053 207.618 276.708 204.963 276.708 201.688C276.708 198.413 274.053 195.758 270.778 195.758C267.503 195.758 264.848 198.413 264.848 201.688C264.848 204.963 267.503 207.618 270.778 207.618Z" fill="black"/>
<path d="M282.294 207.618C285.569 207.618 288.224 204.963 288.224 201.688C288.224 198.413 285.569 195.758 282.294 195.758C279.018 195.758 276.363 198.413 276.363 201.688C276.363 204.963 279.018 207.618 282.294 207.618Z" fill="black"/>
<path d="M293.809 207.618C297.084 207.618 299.74 204.963 299.74 201.688C299.74 198.413 297.084 195.758 293.809 195.758C290.534 195.758 287.879 198.413 287.879 201.688C287.879 204.963 290.534 207.618 293.809 207.618Z" fill="black"/>
<path d="M305.325 207.618C308.6 207.618 311.255 204.963 311.255 201.688C311.255 198.413 308.6 195.758 305.325 195.758C302.05 195.758 299.395 198.413 299.395 201.688C299.395 204.963 302.05 207.618 305.325 207.618Z" fill="black"/>
<path d="M316.84 207.618C320.116 207.618 322.771 204.963 322.771 201.688C322.771 198.413 320.116 195.758 316.84 195.758C313.565 195.758 310.91 198.413 310.91 201.688C310.91 204.963 313.565 207.618 316.84 207.618Z" fill="black"/>
<path d="M328.356 207.618C331.631 207.618 334.286 204.963 334.286 201.688C334.286 198.413 331.631 195.758 328.356 195.758C325.081 195.758 322.426 198.413 322.426 201.688C322.426 204.963 325.081 207.618 328.356 207.618Z" fill="black"/>
<path d="M5.9303 219.134C9.20552 219.134 11.8606 216.479 11.8606 213.204C11.8606 209.929 9.20552 207.273 5.9303 207.273C2.65509 207.273 0 209.929 0 213.204C0 216.479 2.65509 219.134 5.9303 219.134Z" fill="black"/>
<path d="M75.0201 219.134C78.2954 219.134 80.9505 216.479 80.9505 213.204C80.9505 209.929 78.2954 207.273 75.0201 207.273C71.7449 207.273 69.0898 209.929 69.0898 213.204C69.0898 216.479 71.7449 219.134 75.0201 219.134Z" fill="black"/>
<path d="M109.567 219.134C112.842 219.134 115.497 216.479 115.497 213.204C115.497 209.929 112.842 207.273 109.567 207.273C106.292 207.273 103.637 209.929 103.637 213.204C103.637 216.479 106.292 219.134 109.567 219.134Z" fill="black"/>
<path d="M132.598 219.134C135.873 219.134 138.529 216.479 138.529 213.204C138.529 209.929 135.873 207.273 132.598 207.273C129.323 207.273 126.668 209.929 126.668 213.204C126.668 216.479 129.323 219.134 132.598 219.134Z" fill="black"/>
<path d="M190.172 219.134C193.448 219.134 196.103 216.479 196.103 213.204C196.103 209.929 193.448 207.273 190.172 207.273C186.897 207.273 184.242 209.929 184.242 213.204C184.242 216.479 186.897 219.134 190.172 219.134Z" fill="black"/>
<path d="M236.235 219.134C239.51 219.134 242.165 216.479 242.165 213.204C242.165 209.929 239.51 207.273 236.235 207.273C232.96 207.273 230.305 209.929 230.305 213.204C230.305 216.479 232.96 219.134 236.235 219.134Z" fill="black"/>
<path d="M259.262 219.134C262.538 219.134 265.193 216.479 265.193 213.204C265.193 209.929 262.538 207.273 259.262 207.273C255.987 207.273 253.332 209.929 253.332 213.204C253.332 216.479 255.987 219.134 259.262 219.134Z" fill="black"/>
<path d="M282.294 219.134C285.569 219.134 288.224 216.479 288.224 213.204C288.224 209.929 285.569 207.273 282.294 207.273C279.018 207.273 276.363 209.929 276.363 213.204C276.363 216.479 279.018 219.134 282.294 219.134Z" fill="black"/>
<path d="M293.809 219.134C297.084 219.134 299.74 216.479 299.74 213.204C299.74 209.929 297.084 207.273 293.809 207.273C290.534 207.273 287.879 209.929 287.879 213.204C287.879 216.479 290.534 219.134 293.809 219.134Z" fill="black"/>
<path d="M305.325 219.134C308.6 219.134 311.255 216.479 311.255 213.204C311.255 209.929 308.6 207.273 305.325 207.273C302.05 207.273 299.395 209.929 299.395 213.204C299.395 216.479 302.05 219.134 305.325 219.134Z" fill="black"/>
<path d="M5.9303 230.65C9.20552 230.65 11.8606 227.995 11.8606 224.719C11.8606 221.444 9.20552 218.789 5.9303 218.789C2.65509 218.789 0 221.444 0 224.719C0 227.995 2.65509 230.65 5.9303 230.65Z" fill="black"/>
<path d="M40.4772 230.65C43.7524 230.65 46.4075 227.995 46.4075 224.719C46.4075 221.444 43.7524 218.789 40.4772 218.789C37.202 218.789 34.5469 221.444 34.5469 224.719C34.5469 227.995 37.202 230.65 40.4772 230.65Z" fill="black"/>
<path d="M63.5045 230.65C66.7797 230.65 69.4348 227.995 69.4348 224.719C69.4348 221.444 66.7797 218.789 63.5045 218.789C60.2293 218.789 57.5742 221.444 57.5742 224.719C57.5742 227.995 60.2293 230.65 63.5045 230.65Z" fill="black"/>
<path d="M109.567 230.65C112.842 230.65 115.497 227.995 115.497 224.719C115.497 221.444 112.842 218.789 109.567 218.789C106.292 218.789 103.637 221.444 103.637 224.719C103.637 227.995 106.292 230.65 109.567 230.65Z" fill="black"/>
<path d="M132.598 230.65C135.873 230.65 138.529 227.995 138.529 224.719C138.529 221.444 135.873 218.789 132.598 218.789C129.323 218.789 126.668 221.444 126.668 224.719C126.668 227.995 129.323 230.65 132.598 230.65Z" fill="black"/>
<path d="M144.114 230.65C147.389 230.65 150.044 227.995 150.044 224.719C150.044 221.444 147.389 218.789 144.114 218.789C140.839 218.789 138.184 221.444 138.184 224.719C138.184 227.995 140.839 230.65 144.114 230.65Z" fill="black"/>
<path d="M178.657 230.65C181.932 230.65 184.587 227.995 184.587 224.719C184.587 221.444 181.932 218.789 178.657 218.789C175.382 218.789 172.727 221.444 172.727 224.719C172.727 227.995 175.382 230.65 178.657 230.65Z" fill="black"/>
<path d="M190.172 230.65C193.448 230.65 196.103 227.995 196.103 224.719C196.103 221.444 193.448 218.789 190.172 218.789C186.897 218.789 184.242 221.444 184.242 224.719C184.242 227.995 186.897 230.65 190.172 230.65Z" fill="black"/>
<path d="M201.688 230.65C204.963 230.65 207.618 227.995 207.618 224.719C207.618 221.444 204.963 218.789 201.688 218.789C198.413 218.789 195.758 221.444 195.758 224.719C195.758 227.995 198.413 230.65 201.688 230.65Z" fill="black"/>
<path d="M224.719 230.65C227.995 230.65 230.65 227.995 230.65 224.719C230.65 221.444 227.995 218.789 224.719 218.789C221.444 218.789 218.789 221.444 218.789 224.719C218.789 227.995 221.444 230.65 224.719 230.65Z" fill="black"/>
<path d="M236.235 230.65C239.51 230.65 242.165 227.995 242.165 224.719C242.165 221.444 239.51 218.789 236.235 218.789C232.96 218.789 230.305 221.444 230.305 224.719C230.305 227.995 232.96 230.65 236.235 230.65Z" fill="black"/>
<path d="M259.262 230.65C262.538 230.65 265.193 227.995 265.193 224.719C265.193 221.444 262.538 218.789 259.262 218.789C255.987 218.789 253.332 221.444 253.332 224.719C253.332 227.995 255.987 230.65 259.262 230.65Z" fill="black"/>
<path d="M270.778 230.65C274.053 230.65 276.708 227.995 276.708 224.719C276.708 221.444 274.053 218.789 270.778 218.789C267.503 218.789 264.848 221.444 264.848 224.719C264.848 227.995 267.503 230.65 270.778 230.65Z" fill="black"/>
<path d="M293.809 230.65C297.084 230.65 299.74 227.995 299.74 224.719C299.74 221.444 297.084 218.789 293.809 218.789C290.534 218.789 287.879 221.444 287.879 224.719C287.879 227.995 290.534 230.65 293.809 230.65Z" fill="black"/>
<path d="M328.356 230.65C331.631 230.65 334.286 227.995 334.286 224.719C334.286 221.444 331.631 218.789 328.356 218.789C325.081 218.789 322.426 221.444 322.426 224.719C322.426 227.995 325.081 230.65 328.356 230.65Z" fill="black"/>
<path d="M5.9303 242.165C9.20552 242.165 11.8606 239.51 11.8606 236.235C11.8606 232.96 9.20552 230.305 5.9303 230.305C2.65509 230.305 0 232.96 0 236.235C0 239.51 2.65509 242.165 5.9303 242.165Z" fill="black"/>
<path d="M28.9616 242.165C32.2368 242.165 34.8919 239.51 34.8919 236.235C34.8919 232.96 32.2368 230.305 28.9616 230.305C25.6863 230.305 23.0312 232.96 23.0312 236.235C23.0312 239.51 25.6863 242.165 28.9616 242.165Z" fill="black"/>
<path d="M40.4772 242.165C43.7524 242.165 46.4075 239.51 46.4075 236.235C46.4075 232.96 43.7524 230.305 40.4772 230.305C37.202 230.305 34.5469 232.96 34.5469 236.235C34.5469 239.51 37.202 242.165 40.4772 242.165Z" fill="black"/>
<path d="M63.5045 242.165C66.7797 242.165 69.4348 239.51 69.4348 236.235C69.4348 232.96 66.7797 230.305 63.5045 230.305C60.2293 230.305 57.5742 232.96 57.5742 236.235C57.5742 239.51 60.2293 242.165 63.5045 242.165Z" fill="black"/>
<path d="M75.0201 242.165C78.2954 242.165 80.9505 239.51 80.9505 236.235C80.9505 232.96 78.2954 230.305 75.0201 230.305C71.7449 230.305 69.0898 232.96 69.0898 236.235C69.0898 239.51 71.7449 242.165 75.0201 242.165Z" fill="black"/>
<path d="M109.567 242.165C112.842 242.165 115.497 239.51 115.497 236.235C115.497 232.96 112.842 230.305 109.567 230.305C106.292 230.305 103.637 232.96 103.637 236.235C103.637 239.51 106.292 242.165 109.567 242.165Z" fill="black"/>
<path d="M132.598 242.165C135.873 242.165 138.529 239.51 138.529 236.235C138.529 232.96 135.873 230.305 132.598 230.305C129.323 230.305 126.668 232.96 126.668 236.235C126.668 239.51 129.323 242.165 132.598 242.165Z" fill="black"/>
<path d="M144.114 242.165C147.389 242.165 150.044 239.51 150.044 236.235C150.044 232.96 147.389 230.305 144.114 230.305C140.839 230.305 138.184 232.96 138.184 236.235C138.184 239.51 140.839 242.165 144.114 242.165Z" fill="black"/>
<path d="M201.688 242.165C204.963 242.165 207.618 239.51 207.618 236.235C207.618 232.96 204.963 230.305 201.688 230.305C198.413 230.305 195.758 232.96 195.758 236.235C195.758 239.51 198.413 242.165 201.688 242.165Z" fill="black"/>
<path d="M224.719 242.165C227.995 242.165 230.65 239.51 230.65 236.235C230.65 232.96 227.995 230.305 224.719 230.305C221.444 230.305 218.789 232.96 218.789 236.235C218.789 239.51 221.444 242.165 224.719 242.165Z" fill="black"/>
<path d="M236.235 242.165C239.51 242.165 242.165 239.51 242.165 236.235C242.165 232.96 239.51 230.305 236.235 230.305C232.96 230.305 230.305 232.96 230.305 236.235C230.305 239.51 232.96 242.165 236.235 242.165Z" fill="black"/>
<path d="M247.747 242.165C251.022 242.165 253.677 239.51 253.677 236.235C253.677 232.96 251.022 230.305 247.747 230.305C244.471 230.305 241.816 232.96 241.816 236.235C241.816 239.51 244.471 242.165 247.747 242.165Z" fill="black"/>
<path d="M259.262 242.165C262.538 242.165 265.193 239.51 265.193 236.235C265.193 232.96 262.538 230.305 259.262 230.305C255.987 230.305 253.332 232.96 253.332 236.235C253.332 239.51 255.987 242.165 259.262 242.165Z" fill="black"/>
<path d="M270.778 242.165C274.053 242.165 276.708 239.51 276.708 236.235C276.708 232.96 274.053 230.305 270.778 230.305C267.503 230.305 264.848 232.96 264.848 236.235C264.848 239.51 267.503 242.165 270.778 242.165Z" fill="black"/>
<path d="M282.294 242.165C285.569 242.165 288.224 239.51 288.224 236.235C288.224 232.96 285.569 230.305 282.294 230.305C279.018 230.305 276.363 232.96 276.363 236.235C276.363 239.51 279.018 242.165 282.294 242.165Z" fill="black"/>
<path d="M305.325 242.165C308.6 242.165 311.255 239.51 311.255 236.235C311.255 232.96 308.6 230.305 305.325 230.305C302.05 230.305 299.395 232.96 299.395 236.235C299.395 239.51 302.05 242.165 305.325 242.165Z" fill="black"/>
<path d="M98.0514 253.677C101.327 253.677 103.982 251.022 103.982 247.747C103.982 244.471 101.327 241.816 98.0514 241.816C94.7762 241.816 92.1211 244.471 92.1211 247.747C92.1211 251.022 94.7762 253.677 98.0514 253.677Z" fill="black"/>
<path d="M109.567 253.677C112.842 253.677 115.497 251.022 115.497 247.747C115.497 244.471 112.842 241.816 109.567 241.816C106.292 241.816 103.637 244.471 103.637 247.747C103.637 251.022 106.292 253.677 109.567 253.677Z" fill="black"/>
<path d="M121.083 253.677C124.358 253.677 127.013 251.022 127.013 247.747C127.013 244.471 124.358 241.816 121.083 241.816C117.807 241.816 115.152 244.471 115.152 247.747C115.152 251.022 117.807 253.677 121.083 253.677Z" fill="black"/>
<path d="M132.598 253.677C135.873 253.677 138.529 251.022 138.529 247.747C138.529 244.471 135.873 241.816 132.598 241.816C129.323 241.816 126.668 244.471 126.668 247.747C126.668 251.022 129.323 253.677 132.598 253.677Z" fill="black"/>
<path d="M144.114 253.677C147.389 253.677 150.044 251.022 150.044 247.747C150.044 244.471 147.389 241.816 144.114 241.816C140.839 241.816 138.184 244.471 138.184 247.747C138.184 251.022 140.839 253.677 144.114 253.677Z" fill="black"/>
<path d="M155.626 253.677C158.901 253.677 161.556 251.022 161.556 247.747C161.556 244.471 158.901 241.816 155.626 241.816C152.35 241.816 149.695 244.471 149.695 247.747C149.695 251.022 152.35 253.677 155.626 253.677Z" fill="black"/>
<path d="M167.141 253.677C170.416 253.677 173.072 251.022 173.072 247.747C173.072 244.471 170.416 241.816 167.141 241.816C163.866 241.816 161.211 244.471 161.211 247.747C161.211 251.022 163.866 253.677 167.141 253.677Z" fill="black"/>
<path d="M178.657 253.677C181.932 253.677 184.587 251.022 184.587 247.747C184.587 244.471 181.932 241.816 178.657 241.816C175.382 241.816 172.727 244.471 172.727 247.747C172.727 251.022 175.382 253.677 178.657 253.677Z" fill="black"/>
<path d="M201.688 253.677C204.963 253.677 207.618 251.022 207.618 247.747C207.618 244.471 204.963 241.816 201.688 241.816C198.413 241.816 195.758 244.471 195.758 247.747C195.758 251.022 198.413 253.677 201.688 253.677Z" fill="black"/>
<path d="M224.719 253.677C227.995 253.677 230.65 251.022 230.65 247.747C230.65 244.471 227.995 241.816 224.719 241.816C221.444 241.816 218.789 244.471 218.789 247.747C218.789 251.022 221.444 253.677 224.719 253.677Z" fill="black"/>
<path d="M236.235 253.677C239.51 253.677 242.165 251.022 242.165 247.747C242.165 244.471 239.51 241.816 236.235 241.816C232.96 241.816 230.305 244.471 230.305 247.747C230.305 251.022 232.96 253.677 236.235 253.677Z" fill="black"/>
<path d="M282.294 253.677C285.569 253.677 288.224 251.022 288.224 247.747C288.224 244.471 285.569 241.816 282.294 241.816C279.018 241.816 276.363 244.471 276.363 247.747C276.363 251.022 279.018 253.677 282.294 253.677Z" fill="black"/>
<path d="M293.809 253.677C297.084 253.677 299.74 251.022 299.74 247.747C299.74 244.471 297.084 241.816 293.809 241.816C290.534 241.816 287.879 244.471 287.879 247.747C287.879 251.022 290.534 253.677 293.809 253.677Z" fill="black"/>
<path d="M316.84 253.677C320.116 253.677 322.771 251.022 322.771 247.747C322.771 244.471 320.116 241.816 316.84 241.816C313.565 241.816 310.91 244.471 310.91 247.747C310.91 251.022 313.565 253.677 316.84 253.677Z" fill="black"/>
<path d="M328.356 253.677C331.631 253.677 334.286 251.022 334.286 247.747C334.286 244.471 331.631 241.816 328.356 241.816C325.081 241.816 322.426 244.471 322.426 247.747C322.426 251.022 325.081 253.677 328.356 253.677Z" fill="black"/>
<path d="M109.567 265.193C112.842 265.193 115.497 262.538 115.497 259.262C115.497 255.987 112.842 253.332 109.567 253.332C106.292 253.332 103.637 255.987 103.637 259.262C103.637 262.538 106.292 265.193 109.567 265.193Z" fill="black"/>
<path d="M121.083 265.193C124.358 265.193 127.013 262.538 127.013 259.262C127.013 255.987 124.358 253.332 121.083 253.332C117.807 253.332 115.152 255.987 115.152 259.262C115.152 262.538 117.807 265.193 121.083 265.193Z" fill="black"/>
<path d="M144.114 265.193C147.389 265.193 150.044 262.538 150.044 259.262C150.044 255.987 147.389 253.332 144.114 253.332C140.839 253.332 138.184 255.987 138.184 259.262C138.184 262.538 140.839 265.193 144.114 265.193Z" fill="black"/>
<path d="M155.626 265.193C158.901 265.193 161.556 262.538 161.556 259.262C161.556 255.987 158.901 253.332 155.626 253.332C152.35 253.332 149.695 255.987 149.695 259.262C149.695 262.538 152.35 265.193 155.626 265.193Z" fill="black"/>
<path d="M167.141 265.193C170.416 265.193 173.072 262.538 173.072 259.262C173.072 255.987 170.416 253.332 167.141 253.332C163.866 253.332 161.211 255.987 161.211 259.262C161.211 262.538 163.866 265.193 167.141 265.193Z" fill="black"/>
<path d="M190.172 265.193C193.448 265.193 196.103 262.538 196.103 259.262C196.103 255.987 193.448 253.332 190.172 253.332C186.897 253.332 184.242 255.987 184.242 259.262C184.242 262.538 186.897 265.193 190.172 265.193Z" fill="black"/>
<path d="M201.688 265.193C204.963 265.193 207.618 262.538 207.618 259.262C207.618 255.987 204.963 253.332 201.688 253.332C198.413 253.332 195.758 255.987 195.758 259.262C195.758 262.538 198.413 265.193 201.688 265.193Z" fill="black"/>
<path d="M213.204 265.193C216.479 265.193 219.134 262.538 219.134 259.262C219.134 255.987 216.479 253.332 213.204 253.332C209.929 253.332 207.273 255.987 207.273 259.262C207.273 262.538 209.929 265.193 213.204 265.193Z" fill="black"/>
<path d="M224.719 265.193C227.995 265.193 230.65 262.538 230.65 259.262C230.65 255.987 227.995 253.332 224.719 253.332C221.444 253.332 218.789 255.987 218.789 259.262C218.789 262.538 221.444 265.193 224.719 265.193Z" fill="black"/>
<path d="M236.235 265.193C239.51 265.193 242.165 262.538 242.165 259.262C242.165 255.987 239.51 253.332 236.235 253.332C232.96 253.332 230.305 255.987 230.305 259.262C230.305 262.538 232.96 265.193 236.235 265.193Z" fill="black"/>
<path d="M259.262 265.193C262.538 265.193 265.193 262.538 265.193 259.262C265.193 255.987 262.538 253.332 259.262 253.332C255.987 253.332 253.332 255.987 253.332 259.262C253.332 262.538 255.987 265.193 259.262 265.193Z" fill="black"/>
<path d="M282.294 265.193C285.569 265.193 288.224 262.538 288.224 259.262C288.224 255.987 285.569 253.332 282.294 253.332C279.018 253.332 276.363 255.987 276.363 259.262C276.363 262.538 279.018 265.193 282.294 265.193Z" fill="black"/>
<path d="M109.567 276.708C112.842 276.708 115.497 274.053 115.497 270.778C115.497 267.503 112.842 264.848 109.567 264.848C106.292 264.848 103.637 267.503 103.637 270.778C103.637 274.053 106.292 276.708 109.567 276.708Z" fill="black"/>
<path d="M121.083 276.708C124.358 276.708 127.013 274.053 127.013 270.778C127.013 267.503 124.358 264.848 121.083 264.848C117.807 264.848 115.152 267.503 115.152 270.778C115.152 274.053 117.807 276.708 121.083 276.708Z" fill="black"/>
<path d="M132.598 276.708C135.873 276.708 138.529 274.053 138.529 270.778C138.529 267.503 135.873 264.848 132.598 264.848C129.323 264.848 126.668 267.503 126.668 270.778C126.668 274.053 129.323 276.708 132.598 276.708Z" fill="black"/>
<path d="M144.114 276.708C147.389 276.708 150.044 274.053 150.044 270.778C150.044 267.503 147.389 264.848 144.114 264.848C140.839 264.848 138.184 267.503 138.184 270.778C138.184 274.053 140.839 276.708 144.114 276.708Z" fill="black"/>
<path d="M155.626 276.708C158.901 276.708 161.556 274.053 161.556 270.778C161.556 267.503 158.901 264.848 155.626 264.848C152.35 264.848 149.695 267.503 149.695 270.778C149.695 274.053 152.35 276.708 155.626 276.708Z" fill="black"/>
<path d="M167.141 276.708C170.416 276.708 173.072 274.053 173.072 270.778C173.072 267.503 170.416 264.848 167.141 264.848C163.866 264.848 161.211 267.503 161.211 270.778C161.211 274.053 163.866 276.708 167.141 276.708Z" fill="black"/>
<path d="M178.657 276.708C181.932 276.708 184.587 274.053 184.587 270.778C184.587 267.503 181.932 264.848 178.657 264.848C175.382 264.848 172.727 267.503 172.727 270.778C172.727 274.053 175.382 276.708 178.657 276.708Z" fill="black"/>
<path d="M190.172 276.708C193.448 276.708 196.103 274.053 196.103 270.778C196.103 267.503 193.448 264.848 190.172 264.848C186.897 264.848 184.242 267.503 184.242 270.778C184.242 274.053 186.897 276.708 190.172 276.708Z" fill="black"/>
<path d="M213.204 276.708C216.479 276.708 219.134 274.053 219.134 270.778C219.134 267.503 216.479 264.848 213.204 264.848C209.929 264.848 207.273 267.503 207.273 270.778C207.273 274.053 209.929 276.708 213.204 276.708Z" fill="black"/>
<path d="M224.719 276.708C227.995 276.708 230.65 274.053 230.65 270.778C230.65 267.503 227.995 264.848 224.719 264.848C221.444 264.848 218.789 267.503 218.789 270.778C218.789 274.053 221.444 276.708 224.719 276.708Z" fill="black"/>
<path d="M236.235 276.708C239.51 276.708 242.165 274.053 242.165 270.778C242.165 267.503 239.51 264.848 236.235 264.848C232.96 264.848 230.305 267.503 230.305 270.778C230.305 274.053 232.96 276.708 236.235 276.708Z" fill="black"/>
<path d="M282.294 276.708C285.569 276.708 288.224 274.053 288.224 270.778C288.224 267.503 285.569 264.848 282.294 264.848C279.018 264.848 276.363 267.503 276.363 270.778C276.363 274.053 279.018 276.708 282.294 276.708Z" fill="black"/>
<path d="M293.809 276.708C297.084 276.708 299.74 274.053 299.74 270.778C299.74 267.503 297.084 264.848 293.809 264.848C290.534 264.848 287.879 267.503 287.879 270.778C287.879 274.053 290.534 276.708 293.809 276.708Z" fill="black"/>
<path d="M316.84 276.708C320.116 276.708 322.771 274.053 322.771 270.778C322.771 267.503 320.116 264.848 316.84 264.848C313.565 264.848 310.91 267.503 310.91 270.778C310.91 274.053 313.565 276.708 316.84 276.708Z" fill="black"/>
<path d="M328.356 276.708C331.631 276.708 334.286 274.053 334.286 270.778C334.286 267.503 331.631 264.848 328.356 264.848C325.081 264.848 322.426 267.503 322.426 270.778C322.426 274.053 325.081 276.708 328.356 276.708Z" fill="black"/>
<path d="M98.0514 288.224C101.327 288.224 103.982 285.569 103.982 282.294C103.982 279.018 101.327 276.363 98.0514 276.363C94.7762 276.363 92.1211 279.018 92.1211 282.294C92.1211 285.569 94.7762 288.224 98.0514 288.224Z" fill="black"/>
<path d="M109.567 288.224C112.842 288.224 115.497 285.569 115.497 282.294C115.497 279.018 112.842 276.363 109.567 276.363C106.292 276.363 103.637 279.018 103.637 282.294C103.637 285.569 106.292 288.224 109.567 288.224Z" fill="black"/>
<path d="M144.114 288.224C147.389 288.224 150.044 285.569 150.044 282.294C150.044 279.018 147.389 276.363 144.114 276.363C140.839 276.363 138.184 279.018 138.184 282.294C138.184 285.569 140.839 288.224 144.114 288.224Z" fill="black"/>
<path d="M167.141 288.224C170.416 288.224 173.072 285.569 173.072 282.294C173.072 279.018 170.416 276.363 167.141 276.363C163.866 276.363 161.211 279.018 161.211 282.294C161.211 285.569 163.866 288.224 167.141 288.224Z" fill="black"/>
<path d="M178.657 288.224C181.932 288.224 184.587 285.569 184.587 282.294C184.587 279.018 181.932 276.363 178.657 276.363C175.382 276.363 172.727 279.018 172.727 282.294C172.727 285.569 175.382 288.224 178.657 288.224Z" fill="black"/>
<path d="M201.688 288.224C204.963 288.224 207.618 285.569 207.618 282.294C207.618 279.018 204.963 276.363 201.688 276.363C198.413 276.363 195.758 279.018 195.758 282.294C195.758 285.569 198.413 288.224 201.688 288.224Z" fill="black"/>
<path d="M213.204 288.224C216.479 288.224 219.134 285.569 219.134 282.294C219.134 279.018 216.479 276.363 213.204 276.363C209.929 276.363 207.273 279.018 207.273 282.294C207.273 285.569 209.929 288.224 213.204 288.224Z" fill="black"/>
<path d="M236.235 288.224C239.51 288.224 242.165 285.569 242.165 282.294C242.165 279.018 239.51 276.363 236.235 276.363C232.96 276.363 230.305 279.018 230.305 282.294C230.305 285.569 232.96 288.224 236.235 288.224Z" fill="black"/>
<path d="M247.747 288.224C251.022 288.224 253.677 285.569 253.677 282.294C253.677 279.018 251.022 276.363 247.747 276.363C244.471 276.363 241.816 279.018 241.816 282.294C241.816 285.569 244.471 288.224 247.747 288.224Z" fill="black"/>
<path d="M259.262 288.224C262.538 288.224 265.193 285.569 265.193 282.294C265.193 279.018 262.538 276.363 259.262 276.363C255.987 276.363 253.332 279.018 253.332 282.294C253.332 285.569 255.987 288.224 259.262 288.224Z" fill="black"/>
<path d="M270.778 288.224C274.053 288.224 276.708 285.569 276.708 282.294C276.708 279.018 274.053 276.363 270.778 276.363C267.503 276.363 264.848 279.018 264.848 282.294C264.848 285.569 267.503 288.224 270.778 288.224Z" fill="black"/>
<path d="M282.294 288.224C285.569 288.224 288.224 285.569 288.224 282.294C288.224 279.018 285.569 276.363 282.294 276.363C279.018 276.363 276.363 279.018 276.363 282.294C276.363 285.569 279.018 288.224 282.294 288.224Z" fill="black"/>
<path d="M293.809 288.224C297.084 288.224 299.74 285.569 299.74 282.294C299.74 279.018 297.084 276.363 293.809 276.363C290.534 276.363 287.879 279.018 287.879 282.294C287.879 285.569 290.534 288.224 293.809 288.224Z" fill="black"/>
<path d="M305.325 288.224C308.6 288.224 311.255 285.569 311.255 282.294C311.255 279.018 308.6 276.363 305.325 276.363C302.05 276.363 299.395 279.018 299.395 282.294C299.395 285.569 302.05 288.224 305.325 288.224Z" fill="black"/>
<path d="M328.356 288.224C331.631 288.224 334.286 285.569 334.286 282.294C334.286 279.018 331.631 276.363 328.356 276.363C325.081 276.363 322.426 279.018 322.426 282.294C322.426 285.569 325.081 288.224 328.356 288.224Z" fill="black"/>
<path d="M98.0514 299.74C101.327 299.74 103.982 297.084 103.982 293.809C103.982 290.534 101.327 287.879 98.0514 287.879C94.7762 287.879 92.1211 290.534 92.1211 293.809C92.1211 297.084 94.7762 299.74 98.0514 299.74Z" fill="black"/>
<path d="M109.567 299.74C112.842 299.74 115.497 297.084 115.497 293.809C115.497 290.534 112.842 287.879 109.567 287.879C106.292 287.879 103.637 290.534 103.637 293.809C103.637 297.084 106.292 299.74 109.567 299.74Z" fill="black"/>
<path d="M132.598 299.74C135.873 299.74 138.529 297.084 138.529 293.809C138.529 290.534 135.873 287.879 132.598 287.879C129.323 287.879 126.668 290.534 126.668 293.809C126.668 297.084 129.323 299.74 132.598 299.74Z" fill="black"/>
<path d="M144.114 299.74C147.389 299.74 150.044 297.084 150.044 293.809C150.044 290.534 147.389 287.879 144.114 287.879C140.839 287.879 138.184 290.534 138.184 293.809C138.184 297.084 140.839 299.74 144.114 299.74Z" fill="black"/>
<path d="M167.141 299.74C170.416 299.74 173.072 297.084 173.072 293.809C173.072 290.534 170.416 287.879 167.141 287.879C163.866 287.879 161.211 290.534 161.211 293.809C161.211 297.084 163.866 299.74 167.141 299.74Z" fill="black"/>
<path d="M190.172 299.74C193.448 299.74 196.103 297.084 196.103 293.809C196.103 290.534 193.448 287.879 190.172 287.879C186.897 287.879 184.242 290.534 184.242 293.809C184.242 297.084 186.897 299.74 190.172 299.74Z" fill="black"/>
<path d="M201.688 299.74C204.963 299.74 207.618 297.084 207.618 293.809C207.618 290.534 204.963 287.879 201.688 287.879C198.413 287.879 195.758 290.534 195.758 293.809C195.758 297.084 198.413 299.74 201.688 299.74Z" fill="black"/>
<path d="M224.719 299.74C227.995 299.74 230.65 297.084 230.65 293.809C230.65 290.534 227.995 287.879 224.719 287.879C221.444 287.879 218.789 290.534 218.789 293.809C218.789 297.084 221.444 299.74 224.719 299.74Z" fill="black"/>
<path d="M236.235 299.74C239.51 299.74 242.165 297.084 242.165 293.809C242.165 290.534 239.51 287.879 236.235 287.879C232.96 287.879 230.305 290.534 230.305 293.809C230.305 297.084 232.96 299.74 236.235 299.74Z" fill="black"/>
<path d="M247.747 299.74C251.022 299.74 253.677 297.084 253.677 293.809C253.677 290.534 251.022 287.879 247.747 287.879C244.471 287.879 241.816 290.534 241.816 293.809C241.816 297.084 244.471 299.74 247.747 299.74Z" fill="black"/>
<path d="M270.778 299.74C274.053 299.74 276.708 297.084 276.708 293.809C276.708 290.534 274.053 287.879 270.778 287.879C267.503 287.879 264.848 290.534 264.848 293.809C264.848 297.084 267.503 299.74 270.778 299.74Z" fill="black"/>
<path d="M293.809 299.74C297.084 299.74 299.74 297.084 299.74 293.809C299.74 290.534 297.084 287.879 293.809 287.879C290.534 287.879 287.879 290.534 287.879 293.809C287.879 297.084 290.534 299.74 293.809 299.74Z" fill="black"/>
<path d="M98.0514 311.255C101.327 311.255 103.982 308.6 103.982 305.325C103.982 302.05 101.327 299.395 98.0514 299.395C94.7762 299.395 92.1211 302.05 92.1211 305.325C92.1211 308.6 94.7762 311.255 98.0514 311.255Z" fill="black"/>
<path d="M109.567 311.255C112.842 311.255 115.497 308.6 115.497 305.325C115.497 302.05 112.842 299.395 109.567 299.395C106.292 299.395 103.637 302.05 103.637 305.325C103.637 308.6 106.292 311.255 109.567 311.255Z" fill="black"/>
<path d="M155.626 311.255C158.901 311.255 161.556 308.6 161.556 305.325C161.556 302.05 158.901 299.395 155.626 299.395C152.35 299.395 149.695 302.05 149.695 305.325C149.695 308.6 152.35 311.255 155.626 311.255Z" fill="black"/>
<path d="M167.141 311.255C170.416 311.255 173.072 308.6 173.072 305.325C173.072 302.05 170.416 299.395 167.141 299.395C163.866 299.395 161.211 302.05 161.211 305.325C161.211 308.6 163.866 311.255 167.141 311.255Z" fill="black"/>
<path d="M178.657 311.255C181.932 311.255 184.587 308.6 184.587 305.325C184.587 302.05 181.932 299.395 178.657 299.395C175.382 299.395 172.727 302.05 172.727 305.325C172.727 308.6 175.382 311.255 178.657 311.255Z" fill="black"/>
<path d="M224.719 311.255C227.995 311.255 230.65 308.6 230.65 305.325C230.65 302.05 227.995 299.395 224.719 299.395C221.444 299.395 218.789 302.05 218.789 305.325C218.789 308.6 221.444 311.255 224.719 311.255Z" fill="black"/>
<path d="M236.235 311.255C239.51 311.255 242.165 308.6 242.165 305.325C242.165 302.05 239.51 299.395 236.235 299.395C232.96 299.395 230.305 302.05 230.305 305.325C230.305 308.6 232.96 311.255 236.235 311.255Z" fill="black"/>
<path d="M247.747 311.255C251.022 311.255 253.677 308.6 253.677 305.325C253.677 302.05 251.022 299.395 247.747 299.395C244.471 299.395 241.816 302.05 241.816 305.325C241.816 308.6 244.471 311.255 247.747 311.255Z" fill="black"/>
<path d="M259.262 311.255C262.538 311.255 265.193 308.6 265.193 305.325C265.193 302.05 262.538 299.395 259.262 299.395C255.987 299.395 253.332 302.05 253.332 305.325C253.332 308.6 255.987 311.255 259.262 311.255Z" fill="black"/>
<path d="M270.778 311.255C274.053 311.255 276.708 308.6 276.708 305.325C276.708 302.05 274.053 299.395 270.778 299.395C267.503 299.395 264.848 302.05 264.848 305.325C264.848 308.6 267.503 311.255 270.778 311.255Z" fill="black"/>
<path d="M282.294 311.255C285.569 311.255 288.224 308.6 288.224 305.325C288.224 302.05 285.569 299.395 282.294 299.395C279.018 299.395 276.363 302.05 276.363 305.325C276.363 308.6 279.018 311.255 282.294 311.255Z" fill="black"/>
<path d="M293.809 311.255C297.084 311.255 299.74 308.6 299.74 305.325C299.74 302.05 297.084 299.395 293.809 299.395C290.534 299.395 287.879 302.05 287.879 305.325C287.879 308.6 290.534 311.255 293.809 311.255Z" fill="black"/>
<path d="M305.325 311.255C308.6 311.255 311.255 308.6 311.255 305.325C311.255 302.05 308.6 299.395 305.325 299.395C302.05 299.395 299.395 302.05 299.395 305.325C299.395 308.6 302.05 311.255 305.325 311.255Z" fill="black"/>
<path d="M316.84 311.255C320.116 311.255 322.771 308.6 322.771 305.325C322.771 302.05 320.116 299.395 316.84 299.395C313.565 299.395 310.91 302.05 310.91 305.325C310.91 308.6 313.565 311.255 316.84 311.255Z" fill="black"/>
<path d="M121.083 322.771C124.358 322.771 127.013 320.116 127.013 316.84C127.013 313.565 124.358 310.91 121.083 310.91C117.807 310.91 115.152 313.565 115.152 316.84C115.152 320.116 117.807 322.771 121.083 322.771Z" fill="black"/>
<path d="M155.626 322.771C158.901 322.771 161.556 320.116 161.556 316.84C161.556 313.565 158.901 310.91 155.626 310.91C152.35 310.91 149.695 313.565 149.695 316.84C149.695 320.116 152.35 322.771 155.626 322.771Z" fill="black"/>
<path d="M178.657 322.771C181.932 322.771 184.587 320.116 184.587 316.84C184.587 313.565 181.932 310.91 178.657 310.91C175.382 310.91 172.727 313.565 172.727 316.84C172.727 320.116 175.382 322.771 178.657 322.771Z" fill="black"/>
<path d="M201.688 322.771C204.963 322.771 207.618 320.116 207.618 316.84C207.618 313.565 204.963 310.91 201.688 310.91C198.413 310.91 195.758 313.565 195.758 316.84C195.758 320.116 198.413 322.771 201.688 322.771Z" fill="black"/>
<path d="M213.204 322.771C216.479 322.771 219.134 320.116 219.134 316.84C219.134 313.565 216.479 310.91 213.204 310.91C209.929 310.91 207.273 313.565 207.273 316.84C207.273 320.116 209.929 322.771 213.204 322.771Z" fill="black"/>
<path d="M236.235 322.771C239.51 322.771 242.165 320.116 242.165 316.84C242.165 313.565 239.51 310.91 236.235 310.91C232.96 310.91 230.305 313.565 230.305 316.84C230.305 320.116 232.96 322.771 236.235 322.771Z" fill="black"/>
<path d="M247.747 322.771C251.022 322.771 253.677 320.116 253.677 316.84C253.677 313.565 251.022 310.91 247.747 310.91C244.471 310.91 241.816 313.565 241.816 316.84C241.816 320.116 244.471 322.771 247.747 322.771Z" fill="black"/>
<path d="M282.294 322.771C285.569 322.771 288.224 320.116 288.224 316.84C288.224 313.565 285.569 310.91 282.294 310.91C279.018 310.91 276.363 313.565 276.363 316.84C276.363 320.116 279.018 322.771 282.294 322.771Z" fill="black"/>
<path d="M293.809 322.771C297.084 322.771 299.74 320.116 299.74 316.84C299.74 313.565 297.084 310.91 293.809 310.91C290.534 310.91 287.879 313.565 287.879 316.84C287.879 320.116 290.534 322.771 293.809 322.771Z" fill="black"/>
<path d="M316.84 322.771C320.116 322.771 322.771 320.116 322.771 316.84C322.771 313.565 320.116 310.91 316.84 310.91C313.565 310.91 310.91 313.565 310.91 316.84C310.91 320.116 313.565 322.771 316.84 322.771Z" fill="black"/>
<path d="M109.567 334.286C112.842 334.286 115.497 331.631 115.497 328.356C115.497 325.081 112.842 322.426 109.567 322.426C106.292 322.426 103.637 325.081 103.637 328.356C103.637 331.631 106.292 334.286 109.567 334.286Z" fill="black"/>
<path d="M144.114 334.286C147.389 334.286 150.044 331.631 150.044 328.356C150.044 325.081 147.389 322.426 144.114 322.426C140.839 322.426 138.184 325.081 138.184 328.356C138.184 331.631 140.839 334.286 144.114 334.286Z" fill="black"/>
<path d="M155.626 334.286C158.901 334.286 161.556 331.631 161.556 328.356C161.556 325.081 158.901 322.426 155.626 322.426C152.35 322.426 149.695 325.081 149.695 328.356C149.695 331.631 152.35 334.286 155.626 334.286Z" fill="black"/>
<path d="M167.141 334.286C170.416 334.286 173.072 331.631 173.072 328.356C173.072 325.081 170.416 322.426 167.141 322.426C163.866 322.426 161.211 325.081 161.211 328.356C161.211 331.631 163.866 334.286 167.141 334.286Z" fill="black"/>
<path d="M190.172 334.286C193.448 334.286 196.103 331.631 196.103 328.356C196.103 325.081 193.448 322.426 190.172 322.426C186.897 322.426 184.242 325.081 184.242 328.356C184.242 331.631 186.897 334.286 190.172 334.286Z" fill="black"/>
<path d="M213.204 334.286C216.479 334.286 219.134 331.631 219.134 328.356C219.134 325.081 216.479 322.426 213.204 322.426C209.929 322.426 207.273 325.081 207.273 328.356C207.273 331.631 209.929 334.286 213.204 334.286Z" fill="black"/>
<path d="M224.719 334.286C227.995 334.286 230.65 331.631 230.65 328.356C230.65 325.081 227.995 322.426 224.719 322.426C221.444 322.426 218.789 325.081 218.789 328.356C218.789 331.631 221.444 334.286 224.719 334.286Z" fill="black"/>
<path d="M259.262 334.286C262.538 334.286 265.193 331.631 265.193 328.356C265.193 325.081 262.538 322.426 259.262 322.426C255.987 322.426 253.332 325.081 253.332 328.356C253.332 331.631 255.987 334.286 259.262 334.286Z" fill="black"/>
<path d="M282.294 334.286C285.569 334.286 288.224 331.631 288.224 328.356C288.224 325.081 285.569 322.426 282.294 322.426C279.018 322.426 276.363 325.081 276.363 328.356C276.363 331.631 279.018 334.286 282.294 334.286Z" fill="black"/>
<path d="M305.325 334.286C308.6 334.286 311.255 331.631 311.255 328.356C311.255 325.081 308.6 322.426 305.325 322.426C302.05 322.426 299.395 325.081 299.395 328.356C299.395 331.631 302.05 334.286 305.325 334.286Z" fill="black"/>
<path d="M25.9091 80.6061H55.2727C69.0909 80.6061 80.6061 69.0909 80.6061 55.2727V25.9091C80.6061 11.5152 69.0909 0 54.697 0H25.3333C11.5152 0 0 11.5152 0 25.3333V54.697C0 69.0909 11.5152 80.6061 25.9091 80.6061ZM69.0909 27.6364V52.9697C69.0909 61.6061 61.6061 69.0909 52.9697 69.0909H27.6364C18.4242 69.0909 11.5152 62.1818 11.5152 52.9697V27.6364C11.5152 19 19 11.5152 27.6364 11.5152H52.9697C62.1818 11.5152 69.0909 18.4242 69.0909 27.6364Z" fill="black"/>
<path d="M279.241 80.6061H308.605C322.423 80.6061 333.938 69.0909 333.938 55.2727V25.9091C333.938 11.5152 322.423 0 308.029 0H278.665C264.847 0 253.332 11.5152 253.332 25.3333V54.697C253.332 69.0909 264.847 80.6061 279.241 80.6061ZM322.423 27.6364V52.9697C322.423 61.6061 314.938 69.0909 306.302 69.0909H280.968C271.756 69.0909 264.847 62.1818 264.847 52.9697V27.6364C264.847 19 272.332 11.5152 280.968 11.5152H306.302C315.514 11.5152 322.423 18.4242 322.423 27.6364Z" fill="black"/>
<path d="M25.9091 333.938H55.2727C69.0909 333.938 80.6061 322.423 80.6061 308.605V279.241C80.6061 264.847 69.0909 253.332 54.697 253.332H25.3333C11.5152 253.332 0 264.847 0 278.665V308.029C0 322.423 11.5152 333.938 25.9091 333.938ZM69.0909 280.968V306.302C69.0909 314.938 61.6061 322.423 52.9697 322.423H27.6364C18.4242 322.423 11.5152 315.514 11.5152 306.302V280.968C11.5152 272.332 19 264.847 27.6364 264.847H52.9697C62.1818 264.847 69.0909 271.756 69.0909 280.968Z" fill="black"/>
<path d="M57.5767 32.8191V48.3646C57.5767 52.9706 52.9706 57.5767 47.7888 57.5767H32.8191C27.0616 57.5767 23.0312 53.5464 23.0312 47.7888V32.8191C23.0312 27.6373 27.6373 23.0312 32.8191 23.0312H48.3646C53.5464 23.0312 57.5767 27.0616 57.5767 32.8191Z" fill="black"/>
<path d="M310.909 32.8191V48.3646C310.909 52.9706 306.303 57.5767 301.121 57.5767H286.151C280.394 57.5767 276.363 53.5464 276.363 47.7888V32.8191C276.363 27.6373 280.969 23.0312 286.151 23.0312H301.697C306.878 23.0312 310.909 27.0616 310.909 32.8191Z" fill="black"/>
<path d="M57.5767 286.151V301.697C57.5767 306.303 52.9706 310.909 47.7888 310.909H32.8191C27.0616 310.909 23.0312 306.878 23.0312 301.121V286.151C23.0312 280.969 27.6373 276.363 32.8191 276.363H48.3646C53.5464 276.363 57.5767 280.394 57.5767 286.151Z" fill="black"/>
</svg>
